<?xml version="1.0" encoding="UTF-8"?><svg id="Layer_2" xmlns="http://www.w3.org/2000/svg" viewBox="0 0 153.23 183.95"><defs><style>.cls-1{fill:#fff;}.cls-2{stroke-miterlimit:10;}.cls-2,.cls-3{fill:none;stroke:#999;stroke-width:.41px;}.cls-4{fill:#473c36;}.cls-3{stroke-linecap:round;stroke-linejoin:round;}.cls-5{fill:#999;}.cls-6{fill:#ca9e67;}.cls-7{fill:#302823;}</style></defs><g id="Layer_1-2"><g id="guitar"><path id="strap_hook_bottom" class="cls-4" d="m19.1,175.16l-4.37,2.2s-.68,2.05,4.36,3.08v-5.28Z"/><path id="strap_hook" class="cls-4" d="m59.57,72.6l4.64-1.55s.97-1.93-3.87-3.67l-.77,5.22Z"/><path id="strap_hook-2" class="cls-4" d="m118.07,24.16l-.3-4.88s-1.62-1.43-4.55,2.79l4.85,2.09Z"/><path id="strap_hook-3" class="cls-4" d="m123.42,20.66l-.3-4.88s-1.62-1.43-4.55,2.79l4.85,2.09Z"/><path id="strap_hook-4" class="cls-4" d="m128.8,16.91l-.3-4.88s-1.62-1.43-4.55,2.79l4.85,2.09Z"/><path id="strap_hook-5" class="cls-4" d="m134.27,13.26l-.3-4.88s-1.62-1.43-4.55,2.79l4.85,2.09Z"/><path id="strap_hook-6" class="cls-4" d="m139.73,9.33l-.3-4.88s-1.62-1.43-4.55,2.79l4.85,2.09Z"/><path id="strap_hook-7" class="cls-4" d="m145.83,5.12l-.3-4.88s-1.62-1.43-4.55,2.79l4.85,2.09Z"/><g id="body"><path class="cls-6" d="m67.09,96.09s-7.54,3.48-10.64,0-3.29-8.7-.77-11.8,7.79-7.28,6.94-10.66c-1.26-4.99-9.31-2.66-12.38,0-2.68,2.33-9.91,8.97-11.6,26.88-1.35,14.31-7.16,15.61-11.61,16.38s-21.21,6.29-24.97,18.9c-4.76,15.97-1.85,29.4,14.94,40.56,14.71,9.78,33.56,10.73,42.16-.77,6.22-8.33,2.13-20.11,6.77-28.24s4.9-10.39,21.08-18.18c10.44-5.03,14.31-17.99,9.09-19.53s-10.44,6.58-16.05,6.77-6.37-15.77-6.37-15.77l-6.59-4.54Z"/></g><path id="scratchboard" class="cls-7" d="m62.55,105.86s-3.35-7.73-10.12-6.09c-5.61,1.35-5.64,8.9-9.9,16.83-3.95,7.35-13.64,8.52-15.38,18.24s15.96,11.16,20.21,19.86,3.29,16.63,7.54,15.28c3.71-1.18,3.98-6.77,6.38-20.89s16.63-19.15,21.47-21.37,9.28-7.83,6.19-8.8-9.86,2.9-13.73.19-6-10.83-6-10.83l-6.67-2.42Z"/><path id="neck" class="cls-4" d="m153.21,9.03c-.39,6-9.65,5.82-9.65,5.82-.8,2.05-6.89,15.14-10.44,18.62-1.19,1.16-6.46-.63-11.1,1.5-1.97.9-53.67,77.46-53.67,77.46l-9.17-6.04L113.94,30.69c-2.54-2.63-1.6-4.93,2.98-7.47,9.09-5.03,29.79-20.5,29.79-20.5,2.73-1.59,6.89.32,6.5,6.31Z"/><rect id="bridge" class="cls-1" x="26.19" y="148.42" width="14.52" height="6.13" rx="2.45" ry="2.45" transform="translate(85.8 5.45) rotate(32.17)"/><g id="knobs"><g id="knob"><circle class="cls-1" cx="54.52" cy="163.1" r="2.1"/><circle class="cls-5" cx="54.52" cy="163.1" r="1.05"/></g><g id="knob-2"><circle class="cls-1" cx="54.09" cy="155.35" r="2.1"/><circle class="cls-5" cx="54.09" cy="155.35" r="1.05"/></g></g><g id="jack"><path id="jack-2" class="cls-1" d="m42.12,162.89c-2.95.65,1.55,11.41,4.06,13.54s2.13-14.89-4.06-13.54Z"/><path class="cls-3" d="m44.85,165.63l-2.27.73s.92,4.59,3.09,7.2"/></g><g id="string_holes"><circle class="cls-7" cx="118.78" cy="25.81" r="1.09"/><circle class="cls-7" cx="124.01" cy="22.25" r="1.09"/><circle class="cls-7" cx="129.34" cy="18.63" r="1.09"/><circle class="cls-7" cx="134.89" cy="14.85" r="1.09"/><circle class="cls-7" cx="140.99" cy="10.7" r="1.09"/><circle class="cls-7" cx="146.77" cy="6.77" r="1.09"/></g><g><rect id="pickup" class="cls-1" x="35.99" y="135.37" width="16.16" height="4.44" rx="2.22" ry="2.22" transform="translate(80.03 -2.34) rotate(32.17)"/><circle class="cls-7" cx="39.75" cy="134.88" r=".65"/><circle class="cls-7" cx="41.22" cy="135.8" r=".65"/><circle class="cls-7" cx="42.85" cy="136.82" r=".65"/><circle class="cls-7" cx="44.47" cy="137.84" r=".65"/><circle class="cls-7" cx="46.28" cy="138.98" r=".65"/><circle class="cls-7" cx="47.72" cy="139.89" r=".65"/></g><g><rect id="pickup-2" class="cls-1" x="43.05" y="125.56" width="16.16" height="4.44" rx="2.22" ry="2.22" transform="translate(75.89 -7.6) rotate(32.17)"/><circle class="cls-7" cx="46.81" cy="125.06" r=".65"/><circle class="cls-7" cx="48.28" cy="125.99" r=".65"/><circle class="cls-7" cx="49.91" cy="127.01" r=".65"/><circle class="cls-7" cx="51.53" cy="128.03" r=".65"/><circle class="cls-7" cx="53.33" cy="129.17" r=".65"/><circle class="cls-7" cx="54.78" cy="130.08" r=".65"/></g><g><rect id="pickup-3" class="cls-1" x="49.55" y="116.47" width="16.16" height="4.44" rx="2.22" ry="2.22" transform="translate(72.05 -12.46) rotate(32.17)"/><circle class="cls-7" cx="53.31" cy="115.97" r=".65"/><circle class="cls-7" cx="54.78" cy="116.9" r=".65"/><circle class="cls-7" cx="56.41" cy="117.92" r=".65"/><circle class="cls-7" cx="58.03" cy="118.94" r=".65"/><circle class="cls-7" cx="59.83" cy="120.08" r=".65"/><circle class="cls-7" cx="61.28" cy="120.99" r=".65"/></g><g id="strings"><polyline class="cls-2" points="27.69 151.49 114.72 31.42 118.78 25.81"/><polyline class="cls-2" points="29.17 152.43 116.15 32.03 124.01 22.25"/><path class="cls-2" d="m30.86,153.49L117.27,33.23s.04-.06.07-.08l12-14.52"/><polyline class="cls-2" points="32.58 154.57 118.25 34.2 134.89 14.85"/><polyline class="cls-2" points="34.34 155.67 119.55 34.88 140.99 10.7"/><polyline class="cls-2" points="36.07 156.77 120.61 35.48 146.77 6.77"/></g></g></g></svg>