<?xml version="1.0" encoding="UTF-8"?><svg id="Layer_2" xmlns="http://www.w3.org/2000/svg" viewBox="0 0 241.79 162.02"><defs><style>.cls-1,.cls-2{fill:#4c4e57;}.cls-1,.cls-3{opacity:.42;}.cls-4{fill:#9a8093;}.cls-5{fill:#ccc5ba;}.cls-6{opacity:.22;stroke:#fff;stroke-miterlimit:10;stroke-width:.42px;}.cls-6,.cls-7{fill:none;}.cls-8{fill:#1a1a1c;}.cls-9{fill:#3a473a;}.cls-10{fill:#c9cad4;}.cls-11{fill:#fff;opacity:.2;}.cls-12{fill:#cbbba0;}.cls-7{stroke:#7b6a58;stroke-linecap:round;stroke-linejoin:round;stroke-width:.49px;}.cls-13{fill:#2a292d;}.cls-14{fill:#43485b;}.cls-15{fill:#526c54;}.cls-16{fill:#19191c;}</style></defs><g id="Layer_1-2"><g><g id="Table"><rect class="cls-12" x="36.11" y="127.47" width="8.59" height="34.55" rx="3" ry="3"/><rect class="cls-12" x="202.15" y="127.47" width="8.59" height="34.55" rx="3" ry="3"/><path class="cls-5" d="m.17,123.24l-.08,2.88c-.05,1.96,1.52,3.58,3.49,3.58h234c1.68,0,3.12-1.2,3.43-2.85l.65-3.49L.17,123.24Z"/><path id="table" class="cls-12" d="m25.63,64.79h194.34c.99,0,1.87.63,2.19,1.57l19.5,57.01c.51,1.5-.6,3.07-2.19,3.07H2.32c-1.65,0-2.77-1.67-2.15-3.19l23.31-57.01c.36-.87,1.2-1.44,2.15-1.44Z"/></g><g><path class="cls-16" d="m60.87,105.29l.67,3.74c.2,1.12,1.17,1.93,2.3,1.93h116.92c1.05,0,1.98-.7,2.26-1.72l1.09-3.95H60.87Z"/><rect class="cls-16" x="73.6" width="97.8" height="63.25" rx="5.07" ry="5.07"/><path class="cls-14" d="m167.96,6.64v49.98c0,1.88-1.52,3.4-3.41,3.4h-84.11c-1.88,0-3.4-1.52-3.4-3.4V6.64c0-1.88,1.52-3.41,3.4-3.41h84.11c1.88,0,3.41,1.53,3.41,3.41Z"/><path class="cls-8" d="m184.02,105.3c-.39,1.63-1.95,2.92-3.93,2.92h-115.2c-1.97,0-3.53-1.29-3.92-2.92-.15-.6-.14-1.25.08-1.9l10.47-31.95,1.82-5.55c.52-1.57,2.07-2.64,3.84-2.64h90.14c1.75,0,3.3,1.06,3.83,2.61l12.78,37.5c.22.66.24,1.32.09,1.94Z"/><path id="trackpad" class="cls-1" d="m137.55,106.38c-.1.4-.48.71-.96.71h-28.19c-.48,0-.86-.32-.96-.71-.04-.15-.03-.31.02-.46l2.56-7.82.44-1.36c.13-.38.51-.65.94-.65h22.06c.43,0,.81.26.94.64l3.13,9.17c.05.16.06.32.02.47Z"/><g id="keyboard" class="cls-3"><g><rect class="cls-2" x="106.91" y="87.54" width="30.05" height="5.13"/><rect class="cls-2" x="99.16" y="87.54" width="6.82" height="5.13"/><rect class="cls-2" x="91.42" y="87.54" width="6.82" height="5.13"/><rect class="cls-2" x="83.68" y="87.54" width="6.82" height="5.13"/><path class="cls-2" d="m82.88,87.54v5.13h-9.21c-1.65,0-2.96-.97-3.29-2.21-.12-.46-.11-.95.07-1.43l.51-1.49h11.93Z"/><path class="cls-2" d="m173.73,90.46c-.33,1.24-1.64,2.21-3.3,2.21h-9.23v-5.13h11.99l.46,1.46c.19.5.2,1,.08,1.46Z"/><rect class="cls-2" x="153.37" y="87.54" width="6.82" height="5.13"/><rect class="cls-2" x="145.63" y="87.54" width="6.82" height="5.13"/><rect class="cls-2" x="137.88" y="87.54" width="6.82" height="5.13"/></g><g><rect class="cls-2" x="110.01" y="80.7" width="6.82" height="5.13"/><rect class="cls-2" x="117.75" y="80.7" width="6.82" height="5.13"/><rect class="cls-2" x="102.27" y="80.7" width="6.82" height="5.13"/><rect class="cls-2" x="94.52" y="80.7" width="6.82" height="5.13"/><rect class="cls-2" x="86.78" y="80.7" width="6.82" height="5.13"/><polygon class="cls-2" points="85.84 80.7 85.84 85.83 71.54 85.83 73.32 80.7 85.84 80.7"/><rect class="cls-2" x="125.5" y="80.7" width="6.82" height="5.13"/><rect class="cls-2" x="156.47" y="80.7" width="6.82" height="5.13"/><rect class="cls-2" x="148.73" y="80.7" width="6.82" height="5.13"/><rect class="cls-2" x="140.99" y="80.7" width="6.82" height="5.13"/><rect class="cls-2" x="133.24" y="80.7" width="6.82" height="5.13"/></g><g><rect class="cls-2" x="109.07" y="73.85" width="6.82" height="5.13"/><rect class="cls-2" x="116.81" y="73.85" width="6.82" height="5.13"/><rect class="cls-2" x="101.32" y="73.85" width="6.82" height="5.13"/><rect class="cls-2" x="93.58" y="73.85" width="6.82" height="5.13"/><rect class="cls-2" x="85.84" y="73.85" width="6.82" height="5.13"/><polygon class="cls-2" points="84.9 73.85 84.9 78.99 73.9 78.99 75.68 73.85 84.9 73.85"/><rect class="cls-2" x="124.56" y="73.85" width="6.82" height="5.13"/><rect class="cls-2" x="155.53" y="73.85" width="6.82" height="5.13"/><rect class="cls-2" x="147.79" y="73.85" width="6.82" height="5.13"/><rect class="cls-2" x="140.04" y="73.85" width="6.82" height="5.13"/><rect class="cls-2" x="132.3" y="73.85" width="6.82" height="5.13"/></g><g><rect class="cls-2" x="107.22" y="67.01" width="6.82" height="5.13"/><rect class="cls-2" x="114.97" y="67.01" width="6.82" height="5.13"/><rect class="cls-2" x="99.48" y="67.01" width="6.82" height="5.13"/><rect class="cls-2" x="91.74" y="67.01" width="6.82" height="5.13"/><rect class="cls-2" x="83.99" y="67.01" width="6.82" height="5.13"/><path class="cls-2" d="m168.25,72.14h-6.82v-5.13h2.6c1.47,0,2.77.8,3.21,1.97l1,3.16Z"/><path class="cls-2" d="m83.07,67.01v5.13h-6.82l1.08-3.13c.43-1.18,1.74-2,3.23-2h2.51Z"/><rect class="cls-2" x="122.71" y="67.01" width="6.82" height="5.13"/><rect class="cls-2" x="153.69" y="67.01" width="6.82" height="5.13"/><rect class="cls-2" x="145.95" y="67.01" width="6.82" height="5.13"/><rect class="cls-2" x="138.2" y="67.01" width="6.82" height="5.13"/><rect class="cls-2" x="130.46" y="67.01" width="6.82" height="5.13"/></g><polygon class="cls-2" points="163.29 73.85 163.29 78.99 164.44 78.99 164.44 85.83 172.64 85.83 168.84 73.85 163.29 73.85"/></g><path class="cls-11" d="m113.04,60.02h-32.6c-1.88,0-3.4-1.52-3.4-3.4V6.64c0-1.88,1.52-3.41,3.4-3.41h21.9l10.7,56.79Z"/><polygon class="cls-11" points="136.83 60.02 128.99 60.02 118.46 3.23 126.13 3.23 136.83 60.02"/><polygon class="cls-11" points="149.89 60.02 142.05 60.02 131.52 3.23 139.19 3.23 149.89 60.02"/></g><g id="Mouse"><path class="cls-13" d="m209.89,95.38c1.23,7.51-.22,11.68-5.76,12.59s-8.15-3.52-9.23-10.13c-1.44-8.77-.36-11.59,5.52-12.55,6.22-1.02,8.02,1.23,9.48,10.09Z"/><ellipse class="cls-10" cx="201.42" cy="90.66" rx=".93" ry="1.98" transform="translate(-12 33.74) rotate(-9.3)"/><line class="cls-6" x1="200.41" y1="85.28" x2="202.15" y2="95.12"/><path class="cls-6" d="m194.74,96.88s7.89-2.63,15-2.46"/></g><path class="cls-4" d="m28.99,79.33c-1.58,1.11-1.48,3.5.15,4.54,4.33,2.78,18.43,5.69,30.59.42,18.15-7.88-21.43-11.48-30.74-4.96Z"/><g id="Mug"><path class="cls-9" d="m32.31,55.7s9.57-3.93,25.44-.96l-10.43,8.21-15.01-7.24Z"/><path class="cls-15" d="m32.31,55.7s0,20.44,5.82,25.71c2.87,2.6,11.05,1.68,13.8.74.83-.28,2.1-.74,2.69-1.98,1.65-3.48,5.2-14.39,3.14-25.44,0,0-11.69,6.28-25.44.96Z"/><path class="cls-15" d="m35.19,60.39s-4.02-4.74-7.37-2.49-1.89,19.53,3.57,18.15,4.63-6.8,4.63-6.8l.57-3.93-1.2-.88s-1.7,7.82-3.17,8.16-3.48-1.47-3.62-4.78c-.09-2.03-.26-7.93,1.55-7.76s5.18,3.08,5.18,3.08l-.13-2.77Z"/><path class="cls-7" d="m39.85,52.46s2.43-2.46,1.17-4.22c-.63-.88-1.7-1.48-1.56-2.3.34-1.98,2.23-1.02,1.84-2.97s-2.23-3.55-2.23-3.55"/><path class="cls-7" d="m45.26,52.33s2.48-1.77,1.33-3.6-2.21-1.93-1.93-3.27c.34-1.62,2.03-1.02,1.63-2.96s-1.68-2.79-1.68-2.79"/><path class="cls-7" d="m50.16,52.33s1.72-2.13,1.17-4.22c-.4-1.53-2.03-1.02-1.65-2.65s1.94-1.15,1.55-3.09-1.85-3.08-1.85-3.08"/></g></g></g></svg>