<?xml version="1.0" encoding="UTF-8"?><svg id="Layer_2" xmlns="http://www.w3.org/2000/svg" xmlns:xlink="http://www.w3.org/1999/xlink" viewBox="0 0 32 32"><defs><style>.cls-1{opacity:.2;}.cls-2{fill:url(#radial-gradient);}.cls-3{fill:#79522c;}.cls-4{fill:none;}.cls-5{fill:#926039;}.cls-6{fill:#1d1d1b;}.cls-7{fill:#754d2d;}</style><radialGradient id="radial-gradient" cx="15.99" cy="20.51" fx="15.99" fy="20.51" r="10.16" gradientUnits="userSpaceOnUse"><stop offset="0" stop-color="#b17f4a"/><stop offset=".95" stop-color="#926039"/></radialGradient></defs><g id="Layer_1-2"><g id="logo_square"><rect class="cls-4" width="32" height="32"/><g id="ME_"><g id="Head"><path class="cls-2" d="m25.52,24.31c0,.18,0,.36,0,.54h0c-.02.9-.09,1.66-.23,2.06-.53,1.45-8.04,4.35-9.32,4.35-1.17,0-8.23-3.3-9.12-4.11-.28-.26-.38-1.17-.39-2.3,0-.17,0-.35,0-.54,0-.36.02-.73.03-1.1h0c0-.16.02-.32.02-.48h0c.11-1.93.33-3.75.33-3.75,0-.06,0-.11,0-.17,0-.02,0-.05,0-.07,0-.07,0-.13,0-.2,0-.02,0-.04,0-.06,0-.05,0-.11.01-.16,0-.02,0-.05,0-.07,0-.06.01-.13.02-.19,0-.08.02-.15.02-.22,0-.07.02-.15.03-.22.01-.07.02-.15.04-.22,0,0,0,0,0,0,.03-.15.05-.29.09-.44.02-.07.03-.14.05-.21,0,0,0-.01,0-.02.02-.07.03-.13.05-.2,0,0,0,0,0,0,.02-.06.03-.12.05-.18,0-.02.01-.04.02-.07.02-.05.03-.11.05-.16,0,0,0-.02,0-.03.02-.06.04-.12.06-.18,0,0,0,0,0-.01.02-.06.04-.11.06-.17.01-.03.02-.05.03-.08,0,0,0,0,0-.02.03-.08.07-.17.1-.25.02-.04.04-.09.06-.13.04-.09.08-.17.12-.26.13-.27.27-.53.43-.79.03-.06.07-.11.1-.17.04-.06.07-.11.11-.16.04-.05.07-.11.11-.16.06-.08.12-.17.18-.25.1-.13.2-.27.31-.39,0,0,0,0,0,0,0,0,0,0,0-.01.02-.02.04-.05.06-.07.02-.02.04-.05.06-.07.05-.05.09-.1.14-.15.09-.1.19-.2.28-.3.06-.06.12-.12.18-.17.01-.01.03-.03.04-.04.04-.04.08-.08.12-.11.02-.02.04-.04.06-.06.18-.16.36-.31.55-.45.06-.05.13-.09.19-.14,0,0,0,0,0,0,0,0,0,0,0,0,.04-.03.08-.06.13-.09.05-.03.1-.07.15-.1.07-.05.15-.1.22-.14,0,0,0,0,0,0,.24-.15.49-.29.75-.41.26-.13.52-.24.79-.35.07-.03.14-.05.2-.08.07-.02.14-.05.2-.07.07-.02.14-.04.2-.06,0,0,0,0,0,0,.07-.02.14-.04.2-.06.14-.04.28-.08.42-.11.14-.03.29-.06.43-.09.07-.01.15-.02.22-.04.07-.01.15-.02.22-.03.07,0,.13-.02.2-.02,0,0,.01,0,.02,0,.22-.02.44-.04.67-.05h0c.07,0,.15,0,.23,0h0s.05,0,.08,0c.04,0,.08,0,.12,0h0c.99.01,1.94.18,2.83.48,3.15,1.06,5.53,3.78,6.12,7.12.04.22.07.45.09.68,0,0,0,.02,0,.02.03.3.04.61.04.91h0s.01.14.02.32c.05.61.14,2.02.19,3.48,0,0,0,.02,0,.03,0,.14,0,.27.01.41,0,.37.01.74.01,1.09Z"/><polygon class="cls-6" points="16.19 9.76 16.19 9.77 16.19 9.76 16.19 9.76"/><path class="cls-6" d="m25.25,18.11s0-.03,0-.04c-.02-.23-.06-.47-.1-.7,0-.03,0-.05-.01-.08.05.25.08.5.11.76,0,.02,0,.05,0,.07Z"/><path class="cls-6" d="m25.32,19.31s0,0,0-.01v-.02s0,.02,0,.03Z"/><g id="Ears"><g id="Ear_left"><path class="cls-5" d="m27.16,23.67c-.23.78-1.08,1.4-1.64,1.18h0s0-.54,0-.54v-1.5s-.01-.03-.01-.03c0-.02,0-.04.02-.06.06-.12.26-.24.35-.32.14-.11.28-.25.62-.17.36.08.85.82.67,1.43Z"/><path class="cls-7" d="m25.51,23.22s.26-.31.56-.17.41.42.38.69-.29.49-.46.53c-.22.06-.47.04-.47.04v-1.09Z"/></g></g><g id="Ears-2"><g id="Ear_left-2"><path class="cls-5" d="m6.53,22.77c0-.14-.29-.28-.4-.37-.14-.11-.28-.25-.62-.17s-.85.82-.67,1.43c.23.78,1.07,1.4,1.63,1.18l.06-2.07Z"/><path class="cls-7" d="m6.52,23.23s-.29-.32-.59-.18-.41.42-.38.69.29.49.46.53c.22.06.47.04.47.04l.03-1.08Z"/></g></g><g id="Eyes"><g><ellipse id="Eye_right" cx="13.33" cy="22.61" rx=".53" ry="2.05"/><g class="cls-1"><g><path class="cls-3" d="m13.62,22.82h.02s-.03,0-.02,0Z"/><polygon class="cls-3" points="13.57 22.78 13.58 22.78 13.56 22.77 13.57 22.78"/><path class="cls-3" d="m13.57,22.73s0,.02,0,.02h0s.03,0,.03,0c0,0-.02-.02-.01-.03Z"/><path class="cls-3" d="m13.66,22.71s-.01,0,0,0h0s0,0,0,0Z"/><path class="cls-3" d="m13.66,22.72s.01,0,0,0h0Z"/><path class="cls-3" d="m13.65,22.7h.01s.01,0,.02,0c0,0-.02,0-.03,0Z"/><path class="cls-3" d="m13.62,22.69h0s0,0,0,0Z"/><path class="cls-3" d="m13.64,22.7h-.01s-.02,0,0,0c-.01,0,0,0,0,0Z"/><path class="cls-3" d="m13.63,22.7s-.01,0-.03,0c0,.01.03.01.03,0Z"/><path class="cls-3" d="m13.53,22.73h-.01s.01,0,.01,0c0,0,.01,0,0,0Z"/><path class="cls-3" d="m13.67,22.66s-.02,0-.03,0h0s.01,0,.02,0Z"/><path class="cls-3" d="m13.64,22.66h-.01s0,0,.01,0Z"/><polygon class="cls-3" points="13.58 22.69 13.61 22.7 13.58 22.68 13.58 22.69"/><polygon class="cls-3" points="13.67 22.64 13.69 22.64 13.66 22.63 13.67 22.64"/><path class="cls-3" d="m13.67,22.62s.03,0,.04,0c0,0-.02,0-.03-.01,0,0,0,0,0,.01Z"/><path class="cls-3" d="m13.66,22.6s.01,0,.02,0c0,0,0,0-.02,0Z"/><path class="cls-3" d="m13.63,22.64s.02,0,.02,0h-.02s0,0,0,0Z"/><polygon class="cls-3" points="13.63 22.64 13.63 22.64 13.63 22.63 13.63 22.64"/><path class="cls-3" d="m13.63,22.64h0s0,0,0,0Z"/><path class="cls-3" d="m13.6,22.67s-.03-.01-.05,0c.02,0,.03,0,.05,0Z"/><path class="cls-3" d="m13.6,22.65h0s.01,0,.02,0h-.02Z"/><polygon class="cls-3" points="13.59 22.64 13.6 22.65 13.6 22.64 13.59 22.64"/><path class="cls-3" d="m13.64,22.61s-.01-.01-.01-.01c0,0,0,.01,0,.01,0,0,.02,0,.02,0Z"/><path class="cls-3" d="m13.63,22.62h0s0,0,0,0Z"/><polygon class="cls-3" points="13.63 22.56 13.63 22.56 13.63 22.56 13.63 22.56"/><path class="cls-3" d="m13.62,22.61s0,0,0,0h0s0,0,0,0Z"/><path class="cls-3" d="m13.65,22.59s-.01,0-.01,0c0,0,.02,0,.01,0Z"/><path class="cls-3" d="m13.64,22.62h0s0,0,0,0Z"/><path class="cls-3" d="m13.64,22.62s0,0-.01,0h0s0,0,0,0Z"/><path class="cls-3" d="m13.49,22.54s.04.01.02.02c.02,0,.08,0,.12,0,0,0-.02,0-.03,0-.01,0-.03.01-.05,0-.01-.01,0,0,.02-.01-.03,0-.04-.02-.08-.02h.01s-.02,0-.02,0Z"/><path class="cls-3" d="m13.62,22.57h0s.01,0,.03,0c0,0-.02,0-.02,0h0s0,.01,0,.01Z"/><path class="cls-3" d="m13.63,22.59s-.03-.01-.06,0c0,0,.02,0,.03.01,0-.01.01,0,.03,0h0s0,0,.01,0h0s0,0,0,0h0s0,0,0,0h0s0,0,0,0c0,0,0,0,0,0h0s0,0,0,0h-.01s0,0,0,0Z"/><path class="cls-3" d="m13.51,22.65h0s0,0,0,0Z"/><path class="cls-3" d="m13.52,22.65h0s-.01,0-.02,0c0,0,.02,0,.03,0h0s.04-.01.04-.01c-.02,0-.04,0-.06,0Z"/><path class="cls-3" d="m13.57,22.62h-.01s-.02,0-.02,0h.01s0,0,.02,0Z"/><polygon class="cls-3" points="13.64 22.56 13.67 22.56 13.63 22.55 13.64 22.56"/><polygon class="cls-3" points="13.64 22.55 13.66 22.55 13.65 22.54 13.64 22.55"/><path class="cls-3" d="m13.44,21.68h0s0,0,0,0Z"/><path class="cls-3" d="m13.44,21.7h.01s-.01,0-.01,0Z"/><path class="cls-3" d="m13.67,22.17s.05,0,.03,0h-.02s0,0,0,0Z"/><path class="cls-3" d="m13.55,21.91h0s.02,0,.02,0c0,0,0,0-.01,0Z"/><path class="cls-3" d="m13.46,21.9h.02s-.02,0-.02,0Z"/><path class="cls-3" d="m13.4,21.56h-.02s.01,0,.02,0Z"/><path class="cls-3" d="m13.65,22.39s.01,0,.01,0c-.01,0-.03,0-.01,0Z"/><path class="cls-3" d="m13.68,21.68s0,0-.01,0c0,0,0,0,.01,0Z"/><path class="cls-3" d="m13.66,22.37h0s0,.01,0,.01c.01,0,.02,0,0-.01Z"/><path class="cls-3" d="m13.32,21.12h0s0,0,0,0Z"/><path class="cls-3" d="m13.43,20.87h0s0,0,0,0Z"/><path class="cls-3" d="m13.56,22.49s0,0-.01,0c0,0,.01,0,.01,0Z"/><path class="cls-3" d="m13.52,22.32h0s0,0,0,0Z"/><path class="cls-3" d="m13.64,22.49h0s0,0,0,0Z"/><path class="cls-3" d="m13.66,22.49h0s0,0,0,0Z"/><polygon class="cls-3" points="13.65 22.48 13.65 22.49 13.66 22.49 13.65 22.48"/><path class="cls-3" d="m13.45,21.33h0s0,0,0,0Z"/><polygon class="cls-3" points="13.44 22.07 13.44 22.07 13.44 22.07 13.44 22.07"/><path class="cls-3" d="m13.42,22.06s.02,0,.02.01h.07s-.08-.01-.08-.01Z"/><path class="cls-3" d="m13.43,21.63h-.02s-.02,0-.05,0c.07,0,0,.03.08.02h-.01s0,0,0,0c-.03.01.05,0,.04.02,0,0-.02,0-.02,0h.02s-.01,0-.01,0h0s0,.01,0,.01c.01,0,.03,0,.04,0-.01,0,0,0-.02,0h.02s-.04,0-.03,0c-.07,0,.02,0-.02.02h0s-.03,0-.05.01c.01,0,.06-.02.08,0,0,0,0,0,0,.01-.03,0-.02,0-.02.01h-.03s.03,0,.04,0c0,0-.03,0-.05,0,0,.01.04,0,.05,0-.01,0,0,.02.02.03-.01,0-.02,0-.03,0h.03s-.01,0-.01,0c.01,0,.03,0,.04.01.04,0-.06.01-.01.03,0,0-.02,0-.03,0,.03.02.02.01.06.03h-.02s.06.01.08.02c.01,0,.02,0,.03,0h.02s-.02.01-.03.01h0s-.03,0-.05,0h.02s-.04-.01-.06-.01h0s-.01,0-.01,0c0,0,0,0,.01,0h-.04s.02,0,.02,0l-.02.02s.09.03.11.05c-.03,0-.05,0-.08,0,.04,0-.01-.02,0-.03,0,0-.02,0-.03,0l.03.02s-.02,0-.03,0c.05,0,.03.02.05.02-.02,0-.04,0-.03-.01-.04,0,.06.02.03.02,0,0,0,0,0,0,.02,0,0,.02-.01.01h0s0,.04.04.05c0,0-.05,0-.06,0l.15.04s-.13,0-.15-.02c0,0-.01,0,0,.01,0,0,.06,0,.06,0-.04,0-.02,0-.06.01,0,0,.07,0,.07.01,0,0-.06,0-.07,0l.06.02s-.05,0-.07,0c.01,0,0,.01,0,.02h.01s.08.02.08.03c-.01,0-.08-.01-.08,0,.03,0,.15.03.17.04h-.02s.02.01.02.01c-.05-.01-.14-.04-.18-.05-.01,0-.02,0-.02,0-.02,0-.03,0-.03,0v.02s.02.02.05.02l-.04-.03s.1.02.09.04c-.01,0-.06,0-.08,0,.01,0,.02.02.01.02h-.02s.05,0,.01.02c0,0-.05,0-.03,0,.04,0,.17,0,.2.01,0,0-.04.01-.06.02-.03,0-.08-.01-.1-.01,0,0,.03,0,.03,0,0,0-.03,0-.03,0,.04,0,0,.02.03,0,0,0,0,0,0,.02.02,0,.08.01.09.02,0,0-.02,0-.03,0,0,.01-.02.02-.02.04,0,0-.02,0-.04,0,0,0,.02,0,.02,0-.03,0,0-.01-.04,0,.02,0,.03.01.04.02.03,0,0-.01,0-.02.04,0,.09.02.11.04.01.01-.03,0-.02,0,0,.02.08.03.04.04-.03,0-.06,0-.08,0-.01-.01.02-.01.02-.02h-.01s-.02,0,0,0c-.03,0,0,.04-.03.05,0,0,.02,0,.03,0h0s.03,0,.04,0c.02,0,.04.02.03.03h-.03s.02,0,.01,0c.01,0-.05.01,0,.02h.02s.05.01.04.02c.03,0,0,0,.03,0-.05,0,0-.02-.05-.02.04,0,.02,0,.06-.02-.01,0-.02,0-.01,0h0s0,0,0,0h0s0,0,0,0c0,0-.01,0-.02,0-.02,0-.02-.02-.04-.02,0,0,.01,0,.02,0h-.02s.04-.02.05,0h0s.02-.02.01-.03c0,0-.03-.01,0,0v-.02s0,0,0,0c0-.01-.04-.03,0-.05,0,0-.01-.01,0-.02h.02s.02-.02,0-.02c.06,0,.01-.03.03-.04h-.03s0-.02-.01-.03h-.02s.02-.02.02-.03c0,0,0,0,0,0,.06-.01-.04-.04,0-.05,0,0,0,0,0,0h0s0,0,0,0h.01s-.01,0-.01,0c0,0,0,0,0-.01h.03s0,0,0,0c0,0-.01,0-.03,0,0,0,0,0-.01,0,.04,0-.01-.01.03-.01-.02,0-.01-.02-.06-.03,0,0,0,0,0,0,0,0,.01,0,0-.01h.03s-.04-.01-.04-.01c.02,0,.03,0,.06,0-.04-.02-.01-.01-.05-.03h.02s-.03-.01-.01-.01c.04,0,0-.05.05-.07-.06,0,.03,0-.02-.01.01,0,.02,0,.04,0-.01-.01.02-.02-.02-.03.01,0,.02,0,.03,0,0,0-.01,0,0,0,0,0,.01,0,.02,0,0-.01-.05-.02-.09-.02.02,0,.02,0,0-.02.01,0,.03,0,.03,0,0,0,.02-.03-.01-.03,0,0,0,0,0,0,0-.01,0-.01,0-.02h0s0,0-.01-.01h0s-.01,0,.02-.03h-.03c-.05,0,.03-.02.01-.03h-.01s.08-.01.08-.02h.01s-.03,0-.04-.01c.02,0,.05,0,.05,0,.01,0-.06-.02-.02-.03-.01,0-.03,0-.04,0,0,0,.05-.02,0-.03h.01s-.02-.02-.04-.03c.09-.01-.05-.04.04-.04v-.02s0,0,0,0c0-.01-.02-.02-.04-.02,0,0,.02,0,.02,0,.01-.02.01-.02-.03-.03h.03s.04-.03,0-.05h.01s.07-.06-.03-.05h-.03s-.04,0-.06,0c0,0,.03-.02.03-.01h0c.05,0,.01-.02.05-.03,0-.03.01-.07.01-.1h-.04s0,0,0,0c0,0,.03,0,.03,0,.02,0-.02,0-.03,0,.01-.02.05,0,.05,0h0s0,0,0,0c-.02,0-.03,0-.03,0,0,0,.02-.01.02-.01h0s0-.02,0-.02h-.03s0,0-.03.01c.05-.02,0-.06.02-.07-.02,0-.03-.01-.03-.02,0,0-.04.02-.04,0,.07-.02.02-.03.07-.05-.03.02-.02-.02-.06,0,0,0,.03,0,.04-.02-.03,0,0-.05-.02-.07,0,0-.02.01-.03.01l.04-.03s-.05.02-.03,0c0,0-.02.01-.02.01.01-.07-.07-.06-.05-.16,0,.02-.01.02-.02.01,0,0-.02.02-.02.03v-.04s-.02-.02-.04,0h0s-.04.08-.08.12c.03-.03-.04.06.01.02,0,0-.01.01-.02.02.02-.01.02-.01.02,0h0s0,.03,0,.06h.02s0,0-.01,0c.04-.01,0-.01.03-.03-.04.03.02.03-.03.06,0,0,.03-.02.03,0h-.01s.02,0,.02,0c0,0-.02.02-.03.02h0s.01.01,0,.01h0s.01.03.05.04h.01s0,.01,0,.02h0s.02,0,.02,0c-.01,0-.02.02-.04.01.03,0,.02,0,.07,0h-.02s.03,0,.03.01c-.02,0-.03.01-.05.01-.04.03.05.01-.01.04.06,0,.03-.02.04-.02.02,0,.04,0,.04,0,0,0-.07.03-.06.04h0s.02,0,0,.02c.03,0,0,0,.04,0h-.01s.06,0,.04,0c0,0-.02,0-.03,0-.01,0,0,0,0,.01-.04,0-.01-.01-.05-.02-.02,0,.03,0-.01.01.06,0,0,.02.04.02h-.02s.02,0,.02,0h-.03s-.02.02,0,.02c0-.02.03,0,.05-.02.04.01-.06.02-.05.04,0,0,.01-.01.03-.01,0,0-.01.01-.03.02,0,.01.03,0,.04,0-.03,0,.01,0,.02.01h-.03s.05,0,.04.02h-.04s.01,0,.01,0h-.03s.02.01.01.02c.02,0,.05,0,.05,0-.01,0-.02,0-.02.01-.02,0-.04,0-.01,0h-.02s0,.02,0,.02h0s.04,0,.04,0c0,0-.02,0-.03,0,0,0,.02,0,.02,0-.02,0-.04,0-.05,0h.02s-.02.02-.03.02c-.01,0,.04.02.03.03h.01s-.03.03,0,.04h-.04s.05,0,.06.01c.01.01-.03,0-.04.01.02,0,.06,0,.03.02,0,0,0,0,0,0Zm.02.11s-.02,0,0,0c.03,0,.02,0,0,0Zm.06.18s0,0,0,0c0,0,0,0,0,0Zm.14.53h0s0,0,0,0Zm-.01,0h.01s0,0,0,0c0,0-.01,0,0,0Zm-.01-1.2h0s0,0,0,0Z"/><path class="cls-3" d="m13.47,21.9h.01s0,0-.01,0Z"/><polygon class="cls-3" points="13.41 21.56 13.41 21.56 13.4 21.56 13.41 21.56"/><path class="cls-3" d="m13.42,22.27h.01s-.01,0-.01,0Z"/><path class="cls-3" d="m13.66,22.52h0s0,0,0,0c0,0,.02,0,.02,0Z"/><path class="cls-3" d="m13.5,22.57h0s.01,0,.01,0c0,0,0,0-.02,0Z"/><path class="cls-3" d="m13.58,22.52s-.01,0-.01,0h0s.02,0,.01,0Z"/><path class="cls-3" d="m13.57,22.53h0s0,0,0,0Z"/><path class="cls-3" d="m13.64,22.47s.03,0,.02,0c.03,0-.03-.02-.02,0Z"/><polygon class="cls-3" points="13.51 22.52 13.53 22.52 13.51 22.51 13.51 22.52"/><path class="cls-3" d="m13.53,22.48h0s0,.01,0,.01c0,0,0,0,0-.01Z"/><path class="cls-3" d="m13.53,22.49h0s0,0,0,0Z"/><polygon class="cls-3" points="13.5 22.51 13.51 22.5 13.51 22.5 13.5 22.51"/><path class="cls-3" d="m13.54,22.4h0s-.01,0-.01,0c0,0,0,0,.02,0Z"/><path class="cls-3" d="m13.47,22.42s.01,0,.02,0h-.03s.01,0,.01,0Z"/><path class="cls-3" d="m13.46,22.39s-.03-.01-.02,0c0,0,.02.01.02,0Z"/><polygon class="cls-3" points="13.52 22.27 13.52 22.27 13.57 22.27 13.52 22.27"/><path class="cls-3" d="m13.4,22.14s.03,0,.02.01c.01,0,.01,0,.02,0-.01,0,0,0-.04-.01Z"/><path class="cls-3" d="m13.44,22.15h0s0,0,0,0Z"/><polygon class="cls-3" points="13.42 20.82 13.42 20.81 13.42 20.82 13.42 20.82"/><path class="cls-3" d="m13.39,20.84l.02-.03-.02.02s0,0,0,0Z"/><path class="cls-3" d="m13.38,21.75h0s.01,0,.01,0h-.02Z"/><polygon class="cls-3" points="13.4 21.67 13.4 21.68 13.43 21.67 13.4 21.67"/><path class="cls-3" d="m13.36,21.61h0s.03,0,0,0Z"/></g></g></g><g><ellipse id="Eye_right-2" cx="18.65" cy="22.61" rx=".53" ry="2.05"/><g class="cls-1"><g><path class="cls-3" d="m18.94,22.82h.02s-.03,0-.02,0Z"/><polygon class="cls-3" points="18.89 22.78 18.9 22.78 18.87 22.77 18.89 22.78"/><path class="cls-3" d="m18.89,22.73s0,.02,0,.02h0s.03,0,.03,0c0,0-.02-.02-.01-.03Z"/><path class="cls-3" d="m18.97,22.71s-.01,0,0,0h0s0,0,0,0Z"/><path class="cls-3" d="m18.97,22.72s.01,0,0,0h0Z"/><path class="cls-3" d="m18.96,22.7h.01s.01,0,.02,0c0,0-.02,0-.03,0Z"/><path class="cls-3" d="m18.94,22.69h0s0,0,0,0Z"/><path class="cls-3" d="m18.95,22.7h-.01s-.02,0,0,0c-.01,0,0,0,0,0Z"/><path class="cls-3" d="m18.95,22.7s-.01,0-.03,0c0,.01.03.01.03,0Z"/><path class="cls-3" d="m18.85,22.73h-.01s.01,0,.01,0c0,0,.01,0,0,0Z"/><path class="cls-3" d="m18.99,22.66s-.02,0-.03,0h0s.01,0,.02,0Z"/><path class="cls-3" d="m18.95,22.66h-.01s0,0,.01,0Z"/><polygon class="cls-3" points="18.89 22.69 18.92 22.7 18.89 22.68 18.89 22.69"/><polygon class="cls-3" points="18.99 22.64 19.01 22.64 18.98 22.63 18.99 22.64"/><path class="cls-3" d="m18.99,22.62s.03,0,.04,0c0,0-.02,0-.03-.01,0,0,0,0,0,.01Z"/><path class="cls-3" d="m18.98,22.6s.01,0,.02,0c0,0,0,0-.02,0Z"/><path class="cls-3" d="m18.95,22.64s.02,0,.02,0h-.02s0,0,0,0Z"/><polygon class="cls-3" points="18.95 22.64 18.95 22.64 18.95 22.63 18.95 22.64"/><path class="cls-3" d="m18.95,22.64h0s0,0,0,0Z"/><path class="cls-3" d="m18.92,22.67s-.03-.01-.05,0c.02,0,.03,0,.05,0Z"/><path class="cls-3" d="m18.92,22.65h0s.01,0,.02,0h-.02Z"/><polygon class="cls-3" points="18.91 22.64 18.92 22.65 18.92 22.64 18.91 22.64"/><path class="cls-3" d="m18.96,22.61s-.01-.01-.01-.01c0,0,0,.01,0,.01,0,0,.02,0,.02,0Z"/><path class="cls-3" d="m18.95,22.62h0s0,0,0,0Z"/><polygon class="cls-3" points="18.95 22.56 18.94 22.56 18.95 22.56 18.95 22.56"/><path class="cls-3" d="m18.93,22.61s0,0,0,0h0s0,0,0,0Z"/><path class="cls-3" d="m18.97,22.59s-.01,0-.01,0c0,0,.02,0,.01,0Z"/><path class="cls-3" d="m18.95,22.62h0s0,0,0,0Z"/><path class="cls-3" d="m18.95,22.62s0,0-.01,0h0s0,0,0,0Z"/><path class="cls-3" d="m18.8,22.54s.04.01.02.02c.02,0,.08,0,.12,0,0,0-.02,0-.03,0-.01,0-.03.01-.05,0-.01-.01,0,0,.02-.01-.03,0-.04-.02-.08-.02h.01s-.02,0-.02,0Z"/><path class="cls-3" d="m18.94,22.57h0s.01,0,.03,0c0,0-.02,0-.02,0h0s0,.01,0,.01Z"/><path class="cls-3" d="m18.94,22.59s-.03-.01-.06,0c0,0,.02,0,.03.01,0-.01.01,0,.03,0h0s0,0,.01,0h0s0,0,0,0h0s0,0,0,0h0s0,0,0,0h0s0,0,0,0h-.01s0,0,0,0Z"/><path class="cls-3" d="m18.82,22.65h0s0,0,0,0Z"/><path class="cls-3" d="m18.84,22.65h0s-.01,0-.02,0c0,0,.02,0,.03,0h0s.04-.01.04-.01c-.02,0-.04,0-.06,0Z"/><path class="cls-3" d="m18.88,22.62h-.01s-.02,0-.02,0h.01s0,0,.02,0Z"/><polygon class="cls-3" points="18.96 22.56 18.98 22.56 18.95 22.55 18.96 22.56"/><polygon class="cls-3" points="18.96 22.55 18.98 22.55 18.97 22.54 18.96 22.55"/><path class="cls-3" d="m18.75,21.68h0s0,0,0,0Z"/><path class="cls-3" d="m18.75,21.7h.01s-.01,0-.01,0Z"/><path class="cls-3" d="m18.99,22.17s.05,0,.03,0h-.02s0,0,0,0Z"/><path class="cls-3" d="m18.87,21.91h0s.02,0,.02,0c0,0,0,0-.01,0Z"/><path class="cls-3" d="m18.77,21.9h.02s-.02,0-.02,0Z"/><path class="cls-3" d="m18.72,21.56h-.02s.01,0,.02,0Z"/><path class="cls-3" d="m18.96,22.39s.01,0,.01,0c-.01,0-.03,0-.01,0Z"/><path class="cls-3" d="m19,21.68s0,0-.01,0c0,0,0,0,.01,0Z"/><path class="cls-3" d="m18.98,22.37h0s0,.01,0,.01c.01,0,.02,0,0-.01Z"/><path class="cls-3" d="m18.64,21.12h0s0,0,0,0Z"/><path class="cls-3" d="m18.75,20.87h0s0,0,0,0Z"/><path class="cls-3" d="m18.88,22.49s0,0-.01,0c0,0,.01,0,.01,0Z"/><path class="cls-3" d="m18.84,22.32h0s0,0,0,0Z"/><path class="cls-3" d="m18.96,22.49h0s0,0,0,0Z"/><path class="cls-3" d="m18.97,22.49h0s0,0,0,0Z"/><polygon class="cls-3" points="18.97 22.48 18.97 22.49 18.97 22.49 18.97 22.48"/><path class="cls-3" d="m18.77,21.33h0s0,0,0,0Z"/><polygon class="cls-3" points="18.76 22.07 18.76 22.07 18.76 22.07 18.76 22.07"/><path class="cls-3" d="m18.74,22.06s.02,0,.02.01h.07s-.08-.01-.08-.01Z"/><path class="cls-3" d="m18.74,21.63h-.02s-.02,0-.05,0c.07,0,0,.03.08.02h-.01s0,0,0,0c-.03.01.05,0,.04.02,0,0-.02,0-.02,0h.02s-.01,0-.01,0h0s0,.01,0,.01c.01,0,.03,0,.04,0-.01,0,0,0-.02,0h.02s-.04,0-.03,0c-.07,0,.02,0-.02.02h0s-.03,0-.05.01c.01,0,.06-.02.08,0,0,0,0,0,0,.01-.03,0-.02,0-.02.01h-.03s.03,0,.04,0c0,0-.03,0-.05,0,0,.01.04,0,.05,0-.01,0,0,.02.02.03-.01,0-.02,0-.03,0h.03s-.01,0-.01,0c.01,0,.03,0,.04.01.04,0-.06.01-.01.03,0,0-.02,0-.03,0,.03.02.02.01.06.03h-.02s.06.01.08.02c.01,0,.02,0,.03,0h.02s-.02.01-.03.01h0s-.03,0-.05,0h.02s-.04-.01-.06-.01h0s-.01,0-.01,0c0,0,0,0,.01,0h-.04s.02,0,.02,0l-.02.02s.09.03.11.05c-.03,0-.05,0-.08,0,.04,0-.01-.02,0-.03,0,0-.02,0-.03,0l.03.02s-.02,0-.03,0c.05,0,.03.02.05.02-.02,0-.04,0-.03-.01-.04,0,.06.02.03.02,0,0,0,0,0,0,.02,0,0,.02-.01.01h0s0,.04.04.05c0,0-.05,0-.06,0l.15.04s-.13,0-.15-.02c0,0-.01,0,0,.01,0,0,.06,0,.06,0-.04,0-.02,0-.06.01,0,0,.07,0,.07.01,0,0-.06,0-.07,0l.06.02s-.05,0-.07,0c.01,0,0,.01,0,.02h.01s.08.02.08.03c-.01,0-.08-.01-.08,0,.03,0,.15.03.17.04h-.02s.02.01.02.01c-.05-.01-.14-.04-.18-.05-.01,0-.02,0-.02,0-.02,0-.03,0-.03,0v.02s.02.02.05.02l-.04-.03s.1.02.09.04c-.01,0-.06,0-.08,0,.01,0,.02.02.01.02h-.02s.05,0,.01.02c0,0-.05,0-.03,0,.04,0,.17,0,.2.01,0,0-.04.01-.06.02-.03,0-.08-.01-.1-.01,0,0,.03,0,.03,0,0,0-.03,0-.03,0,.04,0,0,.02.03,0,0,0,0,0,0,.02.02,0,.08.01.09.02,0,0-.02,0-.03,0,0,.01-.02.02-.02.04,0,0-.02,0-.04,0,0,0,.02,0,.02,0-.03,0,0-.01-.04,0,.02,0,.03.01.04.02.03,0,0-.01,0-.02.04,0,.09.02.11.04.01.01-.03,0-.02,0,0,.02.08.03.04.04-.03,0-.06,0-.08,0-.01-.01.02-.01.02-.02h-.01s-.02,0,0,0c-.03,0,0,.04-.03.05,0,0,.02,0,.03,0h0s.03,0,.04,0c.02,0,.04.02.03.03h-.03s.02,0,.01,0c.01,0-.05.01,0,.02h.02s.05.01.04.02c.03,0,0,0,.03,0-.05,0,0-.02-.05-.02.04,0,.02,0,.06-.02-.01,0-.02,0-.01,0h0s0,0,0,0h0s0,0,0,0c0,0-.01,0-.02,0-.02,0-.02-.02-.04-.02,0,0,.01,0,.02,0h-.02s.04-.02.05,0h0s.02-.02.01-.03c0,0-.03-.01,0,0v-.02s0,0,0,0c0-.01-.04-.03,0-.05,0,0-.01-.01,0-.02h.02s.02-.02,0-.02c.06,0,.01-.03.03-.04h-.03s0-.02-.01-.03h-.02s.02-.02.02-.03c0,0,0,0,0,0,.06-.01-.04-.04,0-.05,0,0,0,0,0,0h0s0,0,0,0h.01s-.01,0-.01,0c0,0,0,0,0-.01h.03s0,0,0,0c0,0-.01,0-.03,0,0,0,0,0-.02,0,.04,0-.01-.01.03-.01-.02,0-.01-.02-.06-.03,0,0,0,0,0,0,0,0,.01,0,0-.01h.03s-.04-.01-.04-.01c.02,0,.03,0,.06,0-.04-.02-.01-.01-.05-.03h.02s-.03-.01-.01-.01c.04,0,0-.05.05-.07-.06,0,.03,0-.02-.01.01,0,.02,0,.04,0-.01-.01.02-.02-.02-.03.01,0,.02,0,.03,0,0,0-.01,0,0,0,0,0,.01,0,.02,0,0-.01-.05-.02-.09-.02.02,0,.02,0,0-.02.01,0,.03,0,.03,0,0,0,.02-.03-.01-.03,0,0,0,0,0,0,0-.01,0-.01,0-.02h0s0,0-.01-.01h0s-.01,0,.02-.03h-.03c-.05,0,.03-.02.01-.03h-.01s.07-.01.08-.02h.01s-.03,0-.04-.01c.02,0,.05,0,.05,0,.01,0-.06-.02-.02-.03-.01,0-.03,0-.04,0,0,0,.05-.02,0-.03h.01s-.02-.02-.04-.03c.09-.01-.05-.04.04-.04v-.02s0,0,0,0c0-.01-.02-.02-.04-.02,0,0,.02,0,.02,0,.01-.02.01-.02-.03-.03h.03s.04-.03,0-.05h.01s.07-.06-.03-.05h-.03s-.04,0-.06,0c0,0,.03-.02.03-.01h0c.05,0,.01-.02.05-.03,0-.03.01-.07.01-.1h-.04s0,0,0,0c0,0,.03,0,.03,0,.02,0-.02,0-.03,0,.01-.02.05,0,.05,0h0s0,0,0,0c-.02,0-.03,0-.03,0,0,0,.02-.01.02-.01h0s0-.02,0-.02h-.03s0,0-.03.01c.05-.02,0-.06.02-.07-.02,0-.03-.01-.03-.02,0,0-.04.02-.04,0,.07-.02.02-.03.07-.05-.03.02-.02-.02-.06,0,0,0,.02,0,.04-.02-.03,0,0-.05-.02-.07,0,0-.02.01-.03.01l.04-.03s-.05.02-.03,0c0,0-.02.01-.02.01.01-.07-.07-.06-.05-.16,0,.02-.01.02-.02.01,0,0-.02.02-.03.03v-.04s-.02-.02-.04,0h0s-.04.08-.08.12c.03-.03-.04.06.01.02,0,0-.01.01-.02.02.02-.01.02-.01.02,0h0s0,.03,0,.06h.02s0,0-.01,0c.04-.01,0-.01.03-.03-.04.03.02.03-.03.06,0,0,.03-.02.03,0h-.01s.02,0,.02,0c0,0-.02.02-.03.02h0s.01.01,0,.01h0s.01.03.05.04h.01s0,.01,0,.02h0s.02,0,.02,0c-.01,0-.02.02-.04.01.03,0,.02,0,.07,0h-.02s.03,0,.03.01c-.02,0-.03.01-.05.01-.04.03.05.01-.01.04.06,0,.03-.02.04-.02.02,0,.04,0,.04,0,0,0-.07.03-.06.04h0s.02,0,0,.02c.03,0,0,0,.04,0h-.01s.06,0,.04,0c0,0-.02,0-.03,0-.01,0,0,0,0,.01-.04,0-.01-.01-.05-.02-.02,0,.03,0-.01.01.06,0,0,.02.04.02h-.03s.02,0,.02,0h-.03s-.02.02,0,.02c0-.02.03,0,.05-.02.04.01-.06.02-.05.04,0,0,.01-.01.03-.01,0,0-.01.01-.03.02,0,.01.03,0,.04,0-.03,0,.01,0,.02.01h-.03s.05,0,.04.02h-.04s.01,0,.01,0h-.03s.02.01.01.02c.02,0,.05,0,.05,0-.01,0-.02,0-.02.01-.02,0-.04,0-.01,0h-.02s0,.02,0,.02h0s.04,0,.04,0c0,0-.02,0-.03,0,0,0,.02,0,.02,0-.02,0-.04,0-.05,0h.02s-.02.02-.03.02c-.01,0,.04.02.03.03h.01s-.03.03,0,.04h-.04s.05,0,.06.01c.01.01-.03,0-.04.01.02,0,.06,0,.03.02,0,0,0,0,0,0Zm.02.11s-.02,0,0,0c.03,0,.02,0,0,0Zm.06.18s0,0,0,0c0,0,0,0,0,0Zm.14.53h0s0,0,0,0Zm-.01,0h.01s0,0,0,0c0,0-.01,0,0,0Zm-.01-1.2h0s0,0,0,0Z"/><path class="cls-3" d="m18.78,21.9h.01s0,0-.01,0Z"/><polygon class="cls-3" points="18.72 21.56 18.72 21.56 18.72 21.56 18.72 21.56"/><path class="cls-3" d="m18.74,22.27h.01s-.01,0-.01,0Z"/><path class="cls-3" d="m18.98,22.52h0s0,0,0,0c0,0,.02,0,.02,0Z"/><path class="cls-3" d="m18.82,22.57h0s.01,0,.01,0c0,0,0,0-.02,0Z"/><path class="cls-3" d="m18.9,22.52s-.01,0-.01,0h0s.02,0,.01,0Z"/><path class="cls-3" d="m18.89,22.53h0s0,0,0,0Z"/><path class="cls-3" d="m18.96,22.47s.03,0,.02,0c.03,0-.03-.02-.02,0Z"/><polygon class="cls-3" points="18.82 22.52 18.85 22.52 18.83 22.51 18.82 22.52"/><path class="cls-3" d="m18.85,22.48h0s0,.01,0,.01c0,0,0,0,0-.01Z"/><path class="cls-3" d="m18.85,22.49h0s0,0,0,0Z"/><polygon class="cls-3" points="18.82 22.51 18.82 22.5 18.83 22.5 18.82 22.51"/><path class="cls-3" d="m18.86,22.4h0s-.01,0-.01,0c0,0,0,0,.02,0Z"/><path class="cls-3" d="m18.78,22.42s.01,0,.02,0h-.03s.01,0,.01,0Z"/><path class="cls-3" d="m18.78,22.39s-.03-.01-.02,0c0,0,.02.01.02,0Z"/><polygon class="cls-3" points="18.83 22.27 18.83 22.27 18.89 22.27 18.83 22.27"/><path class="cls-3" d="m18.71,22.14s.03,0,.02.01c.01,0,.01,0,.02,0-.01,0,0,0-.04-.01Z"/><path class="cls-3" d="m18.75,22.15h0s0,0,0,0Z"/><polygon class="cls-3" points="18.74 20.82 18.74 20.81 18.73 20.82 18.74 20.82"/><path class="cls-3" d="m18.7,20.84l.02-.03-.02.02s0,0,0,0Z"/><path class="cls-3" d="m18.69,21.75h0s.01,0,.01,0h-.02Z"/><polygon class="cls-3" points="18.72 21.67 18.72 21.68 18.75 21.67 18.72 21.67"/><path class="cls-3" d="m18.68,21.61h0s.03,0,0,0Z"/></g></g></g></g><path id="Nose" class="cls-7" d="m16.71,25.24c-.14.08-.72.06-.72.06,0,0-.58.02-.72-.06-.12-.07.23-.43.56-.59.1-.05.22-.05.32,0,.33.16.69.52.56.59Z"/></g><g id="Hair"><g><path id="Puff" d="m17.57,2.12s-1.07-1.85-3.4-1.26c-2.04.52-1.92,1.94-1.92,1.94,0,0-1.85-.75-2.87.26-1.45,1.43-.4,3.69-.4,3.69,0,0-1.05.52-1.05,1.91,0,2.64,2.84,2.79,2.84,2.79,0,0-1.08,1.46.09,2.63,1.46,1.46,4.59-1.76,4.59-1.76,0,0,7.61,3.26,5.96-.85,0,0,3.04-.1,3.38-2.65s-1.91-3.16-1.91-3.16c0,0,.47-2.59-1.14-3.67-1.94-1.31-4.16.15-4.16.15Z"/><g class="cls-1"><g><path class="cls-3" d="m22.35,5.46s.03,0,.03,0c0,0-.04,0-.03,0Z"/><polygon class="cls-3" points="22.28 5.36 22.29 5.36 22.26 5.35 22.28 5.36"/><path class="cls-3" d="m22.28,5.27c-.05,0,0,.03,0,.05h-.01s.04,0,.04,0c0-.02-.03-.04-.02-.06Z"/><path class="cls-3" d="m22.39,5.22s-.02-.01,0,.01h0s0-.01,0-.01Z"/><path class="cls-3" d="m22.39,5.23s.02,0,0,0h0Z"/><path class="cls-3" d="m22.38,5.19h.02s.01,0,.02,0c0-.01-.02-.01-.04,0Z"/><path class="cls-3" d="m22.34,5.18h0s0,0,0,0Z"/><path class="cls-3" d="m22.36,5.2h-.02s-.02-.01,0,0c-.02,0,0,0,.01,0Z"/><path class="cls-3" d="m22.35,5.2s-.02.02-.04,0c0,.02.04.02.04,0Z"/><path class="cls-3" d="m22.23,5.27h-.01s.02.02.02.02c0,0,.01-.02,0-.02Z"/><path class="cls-3" d="m22.4,5.11s-.03,0-.04,0h.01s.01,0,.03,0Z"/><path class="cls-3" d="m22.36,5.11h-.02s0,0,.02,0Z"/><polygon class="cls-3" points="22.28 5.17 22.32 5.2 22.28 5.17 22.28 5.17"/><polygon class="cls-3" points="22.4 5.06 22.43 5.06 22.39 5.05 22.4 5.06"/><path class="cls-3" d="m22.4,5.02s.03,0,.05,0c0,0-.02-.02-.04-.02,0,0,0,.02,0,.03Z"/><path class="cls-3" d="m22.38,4.98s.01,0,.02.01c0,0-.01,0-.02-.01Z"/><path class="cls-3" d="m22.35,5.08s.02,0,.03-.01h-.03s0,.01,0,.01Z"/><path class="cls-3" d="m22.34,5.07h0s0-.01,0-.01c0,0,0,0,0,.01Z"/><path class="cls-3" d="m22.35,5.08h0s0,0,0,0Z"/><path class="cls-3" d="m22.31,5.14s-.04-.02-.06,0c.02,0,.04,0,.06,0Z"/><path class="cls-3" d="m22.31,5.09h0s.02.01.03.02l-.02-.02Z"/><polygon class="cls-3" points="22.3 5.08 22.31 5.09 22.31 5.08 22.3 5.08"/><path class="cls-3" d="m22.36,5.01s-.01-.01-.02-.02c0,0,0,.02,0,.03,0,0,.03,0,.03,0Z"/><path class="cls-3" d="m22.35,5.04h0s0,0,0,0Z"/><polygon class="cls-3" points="22.34 4.91 22.33 4.91 22.34 4.91 22.34 4.91"/><path class="cls-3" d="m22.32,5.01s0,.01.01.01v-.02s-.01,0-.01,0Z"/><path class="cls-3" d="m22.37,4.96h-.02s.02,0,.02,0Z"/><path class="cls-3" d="m22.35,5.03h0s0,0,0,0Z"/><path class="cls-3" d="m22.35,5.03s-.01,0-.02,0c0,0,0,0,.01.01h0Z"/><path class="cls-3" d="m22.14,4.89s.05.02.02.03c.02.01.11,0,.17-.01-.01,0-.02,0-.04-.01-.02,0-.03.03-.06.02-.02-.02,0-.02.02-.03-.03,0-.05-.02-.1-.02l.02.02s-.02,0-.03,0Z"/><path class="cls-3" d="m22.33,4.94h0s.02,0,.04-.02c-.01,0-.02-.01-.03-.01v.03s0,0,0,0Z"/><path class="cls-3" d="m22.33,4.97s-.04-.02-.08,0c0,.02.03.01.04.02,0-.03.02,0,.03-.01,0,0,0,.02,0,.02v-.02s.01,0,.01,0h0s0,0,0,0h0s0,0,0,0h-.01s.01,0,.01,0h0s0,0,0,0l-.02-.03s0,.01,0,.03Z"/><path class="cls-3" d="m22.18,5.12h0s0,0,0,0Z"/><path class="cls-3" d="m22.2,5.1s.02,0,.01.01c0,0-.01,0-.02,0,0,0,.02.01.04,0h0s.05-.03.05-.03c-.03,0-.05,0-.07.01Z"/><path class="cls-3" d="m22.26,5.04l-.02-.02h-.03s.02.01.02.01c0,.01.01.01.03.01Z"/><polygon class="cls-3" points="22.35 4.9 22.38 4.91 22.34 4.89 22.35 4.9"/><polygon class="cls-3" points="22.35 4.87 22.37 4.87 22.36 4.87 22.35 4.87"/><path class="cls-3" d="m21.66,3.29h-.01s.01,0,.01,0Z"/><path class="cls-3" d="m21.68,3.33h.01s-.01,0-.01,0Z"/><path class="cls-3" d="m22.28,4.11s.06-.03.03-.03h-.03s0,.02,0,.03Z"/><polygon class="cls-3" points="21.98 3.64 21.97 3.64 22 3.64 21.98 3.64"/><path class="cls-3" d="m21.86,3.67l.02-.02-.02.02Z"/><path class="cls-3" d="m21.51,3.09h-.03s.02,0,.03,0Z"/><path class="cls-3" d="m22.32,4.56s.02-.02.02-.02c-.02.01-.04.02-.02.02Z"/><path class="cls-3" d="m21.96,3.16s-.01,0-.02,0c0,0,.01,0,.02,0Z"/><path class="cls-3" d="m22.33,4.51h0s.01.02,0,.03c.01,0,.02-.02,0-.03Z"/><path class="cls-3" d="m20.88,2.47h0s0,0,0,0Z"/><path class="cls-3" d="m20.72,2.08h.01s0,0-.01,0Z"/><path class="cls-3" d="m22.35,4.75s0,0,0,0h0Z"/><path class="cls-3" d="m22.23,4.79s0,0-.02,0c0,0,.02,0,.02,0Z"/><path class="cls-3" d="m22.14,4.46h0s0,0,0,0Z"/><path class="cls-3" d="m22.34,4.76h0s0,0,0,0Z"/><path class="cls-3" d="m22.36,4.76h0s0,0,0,0Z"/><polygon class="cls-3" points="22.35 4.74 22.35 4.75 22.35 4.75 22.35 4.74"/><path class="cls-3" d="m21.32,2.69h0s0,0,0,0Z"/><polygon class="cls-3" points="21.93 4 21.93 4 21.93 4 21.93 4"/><path class="cls-3" d="m21.9,3.98s.04,0,.03.02l.09-.02h-.12Z"/><path class="cls-3" d="m21.6,3.19l-.02.03s-.04-.01-.07.02c.08-.05.04.04.12,0v.02s-.02,0-.02,0c-.03.04.07-.02.07,0,0,.01-.01.02-.03.02h.03s-.01.02-.02.01l.02.02h0s.04,0,.05,0c0,.01-.01,0-.02,0h.03s-.05.02-.05,0c-.08.06.03,0,0,.06h-.02s-.02.03-.05.06c.01-.01.06-.07.09-.06,0,0,0,.02.02.02-.03.01-.02.02-.01.03l-.04.02s.04,0,.06,0c0,.01-.03.03-.06.05,0,.02.05-.04.06-.01,0,.02.01.03.05.04,0,.02-.03,0-.04.02h.04s-.01,0-.02,0c.02,0,.04-.02.06,0,.05-.01-.06.06,0,.06-.01,0-.03,0-.04.01.04.01.03.01.09.02l-.02.03s.07-.02.11-.01c.01-.01.03-.02.03-.02l.03.02s-.02,0-.04,0h.01s-.04.02-.07.02l.02-.02s-.06,0-.08.01c0,0,.01,0,.01,0,0,0-.02,0-.02,0,0,0,0,0,.02,0l-.05.02h.02s-.02.04-.02.04c.06,0,.13,0,.16.04-.04,0-.06.01-.1.02.04-.02-.03-.02-.02-.04,0,.01-.02.01-.03.01l.05.02s-.02.01-.04.03c.07-.02.05.01.08.02-.02,0-.05,0-.05,0-.05.03.09,0,.05.03,0,0,0,0-.01,0,.02,0,.01.03,0,.03h0s.02.08.08.07c0,0-.07.01-.08.01h.21c-.05.01-.17.05-.2.04,0,0-.01.02,0,.03,0,0,.07-.03.08-.02-.05.03-.03.02-.07.05,0,0,.09-.02.09,0-.01,0-.08.02-.09.01h.08s-.07.02-.09.03c.01,0,0,.02.01.03h.02s.12,0,.12.03c-.02,0-.1,0-.11.02.04,0,.2,0,.23.02h-.02s.03.03.03.03c-.06,0-.2-.02-.25-.03-.02.01-.03,0-.02.02-.02,0-.03,0-.04,0v.04s.04.02.08.02l-.06-.04s.14,0,.13.04c-.02,0-.08,0-.1,0,.02,0,.03.02.02.03h-.03s.07,0,.02.03c0,0-.06.03-.03.02.05-.02.22-.04.26-.04,0,0-.05.04-.07.05-.04.02-.1,0-.14,0,.01,0,.03,0,.03,0-.01,0-.04,0-.03.02.05,0,0,.03.04,0,.02.01,0,.02,0,.03.03,0,.11,0,.12.02-.01,0-.03,0-.04,0,0,.03-.02.05-.02.08-.01,0-.02.02-.05.01,0,0,.03,0,.03.01-.04.02,0-.02-.06,0,.03,0,.04.02.06.03.04,0,0-.03-.01-.04.06,0,.12.01.15.04.02.02-.04.01-.03.02,0,.04.11.03.07.07-.04.02-.08,0-.1,0-.02-.02.02-.03.02-.04l-.02.02s-.02-.02-.01-.03c-.03.01,0,.07-.03.11.01,0,.03.02.04,0h0s.04,0,.06,0c.02.01.06.03.04.05h-.04s.03,0,.01-.01c.02,0-.06.03,0,.04l.03-.02s.07.03.06.05c.04,0,0,0,.04-.02-.06.01,0-.05-.06-.03.06-.02.02-.02.07-.04-.01,0-.03,0-.02,0h-.01s0,0,0,0h0s0,0,0,0h-.02s-.03-.02-.05-.03c0,0,.02,0,.03,0h-.03s.05-.04.07-.02v-.02s.02-.03,0-.04c0,0-.04-.02-.01-.01l-.02-.03h0s-.06-.06,0-.1c0,0-.02-.02-.01-.04h.03s.02-.05,0-.05c.07-.02,0-.07.02-.09h-.04s-.01-.03-.03-.05h-.03s.02-.04.01-.07c.01,0,.01,0,0,.01.07-.04-.06-.06-.01-.1-.01,0,0-.01,0-.02h0s0,0,0,0h.02s-.02,0-.02,0c0,0,0-.01-.02-.02h.03s0-.01,0-.01c.01-.01-.02,0-.04,0h-.02c.05-.02-.02-.03.03-.04-.03,0-.03-.04-.09-.03,0,0,.01,0,.01,0,0-.01.01-.02,0-.03h.04s-.06-.02-.06-.02c.02-.02.04-.03.07-.02-.06-.02-.02-.02-.08-.03h.03s-.04-.02-.02-.03c.05-.03-.02-.1.02-.16-.08.03.03-.03-.03-.02.02,0,.03-.02.05-.01-.03-.02.02-.05-.04-.05.02,0,.03,0,.04,0,0,0-.02,0,0,0,.01,0,.02,0,.03,0-.01-.03-.07-.01-.12,0,.02-.02.02-.03-.02-.02.02,0,.03-.02.04,0,0,0,0-.06-.04-.05.01,0,0-.01,0-.01,0-.02,0-.02-.01-.04h0c-.05.02-.02,0-.03-.02h0c.02-.05-.02-.01,0-.06h-.03c-.07.04.03-.03,0-.04h-.02s.08-.05.08-.07c0,0,.01,0,.02,0,.03-.05-.04.01-.06,0,.02-.01.06-.02.06-.04.01-.02-.09-.01-.06-.05-.01.01-.03.02-.05.02-.01-.01.04-.07-.02-.06,0,0,.01,0,.01,0-.02,0-.04-.03-.07-.02.1-.07-.09-.04,0-.09l-.02-.03h.01s-.03-.02-.06-.02c0,0,.01-.01.02-.01,0-.04,0-.04-.07-.04l.03-.02s.02-.08-.04-.08c0,0,0,0,.02,0-.06,0,.02-.14-.09-.07h-.04s-.05.03-.05.05c-.01,0,0-.05.02-.04h0c.06-.03,0-.04.03-.07-.05-.05-.07-.13-.11-.17l-.03.04v-.02s0-.03.02-.02c.01-.03-.04,0-.04,0,0-.04.05-.04.04-.04h-.01s0,0,0,0c-.02,0-.04.02-.05,0,0-.02.02-.03.01-.03,0,0,0,0,0,0l-.02-.02-.02.04s-.02-.02-.04.02c.03-.07-.06-.09-.06-.11-.03.01-.05,0-.06-.01,0,.01-.03.05-.04.03.06-.07,0-.05.02-.12-.01.05-.05-.02-.07.05,0-.01.02-.03.02-.06-.05,0-.06-.06-.11-.08,0,.01,0,.03-.03.04v-.07s-.03.06-.03.01c0,.01,0,.03-.01.03-.06-.1-.19-.03-.24-.16,0,.03,0,.03-.01.03,0,0,0,.03-.01.05l-.03-.06s-.04,0-.06.04h.01s0,.12-.03.18c.03-.05.02.1.07.02,0,.01-.01.02-.01.04.01-.03.02-.03.03-.01h0s.05.05.08.08v-.03s.01.02.02.03c.03-.04-.02-.01,0-.06-.01.07.07.03.04.1.01,0,.01-.04.03-.03v.02s0-.02,0-.02c0,0,0,.03,0,.05h-.01s.03.01.04.02v-.02s.07.05.12.04v-.02s.02.03.05.04h0s.03,0,.03,0c-.02,0,0,.04-.03.05.05,0,.03-.01.08-.04v.02s.02-.02.04-.02c-.03,0-.02.04-.05.05,0,.07.08-.01.04.06.06-.04,0-.05.02-.06,0-.02.05-.03.05-.02,0,0-.05.08-.02.1h0s.03,0,.02.03c.04-.03.01.01.05-.03h-.03s.08-.05.07,0c0,0-.03.01-.03.01,0,.02.02,0,.01.02-.04.04-.03-.01-.07,0-.01.02.05,0,0,.03.06-.05.01.03.07,0l-.02.02s.02,0,.03,0l-.04.02s0,.04.02.04c-.02-.02.02-.03.03-.06.06,0-.05.08,0,.1,0,0,0-.03.02-.03,0,.01,0,.03-.01.04.02.02.02-.03.05-.03-.02.03.02,0,.04,0l-.03.02s.06-.04.06,0l-.04.02h.02s-.03.03-.03.03c.03,0,.03,0,.03.02.02-.02.05-.04.06-.03,0,.02-.03.02-.01.03-.02,0-.04.02-.03,0l-.03.02s.01.02.02.03c0,0,0,0,0-.01h.06s-.02.01-.03.01c0,0,.02,0,.03,0-.02.01-.05.03-.06.03h.04s-.02.04-.03.04c0,.02.07,0,.06.03,0,0,.01,0,.02,0,0,.02-.01.05.03.05l-.04.04s.04-.05.08-.03c.03.01-.03.03-.04.04.03,0,.08-.01.06.02-.01,0,0,0-.01-.01Zm.12.19s-.03,0-.01-.01c.04-.01.02,0,.01.01Zm.2.3s0,0,0-.02c0,0,0,0,0,.02Zm.4.99h0s0,0,0,0Zm-.01.02s.01,0,.01,0c0,0,0,0,0-.01,0,0-.01,0,0,.01Zm-.88-2.23h0s0,0,0,0Z"/><path class="cls-3" d="m21.87,3.66h.02s-.01,0-.02,0Z"/><polygon class="cls-3" points="21.51 3.08 21.51 3.08 21.51 3.09 21.51 3.08"/><path class="cls-3" d="m21.99,4.39h.02s-.02,0-.02,0Z"/><path class="cls-3" d="m22.37,4.82h0s0,0-.01,0c0,0,.02,0,.02,0Z"/><path class="cls-3" d="m22.17,4.95h0s.02,0,.02,0c0,0-.01-.01-.02,0Z"/><path class="cls-3" d="m22.26,4.83s-.02.01-.01.02h0s.03-.01.01-.02Z"/><path class="cls-3" d="m22.25,4.86h0s0,0,0,0Z"/><path class="cls-3" d="m22.33,4.73s.04,0,.03,0c.04,0-.05-.03-.03,0Z"/><polygon class="cls-3" points="22.17 4.85 22.2 4.84 22.17 4.84 22.17 4.85"/><path class="cls-3" d="m22.19,4.77v.02s0,0,0,0c0,0,0-.02,0-.02Z"/><path class="cls-3" d="m22.19,4.79s0,0,0,.01c0,0,0,0,0-.01Z"/><polygon class="cls-3" points="22.15 4.82 22.16 4.82 22.16 4.81 22.15 4.82"/><path class="cls-3" d="m22.19,4.6v-.02s-.03,0-.03.01c0,0,.01,0,.03,0Z"/><path class="cls-3" d="m22.09,4.65s.02,0,.03,0h-.04s.02,0,.02,0Z"/><path class="cls-3" d="m22.08,4.61s-.04-.02-.03,0c.01,0,.02.02.03,0Z"/><polygon class="cls-3" points="22.11 4.35 22.11 4.35 22.18 4.34 22.11 4.35"/><path class="cls-3" d="m21.91,4.15s.04,0,.03.02c.02,0,.02-.02.03-.01-.02,0-.01-.02-.06,0Z"/><path class="cls-3" d="m21.97,4.15s0,0,.01,0c0,0-.01,0-.01,0Z"/><polygon class="cls-3" points="20.68 2.03 20.67 2.01 20.67 2.04 20.68 2.03"/><path class="cls-3" d="m20.64,2.08v-.05s-.01.04-.01.04c0,0,.01,0,.01,0Z"/><path class="cls-3" d="m21.66,3.45h.01s0-.01,0-.02l-.02.02Z"/><polygon class="cls-3" points="21.62 3.29 21.62 3.3 21.65 3.27 21.62 3.29"/><path class="cls-3" d="m21.51,3.2s.01,0,.01.01c-.01,0,.03-.04-.01-.01Z"/></g></g></g><g><path d="m25.31,19.28v.02s-7.28.86-9.12-6.7c-1.85,7.55-9.34,6.38-9.34,6.38,0-.06,0-.11,0-.17,0-.02,0-.05,0-.07,0-.07,0-.13,0-.2,0-.02,0-.04,0-.06,0-.05,0-.11.01-.16,0-.02,0-.05,0-.07,0-.06.01-.13.02-.19,0-.08.02-.15.02-.22,0-.07.02-.15.03-.22.01-.07.02-.15.04-.22,0,0,0,0,0,0,.02-.15.05-.29.09-.44.02-.07.03-.14.05-.21,0,0,0-.01,0-.02.02-.07.03-.13.05-.2,0,0,0,0,0,0,.02-.06.03-.12.05-.18,0-.02.01-.04.02-.07.02-.05.03-.11.05-.16,0,0,0-.02,0-.03.02-.06.04-.12.06-.18,0,0,0,0,0-.01.02-.06.04-.11.06-.17.01-.03.02-.05.03-.08,0,0,0,0,0-.02.03-.08.07-.17.1-.25.02-.04.04-.09.06-.13.04-.09.08-.17.12-.26.1-.21.21-.42.33-.62.07-.11.13-.23.2-.34.04-.06.07-.11.11-.16.04-.05.07-.11.11-.16.06-.08.12-.17.18-.25.06-.08.12-.16.19-.24.04-.05.08-.1.12-.15,0,0,0,0,0,0,0,0,0,0,0-.01.02-.02.04-.05.06-.07.02-.02.04-.05.06-.07.05-.05.09-.1.14-.15.09-.1.19-.2.28-.3.06-.06.12-.12.18-.17.01-.01.03-.03.04-.04.02-.02.04-.04.07-.06.02-.02.04-.03.06-.05.02-.02.04-.04.06-.06.18-.16.36-.31.55-.45.06-.05.13-.09.19-.14,0,0,0,0,0,0,0,0,0,0,0,0,.04-.03.08-.06.13-.09.05-.03.1-.07.15-.1.07-.05.15-.1.22-.14,0,0,0,0,0,0,.24-.15.49-.29.75-.41.26-.13.52-.24.79-.35.07-.03.14-.05.2-.08.07-.02.14-.05.2-.07.07-.02.14-.04.2-.06,0,0,0,0,0,0,.07-.02.14-.04.2-.06.14-.04.28-.08.42-.11s.29-.06.43-.09c.07-.01.15-.02.22-.04.07-.01.15-.02.22-.03.07,0,.13-.02.2-.02,0,0,.01,0,.02,0,.22-.02.44-.04.67-.05h0c.07,0,.15,0,.23,0h0s.05,0,.08,0c.04,0,.08,0,.12,0,0,0,0,0,0,0,0,0,0,0,0,0,.99.01,1.94.18,2.83.48,3.15,1.06,5.53,3.78,6.12,7.12.04.23.07.47.1.7,0,.01,0,.03,0,.04.03.29.04.58.04.87h0s0,.13.02.3Z"/><g class="cls-1"><g><path class="cls-3" d="m24.73,18.43s.03,0,.03,0c0,0-.04,0-.03,0Z"/><polygon class="cls-3" points="24.66 18.34 24.67 18.34 24.64 18.32 24.66 18.34"/><path class="cls-3" d="m24.65,18.24c-.05.01,0,.03,0,.05h-.01s.04,0,.04,0c0-.02-.04-.04-.02-.06Z"/><path class="cls-3" d="m24.76,18.19s-.02,0,0,.01h0s0-.01,0-.01Z"/><path class="cls-3" d="m24.76,18.2s.02,0,0,0h0Z"/><path class="cls-3" d="m24.75,18.15h.02s.01,0,.02,0c-.01-.01-.02,0-.04,0Z"/><path class="cls-3" d="m24.71,18.14h0s0,0,0,0Z"/><path class="cls-3" d="m24.73,18.16h-.02s-.02-.01,0,0c-.02,0,0,0,.01,0Z"/><path class="cls-3" d="m24.73,18.17s-.02.02-.04,0c0,.02.04.02.04,0Z"/><path class="cls-3" d="m24.6,18.24h-.01s.02.02.02.02c0,0,.01-.02,0-.02Z"/><path class="cls-3" d="m24.77,18.07s-.03,0-.04,0h.01s.01,0,.03,0Z"/><path class="cls-3" d="m24.73,18.08h-.02s0,0,.02,0Z"/><polygon class="cls-3" points="24.65 18.15 24.69 18.17 24.65 18.14 24.65 18.15"/><polygon class="cls-3" points="24.77 18.02 24.79 18.03 24.75 18.01 24.77 18.02"/><path class="cls-3" d="m24.76,17.98s.03-.01.05,0c0,0-.02-.02-.04-.02,0,0,0,.02,0,.03Z"/><path class="cls-3" d="m24.74,17.94s.01,0,.02.01c0,0-.01,0-.02-.01Z"/><path class="cls-3" d="m24.71,18.04s.02,0,.03-.01h-.03s0,.01,0,.01Z"/><path class="cls-3" d="m24.71,18.04h0s0-.01,0-.01c0,0,0,0,0,.01Z"/><path class="cls-3" d="m24.68,18.11s-.04-.02-.06,0c.02,0,.04,0,.06,0Z"/><path class="cls-3" d="m24.67,18.05v.02s.01,0,.02,0h-.02Z"/><polygon class="cls-3" points="24.66 18.05 24.67 18.05 24.68 18.05 24.66 18.05"/><path class="cls-3" d="m24.72,17.97s-.02-.01-.02-.02c0,0,0,.02,0,.03,0,0,.03,0,.03,0Z"/><path class="cls-3" d="m24.71,18h0s0,0,0,0Z"/><polygon class="cls-3" points="24.69 17.87 24.69 17.87 24.69 17.87 24.69 17.87"/><path class="cls-3" d="m24.69,17.98s0,.01.01.01v-.02s-.01,0-.01,0Z"/><path class="cls-3" d="m24.73,17.92h-.02s.02,0,.02,0Z"/><path class="cls-3" d="m24.72,18h0s0,0,0,0Z"/><path class="cls-3" d="m24.72,18s-.01,0-.02,0c0,0,0,0,.01.01h0Z"/><path class="cls-3" d="m24.5,17.86s.06.01.03.03c.02.01.11,0,.16-.02-.01,0-.02,0-.04-.01-.01,0-.03.04-.06.02-.02-.02,0-.02.02-.03-.03.01-.05-.02-.1-.01l.02.02s-.02,0-.03,0Z"/><path class="cls-3" d="m24.69,17.9h0s.02,0,.04-.02c-.01,0-.03-.01-.03-.01v.03s0,0,0,0Z"/><path class="cls-3" d="m24.69,17.94s-.05-.02-.08,0c0,.02.03.01.04.02,0-.03.02,0,.03-.01,0,0,0,.01,0,.02v-.02s.01,0,.01,0h0s0,0,0,0h0s0,0,0,0h-.01s.01,0,.01,0h0s0,0,0,0l-.02-.03s0,.01,0,.03Z"/><path class="cls-3" d="m24.55,18.09h0s0,0,0,0Z"/><path class="cls-3" d="m24.57,18.08s.02,0,.01,0c0,0-.01,0-.02,0,0,0,.02.01.04,0h0s.05-.03.05-.03c-.03,0-.05,0-.07.02Z"/><path class="cls-3" d="m24.62,18.01l-.02-.02h-.03s.02.01.02.01c0,.01.01,0,.03.01Z"/><polygon class="cls-3" points="24.71 17.87 24.74 17.87 24.69 17.86 24.71 17.87"/><polygon class="cls-3" points="24.7 17.84 24.73 17.84 24.71 17.83 24.7 17.84"/><path class="cls-3" d="m24.06,16.18h0s0,0,0,0Z"/><path class="cls-3" d="m24.07,16.23h.01s-.01,0-.01,0Z"/><path class="cls-3" d="m24.61,17.07s.06-.03.03-.03h-.03s0,.02,0,.03Z"/><polygon class="cls-3" points="24.33 16.59 24.32 16.59 24.35 16.59 24.33 16.59"/><path class="cls-3" d="m24.2,16.61l.02-.02-.02.02Z"/><path class="cls-3" d="m23.94,15.94h-.03s.02,0,.03,0Z"/><path class="cls-3" d="m24.66,17.52s.02-.02.02-.02c-.02.01-.04.02-.02.02Z"/><path class="cls-3" d="m24.38,16.11s-.01,0-.02,0c0,0,.01,0,.02,0Z"/><path class="cls-3" d="m24.67,17.47h0s.01.02,0,.03c.01,0,.02-.02,0-.03Z"/><path class="cls-3" d="m23.52,15.08h0s0,0,0,0Z"/><path class="cls-3" d="m23.55,14.65s0,0,.01,0c0,0,0,0-.01,0Z"/><path class="cls-3" d="m24.71,17.71s0,0,0,0h0Z"/><path class="cls-3" d="m24.59,17.75s0,0-.02,0c0,0,.02,0,.02,0Z"/><path class="cls-3" d="m24.48,17.42h0s0,0,0,0Z"/><path class="cls-3" d="m24.69,17.72h0s0,0,0,0Z"/><path class="cls-3" d="m24.71,17.72h0s0,0,0,0Z"/><polygon class="cls-3" points="24.7 17.7 24.7 17.71 24.71 17.71 24.7 17.7"/><path class="cls-3" d="m23.86,15.49h0s-.01,0,0,0Z"/><polygon class="cls-3" points="24.27 16.95 24.27 16.95 24.27 16.95 24.27 16.95"/><path class="cls-3" d="m24.24,16.93s.04,0,.03.02l.09-.02h-.12Z"/><path class="cls-3" d="m24.01,16.08l-.02.02s-.04-.02-.07,0c.09-.03.03.05.12.03l-.02.02h0s.07-.01.07.02c0,.01-.02.02-.03.02h.03s-.02.02-.02.02l.02.03h0s.04,0,.05,0c-.01.01-.01,0-.02,0h.03s-.05.02-.05,0c-.09.04.03,0-.02.06h-.02s-.03.02-.05.05c.02,0,.07-.06.1-.05,0,0,0,.01.01.02-.03,0-.02.02-.02.03h-.04s.04.01.06.02c0,.02-.03.03-.06.04,0,.03.05-.03.07,0-.01.02,0,.03.04.05-.01.02-.03,0-.04.01h.04s-.01,0-.02,0c.02,0,.04-.01.06,0,.05,0-.06.05,0,.06-.01,0-.03,0-.04,0,.04.02.03.02.09.03l-.02.03s.07-.01.11,0c.01,0,.03-.02.03-.02l.03.02s-.02,0-.04,0h.01s-.04.02-.07.02l.03-.02s-.06,0-.09,0c0,0,.01,0,.01,0,0,0-.02,0-.02,0,0,0,0,0,.02,0l-.05.02h.02s-.02.04-.02.04c.06.01.13.02.16.05-.04,0-.06.01-.1.02.04-.02-.02-.03-.02-.05,0,.01-.02.01-.03.01l.05.03s-.02.01-.04.03c.07-.02.05.02.08.03-.02,0-.05,0-.05-.01-.05.03.09,0,.05.04,0,0,0,0-.01,0,.02,0,.01.03-.01.03h0s.02.08.08.08c0,0-.07,0-.08,0h.21c-.05.02-.17.06-.2.04,0,0-.01.02,0,.03,0,0,.07-.02.08-.02-.05.03-.03.02-.07.05,0,0,.09-.01.09,0-.01,0-.08.01-.09.01h.08s-.07.02-.09.03c.01,0,0,.02.01.03h.02s.12,0,.12.03c-.02,0-.1,0-.11.02.04,0,.2,0,.23.02h-.02s.03.03.03.03c-.06,0-.2-.02-.25-.03-.02.01-.03,0-.02.02-.02,0-.03,0-.04,0v.04s.04.02.08.02l-.06-.04s.14,0,.13.04c-.02,0-.08,0-.1,0,.02,0,.03.02.02.03h-.03s.07,0,.02.03c0,0-.06.03-.03.03.05-.02.22-.04.26-.04,0,0-.05.04-.07.05-.04.02-.1,0-.14.01.01,0,.03,0,.04,0-.01,0-.04,0-.03.02.05,0,0,.03.04,0,.02.01,0,.02,0,.03.03,0,.11,0,.12.02-.01,0-.03,0-.03,0,0,.03-.02.05-.02.08-.01,0-.02.02-.05.02,0,0,.03,0,.03.01-.04.02,0-.02-.06,0,.03,0,.04.02.06.03.04,0,0-.03-.01-.04.06,0,.12,0,.16.04.02.02-.04.01-.03.02,0,.05.11.03.07.07-.04.02-.08,0-.1.01-.02-.02.02-.03.02-.05l-.02.02s-.02-.02-.01-.02c-.03.02,0,.08-.03.11.01,0,.03.01.04,0h0s.04,0,.06,0c.02.01.06.03.04.05h-.04s.02,0,.01-.01c.02,0-.06.04,0,.04l.03-.02s.07.03.06.05c.04-.01,0,0,.04-.02-.06.02,0-.05-.07-.02.06-.02.02-.03.07-.05-.01,0-.03,0-.02,0h-.01s0,0,0,0h0s0,0,0,0h-.02s-.03-.02-.05-.03c0,0,.02,0,.03,0h-.03s.05-.04.07-.02v-.02s.02-.03,0-.04c0,0-.04-.02-.01-.01l-.02-.03h0s-.06-.06,0-.1c0,0-.02-.02-.01-.04h.03s.02-.05,0-.05c.07-.02,0-.07.02-.09h-.04s-.01-.03-.03-.04h-.03s.02-.04,0-.07c.01,0,.01,0,0,.01.07-.04-.06-.06-.01-.1-.01,0,0-.01,0-.02h0s0,0,0,0h.02s-.02,0-.02,0c0,0,0-.01-.02-.02h.03s0-.01,0-.01c.01-.01-.02,0-.04,0h-.02c.05-.02-.02-.03.03-.04-.03,0-.03-.04-.09-.03,0,0,.01,0,.01,0,0-.01.01-.02,0-.03h.04s-.06-.02-.06-.02c.02-.02.04-.02.07-.02-.06-.02-.02-.02-.08-.04h.03s-.04-.02-.02-.03c.05-.03-.01-.1.03-.16-.08.03.03-.03-.03-.02.02,0,.03-.02.05-.01-.02-.02.02-.05-.04-.05.02,0,.03,0,.04,0,0,0-.02,0,0,0,.01,0,.02,0,.03,0,0-.03-.07-.02-.12,0,.02-.02.02-.02-.02-.03.02,0,.03-.02.04,0,0,0,.01-.06-.03-.05.01,0,0-.01,0-.01,0-.02,0-.02,0-.04h0c-.05.01-.02,0-.03-.02h0s-.02-.01.01-.06h-.03c-.07.03.03-.03,0-.05h-.02s.09-.05.09-.06c0,0,.01,0,.02,0,.03-.04-.04,0-.06-.01.02-.01.06-.01.06-.03.02-.01-.09-.02-.05-.06-.02,0-.03.02-.05.01-.01-.01.05-.06,0-.06,0,0,.01,0,.01,0-.02,0-.04-.03-.07-.03.11-.05-.08-.06.02-.09l-.02-.04h.01s-.03-.03-.06-.03c0,0,.02,0,.02,0,0-.04,0-.04-.06-.06l.03-.02s.03-.07-.02-.09c0,0,.01,0,.02,0-.05-.02.05-.13-.07-.09h-.04s-.05,0-.07.03c-.01,0,.02-.05.03-.03h0c.06-.02,0-.04.05-.06-.03-.06-.02-.14-.05-.2l-.04.03v-.02s.02-.03.03-.01c.02-.02-.03-.01-.04,0,0-.04.06-.02.06-.03h0s0,0,0,0c-.02,0-.04.01-.05,0,0-.02.03-.02.02-.03,0,0,0,0,0,0v-.03s-.04.03-.04.03c-.02,0-.01-.02-.05,0,.05-.05-.03-.1-.02-.13-.03,0-.04-.01-.05-.04,0,0-.04.04-.05.02.08-.05.02-.05.07-.1-.03.04-.04-.04-.08.02,0-.02.03-.02.04-.04-.05,0-.02-.08-.06-.11-.01,0-.02.02-.04.02l.04-.05s-.06.03-.04,0c0,0-.02.02-.03.02,0-.11-.14-.12-.16-.28,0,.03-.01.02-.02.02,0,0-.02.02-.03.04v-.06s-.06-.02-.08.02h.02s-.03.11-.07.17c.05-.04-.02.09.05.04,0,.01-.02.01-.03.03.02-.02.03-.02.03,0h0s.02.06.03.1l.02-.02s0,.02,0,.03c.05-.02-.01-.02.04-.05-.05.05.04.06-.02.11,0,.01.03-.03.04-.01l-.02.02h.02s-.02.02-.03.03h-.01s.03.02.02.03v-.02s.05.09.11.11h.01s0,.02.03.05h0s.03,0,.03.01c-.02,0-.02.03-.05.03.04.01.03,0,.09,0l-.02.02s.04-.01.05,0c-.03,0-.03.03-.06.03-.03.06.08.02.01.07.07-.02.02-.05.04-.05.02-.02.05-.01.05,0,0,.01-.07.06-.06.09h0s.03,0,.01.03c.04-.01,0,.02.06,0l-.02-.02s.09,0,.07.03c-.01,0-.03,0-.04,0-.01.01.02,0,0,.02-.05.02-.03-.02-.07-.02-.02.02.05,0,0,.03.07-.02,0,.03.07.02h-.03s.02.01.03.02h-.04s-.02.05,0,.06c-.01-.03.03-.02.05-.05.06.02-.07.06-.04.09,0,0,0-.03.03-.03,0,.01,0,.03-.02.04.02.02.03-.02.05-.02-.03.03.02,0,.04.01h-.03c0,.05.07,0,.06.03h-.05s.02.02.02.02h-.04s.03.03.03.05c.02-.01.06-.02.07,0-.02.02-.03,0-.02.03-.02,0-.05,0-.02-.01h-.03s0,.04,0,.04c0,0,0,0,0-.01h.06s-.02.02-.03.02c0,0,.02,0,.03.01-.03,0-.05.02-.07.01l.04.02s-.03.03-.04.03c0,.02.07.02.05.05,0,0,.01,0,.02,0,0,.02-.03.05.02.06l-.04.03s.05-.04.08-.01c.02.02-.04.02-.05.03.03,0,.08,0,.05.04-.01,0,0-.01-.01-.02Zm.09.22s-.03,0-.01-.01c.04,0,.02,0,.01.01Zm.17.34s0,0,0-.02c0,0,0,0,0,.02Zm.4,1h0s0,0,0,0Zm-.01.02s.01,0,.01,0c0,0,0,0,0-.01,0,0-.01,0,0,.01Zm-.63-2.34h0s0,0,0,0Z"/><path class="cls-3" d="m24.22,16.61h.02s-.01,0-.02,0Z"/><polygon class="cls-3" points="23.95 15.94 23.95 15.94 23.94 15.94 23.95 15.94"/><path class="cls-3" d="m24.33,17.35h.02s-.02,0-.02,0Z"/><path class="cls-3" d="m24.73,17.78h0s0,0-.01,0c0,0,.02,0,.02,0Z"/><path class="cls-3" d="m24.52,17.92h0s.02,0,.02,0c0,0-.02-.01-.02,0Z"/><path class="cls-3" d="m24.61,17.8s-.02.01-.01.02h0s.03-.01.01-.02Z"/><path class="cls-3" d="m24.6,17.82h0s0,0,0,0Z"/><path class="cls-3" d="m24.68,17.69s.04,0,.03,0c.04,0-.05-.03-.03,0Z"/><polygon class="cls-3" points="24.52 17.82 24.56 17.81 24.53 17.81 24.52 17.82"/><path class="cls-3" d="m24.54,17.74v.02s0,0,0,0c0,0,0-.02,0-.02Z"/><path class="cls-3" d="m24.54,17.76s0,0,0,.01c0,0,0,0,0-.01Z"/><polygon class="cls-3" points="24.51 17.8 24.52 17.79 24.52 17.78 24.51 17.8"/><path class="cls-3" d="m24.53,17.56v-.02s-.03,0-.03.01c0,0,.01,0,.03,0Z"/><path class="cls-3" d="m24.44,17.63s.01,0,.03-.01h-.04s.02.01.02.01Z"/><path class="cls-3" d="m24.42,17.58s-.04-.02-.03,0c.01,0,.02.02.03,0Z"/><polygon class="cls-3" points="24.45 17.31 24.45 17.32 24.52 17.31 24.45 17.31"/><path class="cls-3" d="m24.24,17.11s.04,0,.03.02c.02,0,.02-.02.03-.01-.02,0-.01-.02-.06,0Z"/><path class="cls-3" d="m24.3,17.12s0,0,.01,0c0,0-.01,0-.01,0Z"/><polygon class="cls-3" points="23.52 14.59 23.51 14.57 23.51 14.59 23.52 14.59"/><path class="cls-3" d="m23.46,14.62l.02-.04-.03.03s.01,0,.01,0Z"/><path class="cls-3" d="m24.02,16.36h.01s.01-.01.01-.02l-.02.02Z"/><polygon class="cls-3" points="24.01 16.18 24.01 16.19 24.05 16.17 24.01 16.18"/><path class="cls-3" d="m23.91,16.06s.01,0,.01.02c-.01,0,.04-.03-.01-.02Z"/></g></g></g></g></g></g></g></svg>