<?xml version="1.0" encoding="UTF-8"?><svg id="Layer_2" xmlns="http://www.w3.org/2000/svg" xmlns:xlink="http://www.w3.org/1999/xlink" viewBox="0 0 56 76.29"><defs><style>.cls-1{opacity:.2;}.cls-2{fill:url(#radial-gradient);}.cls-3{fill:#79522c;}.cls-4{fill:#926039;}.cls-5{fill:#1d1d1b;}.cls-6{fill:#754d2d;}</style><radialGradient id="radial-gradient" cx="27.98" cy="49.41" fx="27.98" fy="62.23" r="25.41" gradientUnits="userSpaceOnUse"><stop offset="0" stop-color="#b17f4a"/><stop offset=".95" stop-color="#926039"/></radialGradient></defs><g id="Layer_1-2"><g id="logo"><g id="Head"><path class="cls-2" d="m51.82,58.93c0,.46,0,.9-.02,1.34h0c-.05,2.26-.22,4.16-.57,5.14-1.33,3.64-20.1,10.88-23.31,10.88-2.93,0-20.59-8.25-22.8-10.27-.7-.64-.95-2.92-.98-5.74,0-.44,0-.89,0-1.35.01-.9.04-1.82.09-2.76h0c.02-.4.04-.8.06-1.2h0c.28-4.83.82-9.39.82-9.39,0-.14,0-.28,0-.42,0-.06,0-.12,0-.17,0-.17.01-.33.02-.5,0-.05,0-.09,0-.14,0-.14.02-.27.03-.41,0-.06,0-.12.01-.18.01-.16.03-.32.04-.48.02-.19.04-.37.06-.56.02-.19.05-.37.08-.56.03-.18.06-.37.09-.55,0,0,0,0,0,0,.06-.37.14-.73.22-1.09.04-.17.08-.35.12-.52,0-.02,0-.03.01-.05.04-.17.09-.33.13-.5,0,0,0,0,0-.01.04-.15.08-.3.13-.44.02-.06.03-.11.05-.17.04-.13.08-.26.13-.39,0-.02.01-.05.02-.07.05-.15.1-.31.15-.46,0-.01,0-.02.01-.03.05-.14.1-.28.15-.42.03-.07.05-.14.08-.2,0-.01,0-.02.01-.04.08-.21.17-.42.26-.63.05-.11.09-.22.14-.32.09-.22.19-.43.29-.64.32-.68.68-1.33,1.07-1.97.09-.14.17-.28.26-.42.09-.14.18-.28.27-.41.09-.14.18-.27.28-.41.14-.21.29-.42.45-.63.25-.34.51-.66.78-.99,0,0,0-.01.01-.02,0-.01.02-.02.02-.03.05-.06.1-.12.16-.18.05-.06.1-.12.16-.18.11-.13.23-.26.34-.38.23-.25.47-.5.71-.74.15-.15.29-.29.45-.43.03-.03.07-.07.1-.1.1-.1.21-.19.31-.29.05-.05.1-.09.15-.14.45-.4.91-.78,1.39-1.14.16-.12.31-.23.47-.35,0,0,0,0,.01,0,0,0,0,0,.01,0,.1-.07.21-.15.31-.22.12-.09.25-.17.38-.26.19-.12.37-.24.56-.36,0,0,0,0,0,0,.6-.37,1.23-.72,1.86-1.04.64-.32,1.3-.61,1.97-.87.17-.06.34-.13.51-.19.17-.06.34-.12.51-.18.17-.06.34-.11.51-.16,0,0,.02,0,.02,0,.17-.05.34-.1.51-.15.35-.1.7-.19,1.06-.27.36-.08.72-.16,1.08-.22.18-.03.36-.06.55-.09.18-.03.37-.06.55-.08.17-.02.34-.04.5-.06.02,0,.04,0,.05,0,.55-.06,1.11-.1,1.67-.12h.02c.19,0,.38-.01.57-.01h0c.07,0,.13,0,.2,0,.1,0,.19,0,.29,0h.01c2.48.03,4.86.45,7.09,1.21,7.87,2.66,13.83,9.46,15.31,17.8.1.56.18,1.12.24,1.69,0,.02,0,.04,0,.06.07.75.11,1.52.11,2.29h0c0,.07.03.35.06.8.11,1.54.36,5.06.47,8.71,0,.02,0,.05,0,.07.01.34.02.68.03,1.02.02.92.03,1.84.03,2.73Z"/><path class="cls-5" d="m28.48,22.54s0,.02,0,.02c0,0,0-.02,0-.02h.01Z"/><path class="cls-5" d="m51.13,43.41s0-.07-.01-.11c-.06-.59-.14-1.17-.24-1.75-.01-.07-.02-.13-.03-.2.12.62.21,1.25.27,1.89,0,.06.01.11.02.17Z"/><path class="cls-5" d="m51.3,46.43s0-.02,0-.04v-.05s0,.06,0,.09Z"/><g id="Ears"><g id="Ear_left"><path class="cls-4" d="m55.91,57.32c-.57,1.95-2.71,3.5-4.1,2.96h0s-.01-1.35-.01-1.35l-.03-3.75v-.07s.01-.1.04-.15c.14-.3.66-.6.88-.79.34-.28.69-.62,1.54-.42.89.2,2.13,2.05,1.68,3.57Z"/><path class="cls-6" d="m51.78,56.21s.66-.78,1.41-.43,1.02,1.05.94,1.72-.72,1.22-1.15,1.33c-.54.14-1.18.09-1.18.09l-.02-2.72Z"/></g></g><g id="Ears-2"><g id="Ear_left-2"><path class="cls-4" d="m4.32,55.09c0-.35-.73-.7-1-.92-.34-.28-.69-.62-1.54-.42s-2.13,2.05-1.68,3.57c.57,1.94,2.68,3.49,4.07,2.95l.15-5.18Z"/><path class="cls-6" d="m4.28,56.23s-.72-.8-1.47-.45-1.02,1.05-.94,1.72.72,1.22,1.15,1.33c.54.14,1.18.09,1.18.09l.08-2.7Z"/></g></g><g id="Eyes"><g><ellipse id="Eye_right" cx="21.33" cy="54.67" rx="1.32" ry="5.13"/><g class="cls-1"><g><path class="cls-3" d="m22.05,55.21s.05,0,.06,0c-.01-.01-.08,0-.06,0Z"/><polygon class="cls-3" points="21.93 55.09 21.95 55.1 21.89 55.08 21.93 55.09"/><path class="cls-3" d="m21.93,54.99c-.1,0,.01.04-.02.06h-.02s.08.01.08.01c-.01-.02-.06-.06-.03-.07Z"/><path class="cls-3" d="m22.14,54.94s-.03-.01-.01.01h0s0,0,0-.01Z"/><path class="cls-3" d="m22.14,54.95s.03,0,0,0h0Z"/><path class="cls-3" d="m22.12,54.89l.03.02s.03-.02.04,0c-.02-.02-.04-.01-.08,0Z"/><path class="cls-3" d="m22.05,54.88h.01s.01,0-.01,0Z"/><path class="cls-3" d="m22.09,54.9l-.03-.02s-.05,0,.01,0c-.03,0,0,0,.02,0Z"/><path class="cls-3" d="m22.08,54.91s-.03.02-.07,0c.01.03.08.03.07,0Z"/><path class="cls-3" d="m21.83,54.98h-.03s.03.02.03.02c-.02,0,.03-.02,0-.02Z"/><path class="cls-3" d="m22.17,54.8s-.05,0-.08,0h.02s.03,0,.06,0Z"/><path class="cls-3" d="m22.09,54.81l-.03-.02s.01.02.03.02Z"/><polygon class="cls-3" points="21.94 54.87 22.01 54.9 21.94 54.86 21.94 54.87"/><polygon class="cls-3" points="22.18 54.74 22.22 54.75 22.15 54.73 22.18 54.74"/><path class="cls-3" d="m22.17,54.7s.07,0,.09,0c0-.01-.04-.02-.07-.03.02.01.01.02-.02.03Z"/><path class="cls-3" d="m22.15,54.65s.03.01.04.02c0,0-.02-.01-.04-.02Z"/><path class="cls-3" d="m22.07,54.76s.04,0,.06,0h-.06s0,0,0,0Z"/><path class="cls-3" d="m22.07,54.75h0s0-.01,0-.01c0,0,0,0,0,.01Z"/><path class="cls-3" d="m22.07,54.76h0s0,0,0,0Z"/><path class="cls-3" d="m22,54.83s-.06-.03-.11-.02c.04,0,.07,0,.11.02Z"/><path class="cls-3" d="m22,54.76v.02s.02,0,.04,0l-.04-.02Z"/><polygon class="cls-3" points="21.98 54.75 22 54.76 22 54.76 21.98 54.75"/><path class="cls-3" d="m22.1,54.68s-.03-.02-.03-.03c-.01,0-.02.02-.02.03.02,0,.05,0,.05,0Z"/><path class="cls-3" d="m22.08,54.71h0s0,0,0,0Z"/><polygon class="cls-3" points="22.08 54.55 22.06 54.56 22.07 54.56 22.08 54.55"/><path class="cls-3" d="m22.04,54.68s0,.01.02.02c0,0,0-.01,0-.02,0,0-.01,0-.01,0Z"/><path class="cls-3" d="m22.13,54.62h-.03s.05,0,.03,0Z"/><path class="cls-3" d="m22.09,54.71h0s0,0,0,0Z"/><path class="cls-3" d="m22.09,54.71s-.02,0-.03-.01c0,0,0,0,.02.01,0,0,.01,0,.02,0Z"/><path class="cls-3" d="m21.71,54.5c.05,0,.1.03.04.04.04.02.21.02.31.01-.02,0-.04,0-.07-.02-.03,0-.07.03-.12.02-.03-.03.02-.02.05-.03-.07,0-.09-.04-.19-.04l.03.02s-.04-.01-.05,0Z"/><path class="cls-3" d="m22.06,54.59h0s.03,0,.07-.01c-.02-.01-.04-.02-.06-.02v.04s-.02,0-.02,0Z"/><path class="cls-3" d="m22.06,54.63c-.06,0-.08-.03-.14-.02,0,.02.05.02.07.03-.01-.04.03.01.07-.01,0,0,.01.01.01.02,0,0,.02-.01.03-.02h0s0,0,0,0h0s0,0,0,0h0s-.02,0-.02,0c.01,0,.02,0,.02,0h0s0,0,0,0l-.03-.04s0,.02,0,.03Z"/><path class="cls-3" d="m21.76,54.78s.01,0,.01,0c0,0-.01,0-.01,0Z"/><path class="cls-3" d="m21.8,54.77s.03,0,.02.01c-.02,0-.03,0-.05,0,.02,0,.04.02.07,0h0s.09-.03.1-.03c-.05,0-.09,0-.14,0Z"/><path class="cls-3" d="m21.91,54.7l-.03-.03h-.05s.03.01.03.01c-.01.02.02.01.05.02Z"/><polygon class="cls-3" points="22.1 54.55 22.16 54.56 22.08 54.54 22.1 54.55"/><polygon class="cls-3" points="22.1 54.52 22.15 54.52 22.12 54.51 22.1 54.52"/><path class="cls-3" d="m21.59,52.35h-.02s.02,0,.02,0Z"/><path class="cls-3" d="m21.59,52.41h.03s-.03,0-.03,0Z"/><path class="cls-3" d="m22.18,53.58c.05,0,.13-.02.07-.02h-.06s0,.01-.01.02Z"/><polygon class="cls-3" points="21.88 52.92 21.86 52.92 21.92 52.93 21.88 52.92"/><path class="cls-3" d="m21.64,52.89h.04s-.03,0-.04,0Z"/><path class="cls-3" d="m21.5,52.04h-.06s.03,0,.06,0Z"/><path class="cls-3" d="m22.11,54.13s.03-.02.04-.02c-.03.01-.08.02-.04.02Z"/><path class="cls-3" d="m22.2,52.36s-.02,0-.04,0c0,0,.02,0,.04,0Z"/><path class="cls-3" d="m22.15,54.07h-.01s.02.02.01.03c.03,0,.04-.02,0-.03Z"/><path class="cls-3" d="m21.3,50.95h0s0,0,0,0Z"/><path class="cls-3" d="m21.58,50.33s.01,0,.02.01c0,0,0-.01-.02-.01Z"/><path class="cls-3" d="m22.14,54.37s0,0,0,0h0Z"/><path class="cls-3" d="m21.91,54.39s-.01,0-.03,0c.01,0,.02,0,.03,0Z"/><path class="cls-3" d="m21.8,53.96h0s0,0,0,0Z"/><path class="cls-3" d="m22.11,54.38h.02s-.01,0-.02,0Z"/><path class="cls-3" d="m22.14,54.38h0s.02,0,0,0Z"/><path class="cls-3" d="m22.14,54.36s0,0,0,.01h0s0-.01,0-.01Z"/><path class="cls-3" d="m21.63,51.47h0s-.02,0,0,0Z"/><polygon class="cls-3" points="21.59 53.32 21.6 53.33 21.6 53.33 21.59 53.32"/><path class="cls-3" d="m21.55,53.29c.07.02.06.02.05.03h.17s-.21-.03-.21-.03Z"/><path class="cls-3" d="m21.57,52.22l-.05.02c-.09-.01-.06-.03-.13,0,.18-.01.02.06.2.06h-.04s0,0,0,0c-.09.03.13.01.11.04-.01.01-.04.02-.06.01l.05.02s-.03,0-.03,0l.02.04h0s.07.02.09.02c-.03,0-.02,0-.04,0l.04.02s-.09,0-.09-.02c-.18.02.05.02-.06.06l-.02-.02c-.1.01-.07.03-.13.05.03,0,.16-.04.21-.02-.01,0-.02.01.02.03-.06,0-.05.01-.05.03h-.09s.07.01.11.02c0,.02-.07.02-.13.02-.01.03.11-.02.12.02-.03.02,0,.04.05.07-.03.02-.05,0-.08,0l.07.02s-.02,0-.03,0c.03.01.09,0,.11.03.09,0-.14.04-.03.07-.02,0-.05,0-.09,0,.07.04.05.03.14.07l-.06.02c.06-.01.14.01.2.04.03,0,.06,0,.07-.01l.04.04s-.04,0-.08,0h.02s-.08,0-.13,0h.05c-.05-.02-.11-.03-.16-.03,0,0,.02,0,.02.01-.01,0-.03,0-.03,0,0,0,0,0,.03.01h-.1s.04,0,.04,0l-.06.04c.09.04.23.07.27.12-.07-.02-.11-.01-.2-.02.09,0-.03-.04-.02-.06,0,.01-.05,0-.06,0l.08.05c-.07,0-.05,0-.08.02.13,0,.09.04.13.06-.04,0-.09,0-.08-.03-.1.02.15.04.07.06,0,0,0,0-.02-.01.04.02,0,.04-.03.03h0s0,.1.1.12c-.01,0-.14-.02-.16-.02l.38.09c-.1-.01-.33-.01-.38-.04-.01,0-.03.02,0,.04.01,0,.14,0,.15,0-.11.01-.06.01-.15.03.02,0,.17.02.17.03-.02,0-.15-.01-.17-.02l.15.05s-.13-.01-.17,0c.03,0,0,.03,0,.04h.04s.21.04.2.08c-.03,0-.19-.03-.21-.01.08.02.36.07.42.11h-.04s.05.03.05.03c-.11-.03-.35-.09-.44-.13-.04.01-.05,0-.05.02-.04,0-.06-.02-.06-.02l-.03.05c.09,0,.09.05.16.05l-.09-.06c.09,0,.25.05.23.09-.04,0-.16-.02-.19-.02.03,0,.06.04.03.04l-.05-.02s.12.04.03.06c0,0-.12.01-.06.02.1,0,.42.02.49.04,0,0-.1.03-.15.04-.08,0-.19-.04-.26-.03.02,0,.05.01.06.02-.02,0-.08-.01-.07,0,.09.01-.01.04.08.02.02.02-.02.02-.02.04.06,0,.2.04.22.06-.02,0-.05,0-.07,0-.01.04-.05.05-.06.09-.02,0-.05.02-.09,0,.02,0,.05.01.05.02-.08.01-.01-.03-.11-.02.05,0,.07.03.1.05.08,0,.02-.03-.01-.05.11,0,.23.05.28.09.03.03-.07,0-.06.01-.02.05.19.06.11.1-.07.01-.14-.01-.19-.01-.02-.03.05-.03.05-.05l-.04.02s-.04-.03-.02-.03c-.07,0-.02.09-.08.13.02,0,.05.02.08.02h0c.06-.02.08.02.11,0,.04.02.1.05.07.07h-.08s.05-.01.03-.02c.04.01-.11.03,0,.05h.06s.12.04.1.06c.08,0,0,0,.09-.01-.12,0,0-.06-.12-.04.11,0,.05-.02.14-.04-.03,0-.05,0-.04-.01,0,0-.02,0-.02,0h0s0,0,0,0h0s-.03,0-.04,0c-.06-.01-.06-.04-.09-.06.01-.01.03,0,.06,0l-.05-.02c.06,0,.1-.02.13,0v-.02s.05-.03.03-.04c.01,0-.06-.03-.02-.02l-.03-.04h.02s-.09-.08.02-.12c-.01-.01-.03-.03-.01-.05h.05s.06-.04,0-.05c.14,0,.04-.07.06-.1h-.07s-.01-.05-.04-.07h-.06s.05-.05.04-.09c.02,0,.02.01,0,.02.14-.03-.09-.09.01-.12-.02-.01-.01-.02,0-.02h0s0,0,0,0h.03s-.03,0-.03,0c0,0,0-.02-.02-.03h.06s0,0,0,0c.02,0-.03-.01-.08,0-.01,0-.02-.01-.04-.02.1,0-.03-.03.08-.03-.05-.01-.04-.05-.15-.07.01,0,.02,0,.02,0,.01-.01.03-.02,0-.03h.08s-.11-.03-.11-.03c.05-.01.08-.01.14,0-.09-.04-.03-.03-.13-.07h.05s-.07-.03-.03-.03c.1-.02.02-.12.12-.18-.16,0,.07-.02-.05-.04.04,0,.06,0,.09,0-.03-.03.06-.05-.04-.07.04,0,.05.01.08,0,0,0-.03-.01,0-.01.02,0,.03,0,.05.01,0-.03-.12-.04-.22-.05.05-.01.04-.02-.02-.04.04,0,.07-.01.08,0,0-.01.06-.07-.03-.07.02,0,0-.02,0-.02,0-.03.01-.03,0-.05h-.01c-.1,0-.02-.02-.03-.04h.01c.08-.04-.03-.02.05-.06h-.06c-.14,0,.08-.04.03-.07h-.04s.19-.03.21-.04c.01,0,.02,0,.03.01.08-.04-.08,0-.1-.04.05,0,.11,0,.12-.01.04-.01-.15-.06-.06-.09-.03,0-.07.01-.1,0-.01-.02.13-.06.02-.08h.03s-.05-.06-.11-.06c.22-.03-.11-.1.09-.11v-.05s0,0,0,0c.01-.03-.04-.04-.09-.04.01,0,.03,0,.04,0,.04-.05.03-.05-.08-.08h.07s.1-.09.02-.12c0,0,.02,0,.03,0-.08-.04.17-.14-.07-.13l-.06-.03s-.1,0-.14.03c-.02-.01.07-.05.08-.03h-.01c.13,0,.04-.05.12-.06-.02-.08.04-.18.03-.26l-.09.03v-.03s.07-.02.07,0c.05-.02-.05-.02-.07-.02.03-.05.11,0,.11-.02v-.02s-.02,0-.02,0c-.04,0-.08,0-.08-.02.02-.02.06-.02.06-.03,0,0,0,0,0,0v-.04s-.07.03-.07.03c-.04,0,0-.03-.08,0,.13-.05.01-.14.05-.17-.06,0-.06-.03-.07-.06-.01.01-.09.04-.09.02.17-.05.06-.06.18-.12-.07.04-.04-.06-.15,0,0-.02.06-.02.1-.05-.08-.02,0-.12-.04-.17-.02,0-.05.03-.09.04l.09-.08s-.13.05-.06,0c-.02.01-.04.03-.05.03.03-.17-.16-.14-.13-.4-.02.05-.03.04-.04.03,0,.02-.04.04-.06.06,0-.04.01-.07.01-.11-.06.06-.06-.04-.11.02h.02c-.07.07-.11.2-.19.3.09-.07-.09.15.04.05-.02.02-.03.02-.05.05.04-.03.06-.03.05-.01h-.01s0,.08,0,.14l.05-.04s-.02.03-.03.04c.09-.04-.01-.03.09-.07-.1.08.04.08-.08.15,0,.02.06-.04.07-.02l-.03.02.05-.02s-.04.04-.07.06h-.02s.03.03.02.04v-.03c.07.03.04.1.13.12h.03c.06,0-.02.03.02.06h0s.05,0,.05.02c-.04,0-.06.04-.1.04.07.02.05,0,.16,0l-.05.02s.07,0,.09,0c-.05,0-.07.03-.13.03-.09.07.12.04-.03.1.14-.01.06-.06.1-.05.04-.02.1,0,.09,0,0,.02-.16.06-.15.1h-.01s.05.01,0,.04c.08,0,0,.02.1,0l-.03-.03s.16,0,.1.05c-.02,0-.05,0-.07,0-.03.01.02.01,0,.03-.1.02-.03-.04-.11-.04-.04.02.08.02-.03.03.15-.01-.01.04.1.04h-.06s.04.01.04.02h-.08c.07,0-.05.05-.01.06,0-.04.07-.02.12-.05.09.04-.16.06-.12.1-.01,0,.03-.03.06-.03-.01.01-.03.03-.06.04.02.03.06-.02.1,0-.07.02.03.01.06.03h-.06c-.04.06.13,0,.09.05h-.09s.03.01.03.01h-.07c.06.02.04.03.03.05.04-.01.12-.01.12,0-.04.02-.06,0-.05.03-.04,0-.09,0-.03-.02h-.06s0,.04,0,.05c0,0,0,0,.01-.01l.09.03s-.04,0-.06,0c0,0,.04,0,.04.02-.05,0-.11,0-.13,0l.06.03s-.06.03-.08.02c-.03.02.11.04.07.07.01,0,.02,0,.03,0,0,.03-.07.06,0,.08l-.09.03s.12-.03.15,0c.03.03-.08.02-.1.03.05.01.15.02.07.05-.02,0,0-.01-.01-.02Zm.05.28s-.05-.02-.02-.02c.07,0,.04.01.02.02Zm.14.46s-.01-.01.01-.02c0,0,0,.01-.01.02Zm.34,1.32h0s.02,0,0,0Zm-.03.02s.02,0,.03,0c-.02,0-.02,0-.01-.02-.02,0-.03,0-.02.01Zm-.03-3h-.02s0,0,.02,0Z"/><path class="cls-3" d="m21.67,52.9h.04s-.02,0-.04,0Z"/><polygon class="cls-3" points="21.52 52.04 21.52 52.04 21.5 52.04 21.52 52.04"/><path class="cls-3" d="m21.56,53.83s.02,0,.03,0c-.02,0-.03,0-.03,0Z"/><path class="cls-3" d="m22.16,54.45l-.02-.02s-.01.01-.02.01c.02,0,.04,0,.04,0Z"/><path class="cls-3" d="m21.75,54.57s0,0,0,0h.03s-.02-.02-.04,0Z"/><path class="cls-3" d="m21.95,54.45c-.05,0-.04,0-.03.02h0c.08,0,.05,0,.03-.02Z"/><path class="cls-3" d="m21.92,54.48h0s0,0,0,0Z"/><path class="cls-3" d="m22.1,54.34s.07,0,.05.01c.07.01-.08-.05-.05-.01Z"/><polygon class="cls-3" points="21.77 54.45 21.83 54.45 21.78 54.44 21.77 54.45"/><path class="cls-3" d="m21.82,54.35l-.02.02s.02,0,.02,0c0-.01.02-.02,0-.03Z"/><path class="cls-3" d="m21.83,54.38s0,.01,0,.02c0,0,0-.01,0-.02Z"/><polygon class="cls-3" points="21.75 54.42 21.76 54.41 21.77 54.4 21.75 54.42"/><path class="cls-3" d="m21.85,54.14l-.02-.02s-.04,0-.03,0c.02,0,.02.02.05.01Z"/><path class="cls-3" d="m21.67,54.19s.03,0,.05,0h-.08s.03,0,.03,0Z"/><path class="cls-3" d="m21.65,54.13s-.06-.04-.06,0c.02,0,.04.03.06,0Z"/><polygon class="cls-3" points="21.79 53.82 21.79 53.82 21.92 53.83 21.79 53.82"/><path class="cls-3" d="m21.49,53.51s.08.01.04.03c.03,0,.03-.02.06,0-.03-.02-.01-.02-.1-.03Z"/><path class="cls-3" d="m21.59,53.53s.01,0,.02,0h-.02Z"/><polygon class="cls-3" points="21.56 50.2 21.55 50.16 21.54 50.21 21.56 50.2"/><path class="cls-3" d="m21.46,50.25l.04-.08-.05.06s.02,0,.01.02Z"/><path class="cls-3" d="m21.44,52.54h.02s.02,0,.03-.01h-.05Z"/><polygon class="cls-3" points="21.5 52.34 21.5 52.34 21.58 52.33 21.5 52.34"/><path class="cls-3" d="m21.39,52.18s.02.01.01.02c-.02-.01.08-.03-.01-.02Z"/></g></g></g><g><ellipse id="Eye_right-2" cx="34.63" cy="54.67" rx="1.32" ry="5.13"/><g class="cls-1"><g><path class="cls-3" d="m35.35,55.21s.05,0,.06,0c-.01-.01-.08,0-.06,0Z"/><polygon class="cls-3" points="35.22 55.09 35.25 55.1 35.19 55.08 35.22 55.09"/><path class="cls-3" d="m35.23,54.99c-.1,0,.01.04-.02.06h-.02s.08.01.08.01c-.01-.02-.06-.06-.03-.07Z"/><path class="cls-3" d="m35.43,54.94s-.03-.01-.01.01h0s0,0,0-.01Z"/><path class="cls-3" d="m35.43,54.95s.03,0,0,0h0Z"/><path class="cls-3" d="m35.41,54.89l.03.02s.03-.02.04,0c-.02-.02-.04-.01-.08,0Z"/><path class="cls-3" d="m35.34,54.88h.01s.01,0-.01,0Z"/><path class="cls-3" d="m35.39,54.9l-.03-.02s-.05,0,.01,0c-.03,0,0,0,.02,0Z"/><path class="cls-3" d="m35.37,54.91s-.03.02-.07,0c.01.03.08.03.07,0Z"/><path class="cls-3" d="m35.13,54.98h-.03s.03.02.03.02c-.02,0,.03-.02,0-.02Z"/><path class="cls-3" d="m35.47,54.8s-.05,0-.08,0h.02s.03,0,.06,0Z"/><path class="cls-3" d="m35.39,54.81l-.03-.02s.01.02.03.02Z"/><polygon class="cls-3" points="35.24 54.87 35.31 54.9 35.24 54.86 35.24 54.87"/><polygon class="cls-3" points="35.47 54.74 35.52 54.75 35.45 54.73 35.47 54.74"/><path class="cls-3" d="m35.47,54.7s.07,0,.09,0c0-.01-.04-.02-.07-.03.02.01.01.02-.02.03Z"/><path class="cls-3" d="m35.45,54.65s.03.01.04.02c0,0-.02-.01-.04-.02Z"/><path class="cls-3" d="m35.37,54.76s.04,0,.06,0h-.06s0,0,0,0Z"/><path class="cls-3" d="m35.37,54.75h0s0-.01,0-.01c0,0,0,0,0,.01Z"/><path class="cls-3" d="m35.37,54.76h0s0,0,0,0Z"/><path class="cls-3" d="m35.29,54.83s-.06-.03-.11-.02c.04,0,.07,0,.11.02Z"/><path class="cls-3" d="m35.29,54.76v.02s.02,0,.04,0l-.04-.02Z"/><polygon class="cls-3" points="35.28 54.75 35.29 54.76 35.3 54.76 35.28 54.75"/><path class="cls-3" d="m35.39,54.68s-.03-.02-.03-.03c-.01,0-.02.02-.02.03.02,0,.05,0,.05,0Z"/><path class="cls-3" d="m35.37,54.71h0s0,0,0,0Z"/><polygon class="cls-3" points="35.37 54.55 35.36 54.56 35.37 54.56 35.37 54.55"/><path class="cls-3" d="m35.33,54.68s0,.01.02.02c0,0,0-.01,0-.02,0,0-.01,0-.01,0Z"/><path class="cls-3" d="m35.42,54.62h-.03s.05,0,.03,0Z"/><path class="cls-3" d="m35.39,54.71h0s0,0,0,0Z"/><path class="cls-3" d="m35.39,54.71s-.02,0-.03-.01c0,0,0,0,.02.01,0,0,.01,0,.02,0Z"/><path class="cls-3" d="m35.01,54.5c.05,0,.1.03.04.04.04.02.21.02.31.01-.02,0-.04,0-.07-.02-.03,0-.07.03-.12.02-.03-.03.02-.02.05-.03-.07,0-.09-.04-.19-.04l.03.02s-.04-.01-.05,0Z"/><path class="cls-3" d="m35.35,54.59h0s.03,0,.07-.01c-.02-.01-.04-.02-.06-.02v.04s-.02,0-.02,0Z"/><path class="cls-3" d="m35.36,54.63c-.06,0-.08-.03-.14-.02,0,.02.05.02.07.03-.01-.04.03.01.07-.01,0,0,.01.01.01.02,0,0,.02-.01.03-.02h0s0,0,0,0h0s0,0,0,0h0s-.02,0-.02,0c.01,0,.01,0,.02,0h0s0,0,0,0l-.03-.04s0,.02,0,.03Z"/><path class="cls-3" d="m35.06,54.78s.01,0,.01,0c0,0-.01,0-.01,0Z"/><path class="cls-3" d="m35.09,54.77s.03,0,.02.01c-.02,0-.03,0-.05,0,.01,0,.04.02.07,0h0s.09-.03.1-.03c-.05,0-.09,0-.14,0Z"/><path class="cls-3" d="m35.21,54.7l-.03-.03h-.05s.03.01.03.01c-.01.02.02.01.05.02Z"/><polygon class="cls-3" points="35.4 54.55 35.46 54.56 35.38 54.54 35.4 54.55"/><polygon class="cls-3" points="35.4 54.52 35.45 54.52 35.42 54.51 35.4 54.52"/><path class="cls-3" d="m34.88,52.35h-.02s.02,0,.02,0Z"/><path class="cls-3" d="m34.88,52.41h.03s-.03,0-.03,0Z"/><path class="cls-3" d="m35.47,53.58c.05,0,.13-.02.07-.02h-.06s0,.01-.01.02Z"/><polygon class="cls-3" points="35.17 52.92 35.16 52.92 35.21 52.93 35.17 52.92"/><path class="cls-3" d="m34.94,52.89h.04s-.03,0-.04,0Z"/><path class="cls-3" d="m34.8,52.04h-.06s.03,0,.06,0Z"/><path class="cls-3" d="m35.41,54.13s.03-.02.04-.02c-.03.01-.08.02-.04.02Z"/><path class="cls-3" d="m35.5,52.36s-.02,0-.04,0c.01,0,.02,0,.04,0Z"/><path class="cls-3" d="m35.45,54.07h-.01s.02.02.01.03c.03,0,.04-.02,0-.03Z"/><path class="cls-3" d="m34.6,50.95h0s0,0,0,0Z"/><path class="cls-3" d="m34.87,50.33s.01,0,.02.01c0,0,0-.01-.02-.01Z"/><path class="cls-3" d="m35.43,54.37s0,0,0,0h0Z"/><path class="cls-3" d="m35.2,54.39s-.01,0-.03,0c.01,0,.02,0,.03,0Z"/><path class="cls-3" d="m35.1,53.96h0s0,0,0,0Z"/><path class="cls-3" d="m35.41,54.38h.02s-.01,0-.02,0Z"/><path class="cls-3" d="m35.43,54.38h0s.02,0,0,0Z"/><path class="cls-3" d="m35.43,54.36s0,0,0,.01h0s0-.01,0-.01Z"/><path class="cls-3" d="m34.93,51.47h0s-.02,0,0,0Z"/><polygon class="cls-3" points="34.89 53.32 34.89 53.33 34.9 53.33 34.89 53.32"/><path class="cls-3" d="m34.85,53.29c.07.02.06.02.05.03h.17s-.21-.03-.21-.03Z"/><path class="cls-3" d="m34.86,52.22l-.05.02c-.09-.01-.06-.03-.13,0,.18-.01.02.06.2.06h-.04s0,0,0,0c-.09.03.13.01.11.04-.01.01-.04.02-.06.01l.05.02s-.03,0-.03,0l.02.04h0s.07.02.09.02c-.03,0-.02,0-.04,0l.04.02s-.09,0-.09-.02c-.18.02.05.02-.06.06l-.02-.02c-.1.01-.07.03-.13.05.03,0,.16-.04.21-.02-.01,0-.02.01.02.03-.06,0-.05.01-.05.03h-.09s.07.01.11.02c0,.02-.07.02-.13.02-.01.03.11-.02.12.02-.03.02,0,.04.05.07-.03.02-.05,0-.08,0l.07.02s-.02,0-.03,0c.03.01.09,0,.11.03.09,0-.14.04-.03.07-.02,0-.05,0-.09,0,.07.04.05.03.14.07l-.06.02c.06-.01.14.01.2.04.03,0,.06,0,.07-.01l.04.04s-.04,0-.08,0h.02s-.08,0-.13,0h.05c-.05-.02-.11-.03-.16-.03,0,0,.02,0,.02.01-.01,0-.03,0-.03,0,0,0,0,0,.03.01h-.1s.04,0,.04,0l-.06.04c.09.04.23.07.27.12-.07-.02-.11-.01-.2-.02.09,0-.03-.04-.02-.06,0,.01-.05,0-.06,0l.08.05c-.07,0-.05,0-.08.02.13,0,.09.04.13.06-.04,0-.09,0-.08-.03-.1.02.15.04.07.06,0,0,0,0-.02-.01.04.02,0,.04-.03.03h0s0,.1.1.12c-.01,0-.14-.02-.16-.02l.38.09c-.1-.01-.33-.01-.38-.04-.01,0-.03.02,0,.04.01,0,.14,0,.15,0-.11.01-.06.01-.15.03.02,0,.17.02.17.03-.02,0-.15-.01-.17-.02l.15.05s-.13-.01-.17,0c.03,0,0,.03,0,.04h.04s.21.04.2.08c-.03,0-.19-.03-.21-.01.08.02.36.07.42.11h-.04s.05.03.05.03c-.11-.03-.35-.09-.44-.13-.04.01-.05,0-.05.02-.04,0-.06-.02-.06-.02l-.03.05c.09,0,.09.05.16.05l-.09-.06c.09,0,.25.05.23.09-.04,0-.16-.02-.19-.02.03,0,.06.04.03.04l-.05-.02s.12.04.03.06c0,0-.12.01-.06.02.1,0,.42.02.49.04,0,0-.1.03-.15.04-.08,0-.19-.04-.26-.03.02,0,.05.01.06.02-.02,0-.08-.01-.07,0,.09.01-.01.04.08.02.02.02-.02.02-.02.04.06,0,.2.04.22.06-.02,0-.05,0-.07,0-.01.04-.05.05-.06.09-.02,0-.05.02-.09,0,.02,0,.05.01.05.02-.08.01-.01-.03-.11-.02.05,0,.07.03.1.05.08,0,.02-.03-.01-.05.11,0,.23.05.28.09.03.03-.07,0-.06.01-.02.05.19.06.11.1-.07.01-.14-.01-.19-.01-.02-.03.05-.03.05-.05l-.04.02s-.04-.03-.02-.03c-.07,0-.02.09-.08.13.02,0,.05.02.08.02h0c.06-.02.08.02.11,0,.04.02.1.05.07.07h-.08s.05-.01.03-.02c.04.01-.11.03,0,.05h.06s.12.04.1.06c.08,0,0,0,.09-.01-.12,0,0-.06-.12-.04.11,0,.05-.02.14-.04-.03,0-.05,0-.04-.01,0,0-.02,0-.02,0h0s0,0,0,0h0s-.03,0-.04,0c-.06-.01-.06-.04-.09-.06.01-.01.03,0,.06,0l-.05-.02c.06,0,.1-.02.13,0v-.02s.05-.03.03-.04c.01,0-.06-.03-.02-.02l-.03-.04h.01s-.09-.08.02-.12c-.01-.01-.03-.03-.01-.05h.05s.06-.04,0-.05c.14,0,.04-.07.06-.1h-.07s-.01-.05-.04-.07h-.06s.05-.05.04-.09c.02,0,.02.01,0,.02.14-.03-.09-.09.01-.12-.02-.01-.01-.02,0-.02h0s0,0,0,0h.03s-.03,0-.03,0c0,0,0-.02-.02-.03h.06s0,0,0,0c.02,0-.03-.01-.08,0-.01,0-.02-.01-.04-.02.1,0-.03-.03.08-.03-.05-.01-.04-.05-.15-.07.01,0,.02,0,.02,0,.01-.01.03-.02,0-.03h.08s-.11-.03-.11-.03c.05-.01.08-.01.14,0-.09-.04-.03-.03-.13-.07h.05s-.07-.03-.03-.03c.1-.02.02-.12.12-.18-.16,0,.07-.02-.05-.04.04,0,.06,0,.09,0-.03-.03.06-.05-.04-.07.04,0,.05.01.08,0,0,0-.03-.01,0-.01.02,0,.03,0,.05.01,0-.03-.12-.04-.22-.05.05-.01.04-.02-.02-.04.04,0,.07-.01.08,0,0-.01.06-.07-.03-.07.02,0,0-.02,0-.02,0-.03.01-.03,0-.05h-.01c-.1,0-.02-.02-.03-.04h.01c.08-.04-.03-.02.05-.06h-.06c-.14,0,.08-.04.03-.07h-.04s.19-.03.21-.04c.01,0,.02,0,.03.01.08-.04-.08,0-.1-.04.05,0,.11,0,.12-.01.04-.01-.15-.06-.06-.09-.03,0-.07.01-.1,0-.01-.02.13-.06.02-.08h.03s-.05-.06-.11-.06c.22-.03-.11-.1.09-.11v-.05s0,0,0,0c.01-.03-.04-.04-.09-.04.01,0,.03,0,.04,0,.04-.05.03-.05-.08-.08h.07s.1-.09.02-.12c0,0,.02,0,.03,0-.08-.04.17-.14-.07-.13l-.06-.03s-.1,0-.14.03c-.02-.01.07-.05.08-.03h-.01c.13,0,.04-.05.12-.06-.02-.08.04-.18.03-.26l-.09.03v-.03s.07-.02.07,0c.05-.02-.05-.02-.07-.02.03-.05.11,0,.11-.02v-.02s-.02,0-.02,0c-.04,0-.08,0-.08-.02.02-.02.06-.02.06-.03,0,0,0,0,0,0v-.04s-.07.03-.07.03c-.04,0,0-.03-.09,0,.13-.05.01-.14.05-.17-.06,0-.06-.03-.07-.06-.01.01-.09.04-.09.02.17-.05.06-.06.18-.12-.07.04-.04-.06-.15,0,0-.02.06-.02.1-.05-.08-.02,0-.12-.04-.17-.02,0-.05.03-.09.04l.09-.08s-.13.05-.06,0c-.02.01-.04.03-.05.03.03-.17-.16-.14-.13-.4-.02.05-.03.04-.04.03,0,.02-.04.04-.06.06,0-.04.01-.07.01-.11-.06.06-.06-.04-.11.02h.02c-.07.07-.11.2-.19.3.09-.07-.09.15.04.05-.02.02-.03.02-.05.05.04-.03.06-.03.05-.01h-.01s0,.08,0,.14l.05-.04s-.02.03-.03.04c.09-.04-.01-.03.09-.07-.1.08.04.08-.08.15,0,.02.06-.04.07-.02l-.03.02.05-.02s-.04.04-.07.06h-.02s.03.03.02.04v-.03c.07.03.04.1.14.12h.03c.06,0-.02.03.02.06h0s.05,0,.05.02c-.04,0-.06.04-.1.04.07.02.05,0,.16,0l-.05.02s.07,0,.09,0c-.05,0-.07.03-.13.03-.09.07.12.04-.03.1.14-.01.06-.06.1-.05.04-.02.1,0,.09,0,0,.02-.16.06-.15.1h-.01s.05.01,0,.04c.08,0,0,.02.1,0l-.03-.03s.16,0,.1.05c-.02,0-.05,0-.07,0-.03.01.02.01,0,.03-.1.02-.03-.04-.11-.04-.04.02.08.02-.03.03.15-.01-.01.04.1.04h-.06s.04.01.04.02h-.08c.07,0-.05.05-.01.06,0-.04.07-.02.12-.05.09.04-.16.06-.12.1,0,0,.03-.03.06-.03-.01.01-.03.03-.07.04.02.03.06-.02.1,0-.07.02.03.01.06.03h-.06c-.04.06.13,0,.09.05h-.09s.03.01.03.01h-.07c.06.02.04.03.03.05.04-.01.12-.01.12,0-.04.02-.06,0-.05.03-.04,0-.09,0-.03-.02h-.06s0,.04,0,.05c0,0,0,0,.01-.01l.09.03s-.04,0-.06,0c0,0,.04,0,.04.02-.05,0-.11,0-.13,0l.06.03s-.06.03-.08.02c-.03.02.11.04.07.07.01,0,.02,0,.03,0,0,.03-.07.06,0,.08l-.09.03s.12-.03.15,0c.03.03-.08.02-.1.03.05.01.15.02.07.05-.02,0,0-.01-.01-.02Zm.05.28s-.05-.02-.02-.02c.07,0,.04.01.02.02Zm.14.46s-.01-.01.01-.02c0,0,0,.01-.01.02Zm.34,1.32h0s.02,0,0,0Zm-.03.02s.02,0,.03,0c-.02,0-.02,0-.01-.02-.02,0-.03,0-.02.01Zm-.03-3h-.02s0,0,.02,0Z"/><path class="cls-3" d="m34.96,52.9h.04s-.02,0-.04,0Z"/><polygon class="cls-3" points="34.81 52.04 34.81 52.04 34.8 52.04 34.81 52.04"/><path class="cls-3" d="m34.85,53.83s.02,0,.03,0c-.02,0-.03,0-.03,0Z"/><path class="cls-3" d="m35.46,54.45l-.02-.02s-.01.01-.02.01c.02,0,.04,0,.04,0Z"/><path class="cls-3" d="m35.05,54.57s0,0,0,0h.03s-.02-.02-.04,0Z"/><path class="cls-3" d="m35.24,54.45c-.05,0-.04,0-.03.02h0c.08,0,.05,0,.03-.02Z"/><path class="cls-3" d="m35.22,54.48h0s0,0,0,0Z"/><path class="cls-3" d="m35.39,54.34s.07,0,.05.01c.07.01-.08-.05-.05-.01Z"/><polygon class="cls-3" points="35.06 54.45 35.13 54.45 35.08 54.44 35.06 54.45"/><path class="cls-3" d="m35.12,54.35l-.02.02s.02,0,.02,0c0-.01.02-.02,0-.03Z"/><path class="cls-3" d="m35.12,54.38s0,.01,0,.02c0,0,0-.01,0-.02Z"/><polygon class="cls-3" points="35.04 54.42 35.06 54.41 35.07 54.4 35.04 54.42"/><path class="cls-3" d="m35.15,54.14l-.02-.02s-.04,0-.03,0c.02,0,.02.02.05.01Z"/><path class="cls-3" d="m34.96,54.19s.03,0,.05,0h-.08s.03,0,.03,0Z"/><path class="cls-3" d="m34.95,54.13s-.06-.04-.06,0c.02,0,.04.03.06,0Z"/><polygon class="cls-3" points="35.08 53.82 35.08 53.82 35.22 53.83 35.08 53.82"/><path class="cls-3" d="m34.78,53.51s.08.01.04.03c.03,0,.03-.02.06,0-.03-.02-.01-.02-.1-.03Z"/><path class="cls-3" d="m34.89,53.53s.01,0,.02,0h-.02Z"/><polygon class="cls-3" points="34.85 50.2 34.85 50.16 34.83 50.21 34.85 50.2"/><path class="cls-3" d="m34.76,50.25l.04-.08-.05.06s.02,0,.01.02Z"/><path class="cls-3" d="m34.74,52.54h.02s.02,0,.03-.01h-.05Z"/><polygon class="cls-3" points="34.8 52.34 34.8 52.34 34.88 52.33 34.8 52.34"/><path class="cls-3" d="m34.69,52.18s.02.01.01.02c-.02-.01.08-.03-.01-.02Z"/></g></g></g></g><path id="Nose" class="cls-6" d="m29.79,61.24c-.36.2-1.81.16-1.81.16,0,0-1.45.05-1.81-.16-.31-.18.58-1.08,1.41-1.48.25-.12.55-.12.8,0,.83.4,1.72,1.3,1.41,1.48Z"/></g><g id="Hair"><g><path id="Puff" d="m31.93,3.44S29.25-1.18,23.43.29c-5.09,1.29-4.8,4.84-4.8,4.84,0,0-4.62-1.89-7.19.64-3.64,3.57-1,9.22-1,9.22,0,0-2.64,1.29-2.63,4.77,0,6.61,7.1,6.98,7.1,6.98,0,0-2.71,3.65.22,6.57,3.66,3.66,11.47-4.4,11.47-4.4,0,0,19.04,8.15,14.9-2.14,0,0,7.6-.25,8.45-6.64s-4.77-7.9-4.77-7.9c0,0,1.17-6.47-2.85-9.18-4.85-3.27-10.41.39-10.41.39Z"/><g class="cls-1"><g><path class="cls-3" d="m43.87,11.78s.07,0,.08.01c-.02-.02-.1-.01-.08-.01Z"/><polygon class="cls-3" points="43.7 11.54 43.73 11.54 43.66 11.51 43.7 11.54"/><path class="cls-3" d="m43.7,11.32c-.13.02.02.08-.02.12h-.03s.1.02.1.02c-.02-.05-.08-.11-.05-.15Z"/><path class="cls-3" d="m43.98,11.19s-.04-.03-.02.03c0,0,.01,0,.01,0,0,0,0-.01,0-.02Z"/><path class="cls-3" d="m43.97,11.22s.04-.02,0,0h0Z"/><path class="cls-3" d="m43.95,11.11l.04.03s.04-.04.06-.02c-.02-.03-.05-.03-.1,0Z"/><path class="cls-3" d="m43.85,11.08l.02.02s.02,0-.02-.02Z"/><path class="cls-3" d="m43.91,11.13l-.04-.03s-.06,0,.01.02c-.04,0,0,0,.03.02Z"/><path class="cls-3" d="m43.89,11.15s-.04.04-.09,0c.02.06.11.05.09,0Z"/><path class="cls-3" d="m43.57,11.3l-.04.02.04.02s.03-.05,0-.04Z"/><path class="cls-3" d="m44.01,10.91s-.07.01-.11.01l.03.02s.04-.04.08-.04Z"/><path class="cls-3" d="m43.9,10.92l-.05-.03s.02.04.05.03Z"/><polygon class="cls-3" points="43.71 11.07 43.81 11.13 43.71 11.06 43.71 11.07"/><polygon class="cls-3" points="44.01 10.78 44.07 10.79 43.98 10.76 44.01 10.78"/><path class="cls-3" d="m44,10.69c.05.01.09-.02.12,0,0-.02-.05-.04-.09-.06.02.02.02.04-.02.07Z"/><path class="cls-3" d="m43.96,10.59s.04.02.06.03c-.01-.01-.03-.02-.06-.03Z"/><path class="cls-3" d="m43.87,10.83s.06,0,.08-.03l-.08.02h0Z"/><path class="cls-3" d="m43.87,10.82h0s0-.03,0-.03c0,0,0,.01,0,.03Z"/><path class="cls-3" d="m43.87,10.83h0s-.01,0,0,0Z"/><path class="cls-3" d="m43.78,10.98s-.09-.06-.15-.02c.05.01.09-.01.15.02Z"/><path class="cls-3" d="m43.77,10.85l-.02.04s.05,0,.07,0l-.05-.04Z"/><polygon class="cls-3" points="43.75 10.83 43.77 10.85 43.78 10.84 43.75 10.83"/><path class="cls-3" d="m43.89,10.65s-.04-.03-.04-.05c-.01.02-.02.04-.02.06.02,0,.07.01.06-.01Z"/><path class="cls-3" d="m43.87,10.73h0s0,0,0,0Z"/><polygon class="cls-3" points="43.85 10.41 43.83 10.41 43.85 10.41 43.85 10.41"/><path class="cls-3" d="m43.81,10.67s0,.03.03.03c0-.01-.01-.02-.01-.04-.01,0-.02,0-.01,0Z"/><path class="cls-3" d="m43.93,10.54s-.03.02-.04.03c.02,0,.06-.03.04-.03Z"/><path class="cls-3" d="m43.89,10.72h0s0,0,0,0Z"/><path class="cls-3" d="m43.89,10.72s-.03-.01-.05-.02c0,0,.01.02.03.03h.02Z"/><path class="cls-3" d="m43.36,10.36c.07,0,.14.04.06.08.05.03.28,0,.41-.03-.03,0-.06,0-.1-.03-.04.01-.09.08-.15.05-.04-.05.02-.04.06-.06-.09.02-.13-.06-.26-.04l.05.04s-.05-.01-.07,0Z"/><path class="cls-3" d="m43.83,10.48h0s.04-.02.09-.04c-.04-.02-.06-.03-.08-.03v.07s-.02,0-.02,0Z"/><path class="cls-3" d="m43.84,10.56c-.08,0-.11-.05-.19-.02,0,.04.06.03.1.05-.02-.07.04.02.09-.03.01.01.02.03.02.04,0-.01.02-.03.03-.04h0s0,0,0,0h0s-.02,0,0,0h0s-.03,0-.03,0c.02-.02.02,0,.03,0h.01s0,0,0,0l-.04-.07s0,.03,0,.07Z"/><path class="cls-3" d="m43.46,10.93h.02s-.02,0-.02,0Z"/><path class="cls-3" d="m43.51,10.9s.04,0,.03.03c-.02.01-.04,0-.06,0,.02,0,.06.03.09,0h-.01s.12-.07.13-.07c-.07,0-.12.02-.19.04Z"/><path class="cls-3" d="m43.65,10.73l-.04-.06-.07.03h.04s.03.02.06.03Z"/><polygon class="cls-3" points="43.88 10.4 43.96 10.4 43.85 10.37 43.88 10.4"/><polygon class="cls-3" points="43.87 10.32 43.94 10.32 43.9 10.3 43.87 10.32"/><path class="cls-3" d="m42.17,6.35h-.02s.02,0,.02,0Z"/><path class="cls-3" d="m42.21,6.46h.03s-.03,0-.03,0Z"/><path class="cls-3" d="m43.7,8.4c.06-.04.16-.08.08-.07l-.07.02s0,.03,0,.05Z"/><path class="cls-3" d="m42.96,7.23h-.02s.05.01.08,0h-.05Z"/><path class="cls-3" d="m42.65,7.31l.04-.05s-.03.03-.04.05Z"/><path class="cls-3" d="m41.78,5.85l-.07.03s.04,0,.07-.03Z"/><path class="cls-3" d="m43.8,9.53s.04-.04.04-.06c-.04.03-.11.06-.04.06Z"/><path class="cls-3" d="m42.92,6.03s-.03,0-.05,0c.02,0,.03,0,.05,0Z"/><path class="cls-3" d="m43.84,9.4h-.02s.03.04.02.06c.03-.02.05-.05,0-.06Z"/><path class="cls-3" d="m40.19,4.32h0s0,0,0,0Z"/><path class="cls-3" d="m39.81,3.34s.02,0,.03,0c0,0-.01,0-.03,0Z"/><path class="cls-3" d="m43.89,10.01s0,0,0,0h0Z"/><path class="cls-3" d="m43.59,10.1s-.02,0-.04,0c.02,0,.03,0,.04,0Z"/><path class="cls-3" d="m43.35,9.28h0s-.01,0,0,0Z"/><path class="cls-3" d="m43.86,10.03s.02-.01.02-.02c0,0-.01.01-.02.02Z"/><path class="cls-3" d="m43.89,10.03s0,.01,0,.01c.01,0,.02,0,0-.01Z"/><path class="cls-3" d="m43.89,9.98s0,.02,0,.03c0,0,.01,0,.01,0,0,0,0-.01,0-.02Z"/><path class="cls-3" d="m41.3,4.86h0s-.02,0,0,0Z"/><polygon class="cls-3" points="42.83 8.13 42.84 8.13 42.84 8.13 42.83 8.13"/><path class="cls-3" d="m42.76,8.09c.1,0,.09.02.07.04l.21-.06-.29.02Z"/><path class="cls-3" d="m42.01,6.12l-.04.07c-.12.02-.1-.03-.17.05.21-.12.09.11.31,0l-.03.05s-.01,0-.02,0c-.08.1.17-.05.17.02,0,.03-.03.06-.06.06l.08.02s-.04.03-.04.02l.05.06h0s.1,0,.13,0c-.02.03-.03,0-.05.02h.07c-.05.05-.12.05-.12.02-.2.14.07,0-.02.14l-.04-.02c-.11.08-.06.09-.12.16.04-.03.16-.17.23-.15-.01.02-.01.04.04.04-.08.03-.05.05-.03.07l-.11.04s.1,0,.15-.01c0,.04-.07.08-.14.11,0,.06.12-.09.16-.04-.02.06.03.07.12.1-.02.05-.07.02-.09.04h.1s-.03.01-.04.01c.04.01.11-.04.15-.01.12-.03-.14.14,0,.14-.03.02-.07.02-.11.03.11.03.08.03.22.05l-.06.07c.07-.06.18-.05.27-.03.04-.03.07-.05.08-.06l.08.04s-.05.02-.1.02h.03s-.1.05-.17.05l.06-.04c-.07,0-.15.01-.21.04.01,0,.03,0,.04.01-.02,0-.04,0-.05,0-.01,0,.01,0,.05,0l-.12.05h.05s-.05.09-.05.09c.14.02.33.02.41.1-.1,0-.15.03-.25.06.11-.06-.07-.06-.06-.11,0,.03-.06.04-.08.04l.13.05c-.09.02-.06.04-.09.07.17-.06.13.03.19.05-.06.02-.12.02-.11-.02-.12.08.22,0,.12.08,0,0,0-.02-.03-.01.06.01.03.08-.02.08h0c0,.06.04.2.19.18-.02,0-.18.03-.21.03l.52.02c-.13.01-.42.12-.51.07-.02.02-.03.04.02.07.02-.01.18-.06.19-.05-.13.07-.07.04-.18.12.02-.02.23-.04.23-.01-.03,0-.2.04-.22.03l.21.03s-.17.03-.22.05c.04-.01,0,.06.03.07l.04-.04c-.02.08.29.03.29.11-.04,0-.25.02-.27.06.1,0,.5,0,.59.06l-.06.02.07.04c-.16-.01-.49-.06-.62-.09-.04.03-.07.02-.06.06-.05.02-.09-.01-.09-.02l-.02.1c.12-.02.13.06.23.04l-.14-.09c.12-.02.35.01.33.09-.04.02-.21.01-.25.02.04,0,.09.06.06.07l-.07-.02s.16.04.06.1c0,.02-.15.07-.08.06.13-.04.55-.1.65-.09,0,0-.12.1-.18.13-.1.04-.26-.01-.35.02.03,0,.07,0,.09.01-.03.02-.1,0-.08.04.12,0,0,.08.1,0,.04.03-.02.04-.01.08.08-.02.27.01.31.05-.03,0-.07.01-.09.02,0,.08-.06.12-.05.19-.03,0-.06.05-.11.03.02,0,.06.01.07.04-.1.05-.02-.05-.14,0,.07,0,.1.05.15.08.11-.02.02-.07-.03-.1.15-.01.31.03.39.1.04.06-.1.03-.07.04-.02.11.27.08.16.18-.09.04-.19.01-.26.02-.04-.05.06-.08.05-.11l-.04.04s-.06-.04-.03-.06c-.08.04,0,.19-.08.28.03.01.07.04.1.02v-.03c.06-.03.09.05.13,0,.06.03.14.07.1.12h-.11s.06-.02.03-.04c.05.02-.14.08,0,.1l.07-.04c.06.03.17.08.14.12.11-.02-.01-.01.11-.05-.16.03,0-.12-.16-.07.14-.04.06-.06.18-.11-.04,0-.07.02-.05-.02-.01,0-.02,0-.03,0h0s0,0,0,0c0,0,0,0,0,0-.02,0-.03.02-.05.02-.08-.02-.08-.08-.13-.09.02-.02.04,0,.08,0l-.07-.03c.08,0,.13-.07.18-.02v-.05s.06-.07.02-.09c.02-.02-.09-.05-.03-.04l-.05-.07h.02c0-.08-.14-.15,0-.24-.02-.02-.05-.05-.03-.09h.07s.06-.12-.01-.13c.18-.05.02-.16.05-.23h-.09s-.03-.07-.07-.11h-.08c-.07-.02.04-.1.03-.17.03,0,.03.02,0,.03.17-.1-.15-.15-.03-.24-.03-.01-.02-.03,0-.04h0s0,0,0,0l.04-.03s-.03.02-.04.03c0-.01-.02-.03-.04-.05l.08-.02h0s-.04-.01-.1,0c-.02,0-.03-.01-.06-.02.13-.04-.06-.05.09-.09-.07,0-.07-.09-.22-.08.02,0,.03-.01.03,0,.01-.03.03-.05-.02-.06l.11-.03-.15-.02c.06-.04.09-.06.18-.05-.14-.05-.06-.05-.2-.08h.07s-.11-.05-.05-.07c.12-.08-.04-.24.05-.4-.19.08.07-.08-.08-.05.05-.02.07-.05.11-.04-.06-.05.05-.12-.1-.13.05-.02.07,0,.1-.02-.01,0-.05,0-.02-.02.03-.01.04,0,.07,0-.03-.06-.17-.03-.31,0,.05-.05.04-.07-.06-.06.04-.02.08-.06.11-.02,0-.02.02-.16-.09-.12.03-.02,0-.03-.02-.04-.01-.05,0-.06-.03-.11v.02c-.15.03-.06-.03-.09-.06h.01c.06-.13-.06-.03.01-.15l-.08.04c-.17.06.07-.12-.01-.14l-.04.04c-.07,0,.2-.17.2-.21.01-.01.03,0,.04,0,.07-.12-.11.03-.15-.01.05-.03.15-.05.14-.09.04-.04-.22-.03-.14-.13-.04.03-.07.06-.12.05-.03-.03.11-.18-.04-.15,0-.01.02-.02.03-.02-.05-.01-.1-.07-.18-.05.24-.17-.22-.1.01-.24l-.06-.08h.03c-.02-.08-.09-.06-.15-.05,0-.02.04-.03.05-.03,0-.11-.02-.11-.17-.1l.07-.06c-.05.01.04-.19-.1-.21,0,0,.02-.01.04-.01-.14-.02.05-.35-.23-.18h-.1c.04.08-.12.07-.14.14-.04-.01.02-.13.06-.11v.02c.13-.09-.03-.12.06-.19-.12-.12-.16-.32-.28-.44l-.08.11-.04-.04s.06-.09.08-.05c.04-.07-.09,0-.11.02-.02-.09.13-.09.11-.11l-.03-.02v.02c-.06.02-.1.06-.13.02,0-.04.04-.07.04-.08,0,0,0-.01-.01-.02l-.05-.06-.05.1c-.06.02-.05-.05-.1.06.08-.17-.16-.22-.15-.28-.08.03-.11,0-.15-.03,0,.03-.06.12-.09.08.15-.19,0-.13.05-.3-.03.11-.13-.05-.17.11-.02-.04.05-.08.05-.14-.13.02-.15-.16-.27-.19-.02.03-.02.08-.07.11l.02-.17s-.1.15-.09.03c0,.03-.02.07-.03.07-.15-.24-.46-.07-.6-.41.01.07,0,.07-.03.06.01.02-.02.07-.03.12l-.06-.14c-.05.11-.1-.02-.14.09h.03c-.07.11-.02.29-.06.45.08-.13.04.24.16.05,0,.04-.03.05-.03.09.04-.07.06-.07.09-.03v.02c.09.02.11.1.2.19l.02-.08s.01.05.02.07c.08-.11-.06-.04.02-.15-.04.17.16.08.1.26.03.02.03-.09.07-.08v.05s.02-.06.02-.06c.02.02,0,.09-.02.13,0,0-.02,0-.03,0,0,.07.09.02.09.05l-.02-.05c.11,0,.19.12.33.09l.02-.04c.11-.02.03.07.12.09h0s.07-.02.08,0c-.04.02-.02.1-.07.12.11-.01.07-.03.2-.11l-.03.06c.05-.04.07-.06.12-.05-.06.02-.04.1-.12.13-.02.16.2-.03.09.16.15-.11,0-.13.05-.14.02-.06.11-.08.12-.05.02.02-.11.21-.06.25,0,0-.01,0-.02,0-.01.05.08-.01.05.07.09-.07.03.03.13-.06l-.07-.02c.05,0,.19-.09.18,0-.02.02-.06.03-.09.04-.02.04.04,0,.03.05-.1.1-.08-.04-.18.01-.03.06.12-.02,0,.08.16-.12.03.07.17,0l-.06.06s.05-.02.06,0l-.1.06c.1-.04,0,.11.05.1-.05-.06.06-.08.08-.15.15,0-.12.19-.02.24-.02,0,0-.07.05-.08,0,.03,0,.07-.03.11.06.04.06-.07.12-.08-.06.09.06,0,.1,0l-.07.06c0,.1.15-.1.15,0l-.11.05h.05s-.08.07-.08.07c.08-.01.08,0,.08.06.04-.04.13-.09.15-.06-.02.05-.07.04-.03.07-.05.02-.11.05-.06-.01l-.07.04c-.03.06.03.06.04.07,0,0,0-.02,0-.03h.14s-.05.03-.07.03c.02,0,.05,0,.07,0-.06.04-.12.08-.16.07h.1s-.05.09-.07.1c-.01.05.17,0,.15.07.01,0,.03,0,.04,0,.01.05-.04.13.08.13l-.09.09s.11-.12.19-.08c.06.03-.08.07-.1.11.07,0,.2-.03.14.06-.03,0-.02-.02-.03-.03Zm.31.48s-.08,0-.04-.03c.09-.03.06,0,.04.03Zm.5.76s-.02-.02,0-.04c0,0,.01.02,0,.04Zm.99,2.47h0s.02-.02,0,0Zm-.03.06s.02,0,.04,0c-.02,0-.02-.02-.02-.03-.02,0-.04.01-.02.03Zm-2.21-5.57v.02s-.02-.01,0-.02Z"/><path class="cls-3" d="m42.68,7.3l.04-.02s-.03,0-.04.02Z"/><polygon class="cls-3" points="41.79 5.85 41.79 5.85 41.78 5.85 41.79 5.85"/><path class="cls-3" d="m42.99,9.1s.03-.02.04-.03c-.02,0-.04,0-.04.03Z"/><path class="cls-3" d="m43.94,10.18l-.02-.03s-.01.02-.03.03c.02,0,.05,0,.05,0Z"/><path class="cls-3" d="m43.42,10.5s0,.01.01.02h.04s-.04-.04-.05-.02Z"/><path class="cls-3" d="m43.66,10.22c-.07,0-.05.03-.03.05h0c.1,0,.07-.03.03-.05Z"/><path class="cls-3" d="m43.63,10.28s0,.02,0,.02c.04,0,0,0,0-.02Z"/><path class="cls-3" d="m43.83,9.96s.09,0,.06.01c.09,0-.11-.07-.06-.01Z"/><polygon class="cls-3" points="43.42 10.25 43.51 10.24 43.44 10.23 43.42 10.25"/><path class="cls-3" d="m43.48,10.05l-.02.04s.02,0,.03,0c0-.02.02-.05,0-.05Z"/><path class="cls-3" d="m43.48,10.1s0,.02.02.03c0,0,0-.02-.02-.03Z"/><polygon class="cls-3" points="43.39 10.2 43.41 10.19 43.41 10.16 43.39 10.2"/><path class="cls-3" d="m43.47,9.63l-.03-.04s-.05.01-.04.03c.02,0,.03.02.06.02Z"/><path class="cls-3" d="m43.23,9.77s.04-.01.07-.02h-.11s.04.02.04.02Z"/><path class="cls-3" d="m43.2,9.65s-.09-.05-.08,0c.03,0,.06.04.08,0Z"/><polygon class="cls-3" points="43.28 9 43.29 9.01 43.46 8.99 43.28 9"/><path class="cls-3" d="m42.78,8.51c-.04.05.11,0,.07.05.04,0,.04-.04.08-.04-.05-.02-.03-.04-.14,0Z"/><path class="cls-3" d="m42.92,8.52s.02,0,.03.01c-.01,0-.02,0-.03-.01Z"/><polygon class="cls-3" points="39.71 3.21 39.68 3.16 39.69 3.23 39.71 3.21"/><path class="cls-3" d="m39.61,3.32l.02-.11-.04.1s.03,0,.03.02Z"/><path class="cls-3" d="m42.14,6.77h.03s.02-.03.02-.05l-.05.05Z"/><polygon class="cls-3" points="42.05 6.37 42.05 6.38 42.14 6.32 42.05 6.37"/><path class="cls-3" d="m41.77,6.15s.03.02.03.03c-.03-.02.08-.1-.03-.03Z"/></g></g></g><g><path d="m51.29,46.34v.06s-18.21,2.14-22.82-16.76c-4.63,18.88-23.36,15.96-23.36,15.96,0-.14,0-.28,0-.42,0-.06,0-.12,0-.17,0-.17.01-.33.02-.5,0-.05,0-.09,0-.14,0-.14.02-.27.03-.41,0-.06,0-.12.01-.18.01-.16.03-.32.04-.48.02-.19.04-.37.06-.56.02-.19.05-.37.08-.56.03-.18.06-.37.09-.55,0,0,0,0,0,0,.06-.37.14-.73.22-1.09.04-.17.08-.35.12-.52,0-.02,0-.03.01-.05.04-.17.09-.33.13-.5,0,0,0,0,0-.01.04-.15.08-.29.13-.44.02-.06.03-.11.05-.17.04-.13.08-.26.13-.39,0-.02.01-.05.02-.07.05-.15.1-.31.15-.46,0-.01,0-.02.01-.03.05-.14.1-.28.15-.42.03-.07.05-.14.08-.2,0-.01,0-.02.01-.04.08-.21.17-.42.26-.63.05-.11.09-.22.14-.32.1-.21.19-.43.29-.64.25-.53.53-1.04.82-1.55.17-.28.33-.57.51-.84.09-.14.18-.28.27-.41.09-.14.18-.27.28-.41.15-.21.3-.42.45-.63.15-.21.31-.41.47-.61.1-.13.2-.25.31-.38,0,0,0-.01.01-.02,0-.01.02-.02.02-.03.05-.06.1-.12.16-.18.05-.06.1-.12.16-.18.11-.13.23-.26.34-.38.23-.25.47-.5.71-.74.15-.15.29-.29.45-.43.03-.03.07-.07.1-.1.06-.06.11-.11.17-.16.05-.04.09-.09.14-.13.05-.05.1-.09.15-.14.45-.4.91-.77,1.39-1.14.16-.12.31-.23.47-.35,0,0,0,0,.01,0,0,0,0,0,.01,0,.1-.07.21-.15.31-.22.12-.09.25-.17.38-.26.19-.12.37-.24.56-.36,0,0,0,0,0,0,.6-.37,1.23-.72,1.86-1.04.64-.32,1.3-.61,1.97-.87.17-.06.34-.13.51-.19.17-.06.34-.12.51-.18.17-.06.34-.11.51-.16,0,0,.02,0,.02,0,.17-.05.34-.1.51-.15.35-.1.7-.19,1.06-.27s.72-.15,1.08-.22c.18-.03.36-.06.55-.09.18-.03.37-.06.55-.08.17-.02.34-.04.5-.06.02,0,.04,0,.05,0,.55-.06,1.11-.1,1.67-.12h.02c.19,0,.38-.01.57-.01h0c.07,0,.13,0,.2,0,.1,0,.19,0,.29,0,0,0,0,.02,0,.02,0,0,0-.02,0-.02,2.48.03,4.86.45,7.09,1.21,7.87,2.66,13.83,9.46,15.31,17.8.1.58.18,1.17.24,1.75,0,.04,0,.07.01.11.07.72.1,1.44.1,2.18h0c0,.07.02.33.06.75Z"/><g class="cls-1"><g><path class="cls-3" d="m49.82,44.23s.07,0,.08,0c-.02-.02-.1,0-.08,0Z"/><polygon class="cls-3" points="49.65 43.99 49.68 43.99 49.6 43.96 49.65 43.99"/><path class="cls-3" d="m49.64,43.76c-.13.03.02.08-.02.13h-.03s.1.02.1.02c-.02-.05-.09-.11-.05-.15Z"/><path class="cls-3" d="m49.91,43.62s-.04-.02-.01.03c0,0,.01,0,.01,0,0,0,0-.01,0-.02Z"/><path class="cls-3" d="m49.91,43.65s.04-.02,0,0h0Z"/><path class="cls-3" d="m49.87,43.54l.05.03s.03-.04.06-.03c-.03-.03-.05-.02-.1,0Z"/><path class="cls-3" d="m49.78,43.51l.02.02s.02,0-.02-.02Z"/><path class="cls-3" d="m49.84,43.56l-.04-.03s-.06,0,.02.02c-.04,0,0,0,.03.02Z"/><path class="cls-3" d="m49.82,43.58s-.04.04-.09.01c.02.06.11.05.09-.01Z"/><path class="cls-3" d="m49.51,43.75l-.04.03.04.02s.03-.05,0-.04Z"/><path class="cls-3" d="m49.93,43.33s-.07.01-.11.02l.03.02s.03-.04.07-.04Z"/><path class="cls-3" d="m49.82,43.35l-.05-.03s.02.04.05.03Z"/><polygon class="cls-3" points="49.64 43.51 49.74 43.56 49.64 43.5 49.64 43.51"/><polygon class="cls-3" points="49.92 43.2 49.99 43.21 49.89 43.18 49.92 43.2"/><path class="cls-3" d="m49.91,43.11c.05.01.09-.03.12-.01-.01-.02-.06-.04-.1-.06.02.02.02.04-.02.07Z"/><path class="cls-3" d="m49.87,43.01s.04.02.06.03c-.01,0-.03-.02-.06-.03Z"/><path class="cls-3" d="m49.78,43.26s.06-.01.08-.03l-.07.02h0Z"/><path class="cls-3" d="m49.78,43.24h0s0-.03,0-.03c0,0,0,.01,0,.03Z"/><path class="cls-3" d="m49.78,43.26h0s0,0,0,0Z"/><path class="cls-3" d="m49.7,43.42s-.09-.06-.15-.01c.05.01.09-.01.15.01Z"/><path class="cls-3" d="m49.69,43.28l-.02.04s.05-.01.07,0l-.06-.04Z"/><polygon class="cls-3" points="49.66 43.27 49.69 43.28 49.69 43.27 49.66 43.27"/><path class="cls-3" d="m49.8,43.08s-.04-.03-.05-.05c-.01.02-.02.05-.02.07.02,0,.07,0,.06-.01Z"/><path class="cls-3" d="m49.79,43.16h0s0,0,0,0Z"/><polygon class="cls-3" points="49.74 42.83 49.73 42.83 49.74 42.83 49.74 42.83"/><path class="cls-3" d="m49.72,43.1s0,.03.03.03c0-.01-.01-.02-.02-.04-.01,0-.02,0-.01,0Z"/><path class="cls-3" d="m49.83,42.96s-.03.02-.04.03c.02,0,.06-.03.04-.03Z"/><path class="cls-3" d="m49.8,43.15h0s0,0,0,0Z"/><path class="cls-3" d="m49.8,43.15s-.03-.01-.05-.02c0,0,.02.02.03.03h.02Z"/><path class="cls-3" d="m49.25,42.81c.07,0,.14.03.07.08.06.03.28,0,.41-.05-.03,0-.06,0-.1-.03-.04.02-.08.09-.15.06-.04-.05.02-.04.06-.07-.09.03-.13-.05-.26-.03l.05.04s-.05-.01-.07,0Z"/><path class="cls-3" d="m49.73,42.9h0s.04-.02.09-.05c-.04-.02-.06-.03-.09-.03v.08s-.02,0-.02,0Z"/><path class="cls-3" d="m49.74,42.99c-.08,0-.11-.04-.19-.01,0,.04.07.03.1.05-.02-.07.04.02.08-.04.01.01.02.03.02.04,0-.01.02-.03.03-.04h0s0,0,0,0h0s-.02,0,0,0h0s-.03,0-.03,0c.01-.02.02,0,.03,0h.01s0,0,0,0l-.05-.07s0,.04,0,.07Z"/><path class="cls-3" d="m49.38,43.37h.02s-.02,0-.02,0Z"/><path class="cls-3" d="m49.42,43.34s.04,0,.03.02c-.02.02-.04,0-.06,0,.02,0,.06.03.09,0h-.01s.12-.08.13-.07c-.07.01-.12.02-.18.05Z"/><path class="cls-3" d="m49.57,43.16l-.04-.06-.06.03h.04s.03.02.07.02Z"/><polygon class="cls-3" points="49.78 42.82 49.86 42.82 49.74 42.79 49.78 42.82"/><polygon class="cls-3" points="49.76 42.74 49.83 42.74 49.79 42.72 49.76 42.74"/><path class="cls-3" d="m48.15,38.61h-.02s.02,0,.02,0Z"/><path class="cls-3" d="m48.18,38.73h.03s-.03,0-.03,0Z"/><path class="cls-3" d="m49.53,40.82c.06-.04.16-.08.08-.07l-.07.02s.01.03,0,.05Z"/><path class="cls-3" d="m48.83,39.61h-.02s.05.01.08.01h-.05Z"/><path class="cls-3" d="m48.52,39.67l.04-.04s-.03.03-.04.04Z"/><path class="cls-3" d="m47.86,38h-.08s.04.01.08,0Z"/><path class="cls-3" d="m49.66,41.94s.04-.04.04-.06c-.04.03-.1.06-.04.06Z"/><path class="cls-3" d="m48.94,38.42s-.03,0-.05,0c.02,0,.03,0,.05,0Z"/><path class="cls-3" d="m49.69,41.82h-.02s.03.04.02.06c.03-.02.05-.05,0-.06Z"/><path class="cls-3" d="m46.8,35.85h0s0,0,0,0Z"/><path class="cls-3" d="m46.89,34.78s.02.01.04.02c0,0-.01-.01-.04-.02Z"/><path class="cls-3" d="m49.77,42.42s0,0,0,0h0Z"/><path class="cls-3" d="m49.47,42.53s-.02,0-.04,0c.02,0,.03,0,.04,0Z"/><path class="cls-3" d="m49.2,41.71h0s-.01,0,0,0Z"/><path class="cls-3" d="m49.74,42.45s.02-.01.02-.02c0,0-.01.01-.02.02Z"/><path class="cls-3" d="m49.77,42.44s0,.02,0,.02c.01,0,.02,0,0-.02Z"/><path class="cls-3" d="m49.76,42.4s0,.02,0,.03c0,0,.01,0,.01,0,0,0,0-.01,0-.02Z"/><path class="cls-3" d="m47.66,36.87h0s-.03,0,0,0Z"/><polygon class="cls-3" points="48.67 40.53 48.68 40.53 48.68 40.53 48.67 40.53"/><path class="cls-3" d="m48.6,40.48c.1,0,.09.02.07.05l.22-.06h-.29Z"/><path class="cls-3" d="m48.04,38.34l-.05.06c-.12,0-.1-.05-.18.01.23-.07.07.14.3.07l-.04.04s-.01,0-.01-.01c-.1.08.18-.02.16.06-.01.03-.04.05-.07.05l.07.03s-.04.02-.04,0l.04.07h0s.1,0,.13.01c-.03.03-.03,0-.05.01l.07.03c-.05.03-.12.02-.12-.01-.22.11.07.02-.04.14l-.04-.03c-.12.06-.07.08-.14.15.04-.02.18-.15.25-.12-.01.02-.02.04.04.05-.08.02-.06.04-.04.07l-.11.03s.1,0,.15.01c0,.04-.08.07-.15.1,0,.06.13-.08.16-.01-.03.06.02.08.11.12-.03.04-.07.01-.1.03h.1s-.03.02-.04.02c.04.02.11-.03.15,0,.12-.02-.16.13,0,.14-.03.02-.07.01-.11.02.11.05.08.04.21.07l-.06.07c.08-.05.18-.03.27-.01.04-.02.07-.04.08-.05l.07.05s-.06.01-.1.01h.03s-.1.04-.17.04l.06-.04c-.07,0-.15,0-.21.02.01,0,.03,0,.03.01-.02,0-.04,0-.05,0-.01,0,.01,0,.05,0l-.12.04h.05s-.06.09-.06.09c.14.03.33.04.4.13-.1,0-.15.03-.26.05.11-.05-.06-.06-.05-.12,0,.03-.06.03-.08.03l.12.07c-.09.02-.06.03-.09.06.17-.05.13.04.19.07-.06.01-.12.02-.11-.03-.12.07.22.02.11.09,0-.01,0-.02-.03-.02.06.01.03.08-.03.08h0c0,.06.04.2.19.19-.02,0-.18.02-.21.02l.52.04c-.13.01-.43.11-.51.06-.02.02-.03.04.02.07.02-.01.18-.06.19-.05-.14.07-.07.04-.18.12.02-.02.23-.04.23,0-.03,0-.2.04-.22.03l.21.03s-.17.02-.22.05c.04-.01,0,.06.03.07l.04-.04c-.02.08.29.03.29.11-.04,0-.25.02-.27.06.1,0,.5,0,.59.06l-.06.02.07.04c-.16-.01-.49-.06-.62-.08-.04.04-.07.02-.06.06-.05.02-.09-.01-.09-.02l-.02.1c.12-.02.13.06.23.04l-.14-.09c.12-.02.34.01.33.09-.04.02-.21.02-.25.02.04,0,.09.06.06.07l-.07-.02s.17.04.06.11c0,.02-.15.07-.07.06.13-.04.55-.11.65-.1,0,0-.12.11-.18.13-.1.04-.26,0-.35.03.03,0,.07,0,.09.01-.03.02-.1,0-.08.04.12,0,0,.08.1,0,.04.03-.02.04,0,.09.08-.02.27,0,.31.04-.03,0-.07.01-.09.02,0,.08-.05.13-.04.2-.03,0-.06.05-.11.04.02,0,.06.01.07.03-.1.05-.02-.05-.14,0,.07,0,.1.05.15.07.11-.02.01-.07-.04-.1.15-.02.31.02.39.09.04.06-.09.04-.07.04-.02.11.27.07.17.17-.09.05-.19.02-.26.04-.04-.04.05-.08.05-.11l-.04.05s-.06-.04-.03-.06c-.08.04,0,.19-.07.28.03.01.07.04.11.02l-.02-.03c.07-.03.11.04.14,0,.06.03.15.07.11.12l-.11.02s.06-.04.03-.05c.05.02-.14.09,0,.1l.07-.04c.06.03.18.07.15.12.11-.03-.01,0,.11-.05-.15.04,0-.12-.16-.06.14-.05.06-.06.18-.12-.04,0-.07.02-.05-.02-.01,0-.02,0-.03,0h0s0,0,0,0c0,0,0,0,0,0-.01.01-.03.02-.05.02-.08-.01-.09-.07-.13-.09.01-.02.04,0,.08-.01l-.07-.03c.08-.01.13-.07.18-.02v-.05s.05-.07.02-.1c.01-.02-.09-.05-.03-.04l-.06-.07h.02c0-.08-.15-.14-.02-.25-.02-.02-.05-.05-.03-.09l.07-.02s.06-.11-.02-.11c.18-.06.02-.16.05-.23h-.09s-.03-.07-.07-.11h-.08c-.07-.02.04-.1.02-.17.03,0,.03.02,0,.03.17-.11-.15-.15-.03-.24-.03-.01-.02-.03,0-.04h0s0,0,0,0l.04-.03s-.03.02-.04.03c0-.01-.02-.03-.04-.05l.08-.02h0s-.04-.01-.1,0c-.02,0-.03-.01-.06-.02.13-.04-.05-.05.09-.09-.07,0-.07-.09-.22-.08.02,0,.03-.01.03,0,.01-.03.03-.05-.02-.06l.11-.03-.15-.02c.06-.04.1-.06.18-.05-.14-.05-.06-.05-.19-.09h.07s-.11-.05-.05-.07c.12-.07-.03-.25.07-.4-.2.07.08-.08-.08-.05.05-.02.07-.04.12-.03-.06-.05.05-.11-.09-.13.05-.02.07,0,.1-.01-.01,0-.05-.01-.02-.02.03-.01.04,0,.07,0-.02-.06-.17-.04-.31-.01.06-.05.04-.06-.05-.07.04-.02.09-.05.11-.01,0-.02.03-.16-.08-.13.03-.01,0-.03-.01-.04,0-.05,0-.06-.02-.11v.02c-.15.01-.06-.03-.08-.07h.01c.07-.12-.06-.03.03-.15l-.08.03c-.18.04.08-.11,0-.14l-.04.03c-.07-.01.22-.15.23-.18.01-.01.03,0,.04,0,.08-.11-.11.02-.15-.03.06-.03.15-.03.15-.07.04-.03-.22-.06-.13-.14-.04.02-.08.05-.12.03-.03-.04.14-.16-.02-.15.01,0,.02-.01.03-.02-.05-.02-.09-.08-.17-.08.27-.12-.2-.15.06-.23l-.05-.09h.03c0-.07-.07-.07-.14-.07.01-.02.04-.02.05-.02.02-.11,0-.11-.15-.14l.08-.04c-.05,0,.08-.17-.05-.22,0,0,.03,0,.04,0-.13-.06.14-.32-.18-.23l-.1-.03c.01.09-.13.04-.17.1-.03-.02.05-.12.09-.09h-.01c.16-.04.01-.11.12-.15-.08-.15-.06-.35-.13-.5l-.11.08-.02-.05s.08-.06.1-.03c.06-.05-.09-.03-.11-.02,0-.09.15-.04.14-.07l-.02-.03h-.01c-.06.01-.11.04-.13,0,0-.04.06-.05.06-.07,0,0,.01-.01,0-.02l-.02-.07-.08.08c-.06,0-.03-.06-.11.02.13-.13-.08-.26-.05-.31-.09,0-.11-.04-.13-.09-.01.02-.1.09-.12.05.21-.12.04-.13.17-.25-.08.09-.09-.09-.2.04,0-.04.07-.05.11-.1-.13-.02-.05-.2-.14-.28-.03.02-.06.06-.11.06l.1-.13s-.16.08-.09-.01c-.02.02-.05.05-.06.04,0-.28-.34-.3-.39-.7,0,.07-.03.06-.05.05,0,.02-.05.06-.07.1,0-.05-.02-.11-.03-.16-.08.09-.12-.06-.18.04h.04c-.1.1-.08.29-.18.43.12-.11-.05.23.12.09-.01.03-.04.04-.06.07.06-.05.08-.05.08,0h-.01c.08.06.05.14.07.25l.06-.06s-.01.05-.02.07c.12-.05-.03-.06.09-.12-.12.13.1.15-.05.28.02.03.07-.06.1-.03l-.04.04.06-.03s-.04.08-.08.1c0,0-.02,0-.03-.01-.03.06.07.07.06.09v-.05c.11.07.12.23.28.26l.03-.03c.11.03,0,.08.08.14h0s.07,0,.08.03c-.05,0-.05.09-.11.09.11.03.07,0,.23-.02l-.05.05c.06-.01.09-.03.13,0-.07,0-.07.08-.16.08-.08.15.2.05.04.19.18-.05.05-.12.09-.12.04-.05.14-.04.14,0,.01.03-.18.16-.14.22,0,0-.02,0-.02,0-.03.05.08.02.03.09.11-.03.02.04.14-.02l-.06-.05c.05.02.21-.02.17.07-.03,0-.07,0-.09,0-.03.04.04.02.01.06-.13.06-.07-.06-.18-.05-.04.05.13.02-.02.07.19-.06.01.08.17.05l-.08.03s.06,0,.06.01l-.11.02c.1,0-.04.11.02.12-.04-.07.08-.06.12-.12.14.05-.17.15-.09.23-.02,0,.02-.07.07-.07,0,.03-.02.07-.06.1.05.06.07-.05.13-.04-.08.07.05.02.1.03l-.08.03c-.01.1.17-.05.14.05l-.12.02.05.02-.09.03c.09.01.07.03.06.08.05-.03.15-.05.16-.02-.04.04-.08.02-.05.06-.05,0-.12.02-.06-.03l-.08.02s.01.07.02.09c0,0,0-.02.01-.03l.14.03s-.05.02-.08.02c.01.01.06,0,.07.03-.07.02-.13.05-.18.03l.1.04s-.06.07-.09.07c-.02.05.16.05.13.12.01,0,.03,0,.04,0,0,.05-.06.13.05.15l-.11.07s.13-.1.2-.04c.06.04-.09.05-.12.08.07,0,.21.01.13.09-.03,0-.01-.03-.03-.04Zm.23.56s-.08-.01-.03-.04c.1-.01.06,0,.03.04Zm.42.85s-.02-.02,0-.04c0,0,0,.02,0,.04Zm.99,2.51h0s.02-.02,0,0Zm-.03.06s.02,0,.04,0c-.02,0-.02-.01-.02-.03-.02,0-.04.01-.02.03Zm-1.57-5.86v.02s-.03-.02,0-.02Z"/><path class="cls-3" d="m48.55,39.66l.04-.02s-.03,0-.04.02Z"/><polygon class="cls-3" points="47.87 38 47.88 38 47.86 38 47.87 38"/><path class="cls-3" d="m48.83,41.53s.03-.02.04-.03c-.02,0-.04,0-.04.03Z"/><path class="cls-3" d="m49.82,42.59l-.03-.03s-.01.02-.03.03c.02,0,.05-.01.05,0Z"/><path class="cls-3" d="m49.32,42.94s0,.01.01.02h.04s-.04-.04-.05-.02Z"/><path class="cls-3" d="m49.54,42.65c-.07,0-.05.03-.03.05h0c.1,0,.07-.03.03-.05Z"/><path class="cls-3" d="m49.52,42.71s0,.02,0,.02c.04,0,0-.01,0-.02Z"/><path class="cls-3" d="m49.71,42.37s.09,0,.06,0c.09,0-.12-.07-.06,0Z"/><polygon class="cls-3" points="49.31 42.69 49.4 42.67 49.32 42.66 49.31 42.69"/><path class="cls-3" d="m49.36,42.49l-.02.04s.02,0,.03,0c0-.02.02-.05-.01-.05Z"/><path class="cls-3" d="m49.37,42.54s0,.02.02.03c0,0,0-.02-.02-.03Z"/><polygon class="cls-3" points="49.28 42.64 49.3 42.62 49.3 42.59 49.28 42.64"/><path class="cls-3" d="m49.33,42.06l-.03-.04s-.05.01-.03.03c.02,0,.04.02.06.01Z"/><path class="cls-3" d="m49.1,42.21s.04-.02.07-.03h-.11s.04.03.04.03Z"/><path class="cls-3" d="m49.06,42.09s-.09-.05-.08,0c.03,0,.06.04.08,0Z"/><polygon class="cls-3" points="49.13 41.43 49.13 41.44 49.31 41.41 49.13 41.43"/><path class="cls-3" d="m48.61,40.93c-.03.06.11,0,.07.05.04,0,.04-.04.08-.04-.05-.02-.03-.04-.14-.01Z"/><path class="cls-3" d="m48.76,40.94s.02,0,.03.01c-.01,0-.02,0-.03-.01Z"/><polygon class="cls-3" points="46.8 34.61 46.77 34.56 46.77 34.63 46.8 34.61"/><path class="cls-3" d="m46.66,34.7l.04-.11-.07.08s.03,0,.03.02Z"/><path class="cls-3" d="m48.07,39.04h.03s.03-.03.03-.04l-.06.04Z"/><polygon class="cls-3" points="48.03 38.6 48.03 38.61 48.12 38.57 48.03 38.6"/><path class="cls-3" d="m47.79,38.3s.03.02.03.04c-.03-.02.09-.08-.03-.04Z"/></g></g></g></g></g></g></svg>