<?xml version="1.0" encoding="UTF-8"?><svg id="Layer_2" xmlns="http://www.w3.org/2000/svg" xmlns:xlink="http://www.w3.org/1999/xlink" viewBox="0 0 377.4 500"><defs><style>.cls-1{opacity:.2;}.cls-2{fill:url(#radial-gradient);}.cls-3{fill:#79522c;}.cls-4{fill:#926039;}.cls-5{fill:#754d2d;}</style><radialGradient id="radial-gradient" cx="188.7" cy="354.86" fx="188.7" fy="354.86" r="153.25" gradientUnits="userSpaceOnUse"><stop offset="0" stop-color="#b17f4a"/><stop offset=".95" stop-color="#926039"/></radialGradient></defs><g id="Layer_1-2"><g id="favicon"><g id="Head"><path class="cls-2" d="m343.02,435.66c-26.79,26.23-126.31,63.94-153.67,64.34h-.65c-27.35-.41-126.87-38.11-153.66-64.34-11.49-11.24-6.46-102.73-4.56-131.67v.18c43.24-5.63,113.43-10.19,156.33-94.45,46.68,84.88,117.28,89.74,161.13,95.28.06,1.18.1,2.37.12,3.56,0,.03,5.88,116.39-5.05,127.1Z"/><g id="Ears"><g id="Ears-2"><g id="Ear_left"><path class="cls-4" d="m376.76,375.78c-3.87,13.11-18.27,23.62-27.65,19.95v-.06l-.07-9.04-.22-25.28v-.47c0-.34.1-.67.26-1.02.96-2.01,4.42-4.05,5.95-5.32,2.31-1.92,4.67-4.16,10.41-2.84,5.99,1.38,14.33,13.82,11.32,24.07Z"/><path class="cls-5" d="m348.93,368.31s4.45-5.25,9.52-2.92c5.07,2.32,6.87,7.08,6.34,11.62-.53,4.54-4.84,8.21-7.77,8.98-3.64.95-7.98.63-7.98.63l-.11-18.31Z"/></g></g><g id="Ears-3"><g id="Ear_left-2"><path class="cls-4" d="m29.08,360.72c0-2.33-4.93-4.69-6.72-6.17-2.31-1.92-4.67-4.15-10.41-2.84-5.99,1.38-14.34,13.82-11.31,24.08,3.86,13.1,18.05,23.54,27.42,19.87l1.02-34.94Z"/><path class="cls-5" d="m28.86,368.43s-4.85-5.36-9.92-3.04c-5.07,2.32-6.87,7.08-6.34,11.62.53,4.54,4.84,8.21,7.77,8.98,3.64.95,7.95.63,7.95.63l.54-18.19Z"/></g></g></g><g id="Eyes"><g><ellipse id="Eye_right" cx="143.9" cy="357.88" rx="8.88" ry="34.55"/><g class="cls-1"><g><path class="cls-3" d="m148.77,361.52s.34.02.41.03c-.08-.07-.51-.03-.41-.03Z"/><polygon class="cls-3" points="147.92 360.77 148.08 360.78 147.7 360.66 147.92 360.77"/><path class="cls-3" d="m147.95,360.04c-.64.05.09.27-.14.39l-.15.02.51.07c-.08-.16-.41-.38-.23-.48Z"/><path class="cls-3" d="m149.35,359.71c-.25.01-.21-.09-.08.08.03,0,.04,0,.06-.01,0-.02,0-.04.02-.07Z"/><path class="cls-3" d="m149.33,359.78c.02.08.21-.04,0,0h0Z"/><path class="cls-3" d="m149.21,359.43l.22.11c.15-.01.19-.1.29-.06-.12-.11-.26-.1-.51-.05Z"/><path class="cls-3" d="m148.75,359.31l.09.06c.06,0,.08-.02-.09-.06Z"/><path class="cls-3" d="m149.03,359.49l-.19-.12c-.1,0-.31,0,.07.05-.19-.02,0,.01.12.07Z"/><path class="cls-3" d="m148.93,359.54c-.14.05-.23.12-.45,0,.08.2.53.19.45,0Z"/><path class="cls-3" d="m147.29,359.98l-.19.07.21.07c-.11-.04.18-.14-.02-.15Z"/><path class="cls-3" d="m149.58,358.82c-.14-.01-.36.01-.54,0l.15.08c.1-.03.19-.1.39-.09Z"/><path class="cls-3" d="m149.04,358.83l-.23-.13c-.03.1.08.12.23.13Z"/><polygon class="cls-3" points="148.04 359.25 148.52 359.46 148.03 359.21 148.04 359.25"/><polygon class="cls-3" points="149.62 358.39 149.93 358.48 149.46 358.33 149.62 358.39"/><path class="cls-3" d="m149.58,358.11c.26.07.45-.03.6.03-.04-.08-.26-.16-.46-.24.11.07.07.14-.15.21Z"/><path class="cls-3" d="m149.44,357.78c.06.04.17.08.29.12-.06-.04-.14-.08-.29-.12Z"/><path class="cls-3" d="m148.89,358.51c.08,0,.3,0,.39-.06l-.39.02v.04Z"/><path class="cls-3" d="m148.88,358.47h.01s.02-.08.03-.1c0,.01-.02.04-.04.1Z"/><path class="cls-3" d="m148.88,358.53h0s-.05,0,0,0Z"/><path class="cls-3" d="m148.4,358.97c-.21-.08-.43-.23-.77-.12.26.06.45,0,.77.12Z"/><path class="cls-3" d="m148.4,358.55l-.09.11c.1,0,.25,0,.35.03l-.26-.15Z"/><polygon class="cls-3" points="148.28 358.48 148.4 358.55 148.44 358.51 148.28 358.48"/><path class="cls-3" d="m149.07,357.96c-.16-.06-.17-.12-.19-.19-.08.06-.13.13-.13.2.12.02.33.06.32-.01Z"/><path class="cls-3" d="m148.94,358.2h-.02s-.04,0,.02,0Z"/><path class="cls-3" d="m148.92,357.14s-.05,0-.07,0h.07s0,0,0,0Z"/><path class="cls-3" d="m148.67,357.97c-.08.05.01.08.13.12-.04-.04-.06-.08-.06-.13-.05,0-.09-.01-.07,0Z"/><path class="cls-3" d="m149.28,357.59c-.08.02-.15.05-.22.07.12-.02.32-.06.22-.07Z"/><path class="cls-3" d="m149.03,358.18s.02,0,.02,0c.08-.01.04-.01-.02,0Z"/><path class="cls-3" d="m149.03,358.18c-.05-.03-.15-.06-.23-.08.03.03.07.07.12.09.03,0,.07,0,.11-.01Z"/><path class="cls-3" d="m146.48,356.75c.35.04.67.2.28.29.26.14,1.43.15,2.09.1-.15-.02-.3-.03-.5-.16-.2.03-.47.23-.79.11-.17-.17.14-.12.33-.18-.45.03-.63-.25-1.28-.27l.22.16c-.1,0-.26-.07-.35-.04Z"/><path class="cls-3" d="m148.8,357.36l.04.05c.07-.05.21-.08.49-.13-.17-.09-.3-.12-.42-.14l-.07.24-.05-.02Z"/><path class="cls-3" d="m148.83,357.64c-.38-.07-.54-.2-.96-.16.02.15.32.13.48.22-.08-.24.21.08.44-.07.06.05.08.09.09.13.05-.04.11-.07.18-.11h-.02s0,0,0,0h0s-.08,0-.05,0h0c-.05-.01-.1-.02-.14-.03.08-.06.1,0,.14.02h.06s0,0,0,0l-.19-.25c-.06.05-.05.11-.01.22Z"/><path class="cls-3" d="m146.81,358.68s.06,0,.09,0c-.05-.02-.08-.03-.09,0Z"/><path class="cls-3" d="m147.05,358.6c.05.02.21.04.16.1-.12.04-.19-.01-.31-.02.1.04.27.13.46.04l-.05-.02c.14-.09.63-.18.68-.16-.35,0-.6.01-.94.06Z"/><path class="cls-3" d="m147.84,358.1l-.18-.21-.34.08h.2c-.09.11.16.11.32.13Z"/><polygon class="cls-3" points="149.12 357.13 149.52 357.19 148.96 357.03 149.12 357.13"/><polygon class="cls-3" points="149.09 356.87 149.44 356.91 149.23 356.83 149.09 356.87"/><path class="cls-3" d="m145.65,342.29l-.1-.05s.07.04.1.05Z"/><path class="cls-3" d="m145.63,342.68h.18c-.1,0-.17-.02-.18,0Z"/><path class="cls-3" d="m149.6,350.59c.34-.06.86-.11.46-.13h-.39c.06.06.02.1-.07.13Z"/><path class="cls-3" d="m147.6,346.09s-.08.01-.12.02c.13.03.25.05.37.08-.08-.03-.16-.06-.25-.1Z"/><path class="cls-3" d="m145.99,345.94l.26-.1c-.09.02-.17.05-.26.1Z"/><path class="cls-3" d="m145.08,340.19l-.4-.03c.01.1.21.04.4.03Z"/><path class="cls-3" d="m149.17,354.26c.16-.06.23-.11.25-.16-.23.07-.57.11-.25.16Z"/><path class="cls-3" d="m149.78,342.34c-.07-.04-.15-.05-.24-.05.07.04.14.06.24.05Z"/><path class="cls-3" d="m149.44,353.89s-.06.02-.09.03c.06.06.11.12.08.18.17-.05.28-.11.02-.21Z"/><path class="cls-3" d="m143.73,332.84s.02-.02.03-.03c-.05.02-.05.03-.03.03Z"/><path class="cls-3" d="m145.69,328.66s.08.05.12.09c0-.04-.03-.07-.12-.09Z"/><path class="cls-3" d="m149.34,355.87c.02.06.04.01,0,0h0Z"/><path class="cls-3" d="m147.78,356s-.1-.03-.19-.04c.09.01.15.02.19.04Z"/><path class="cls-3" d="m147.07,353.13h0c-.08,0-.06,0,0,0Z"/><path class="cls-3" d="m149.16,355.93s.09-.04.12-.06c-.03,0-.07.03-.12.06Z"/><path class="cls-3" d="m149.34,355.94s-.03.03-.04.04c.06.01.11,0,.04-.04Z"/><path class="cls-3" d="m149.33,355.79s-.02.06-.05.08c.03,0,.05-.01.06,0,0-.02-.01-.04-.01-.08Z"/><path class="cls-3" d="m145.92,336.33s.02,0,.03-.02c-.17-.02-.14,0-.03.02Z"/><path class="cls-3" d="m145.68,348.84s.01,0,.02,0h.01s-.03,0-.03,0Z"/><path class="cls-3" d="m145.41,348.63c.48.12.41.16.31.22l1.13.03-1.43-.24Z"/><path class="cls-3" d="m145.49,341.4l-.34.15c-.58-.1-.39-.21-.88-.06,1.22-.08.15.43,1.37.38l-.25.09s-.06-.02-.05-.05c-.58.18.89.07.72.29-.09.08-.27.13-.41.09l.3.16s-.23.04-.21,0l.1.25h-.04c.19.03.49.11.62.15-.17.07-.13-.03-.28-.01l.3.14c-.32.06-.62-.06-.58-.15-1.22.14.31.11-.4.4l-.15-.13c-.69.08-.44.19-.88.33.23-.03,1.09-.29,1.39-.14-.09.04-.14.1.11.19-.43,0-.33.08-.31.18l-.57-.02c.16.11.46.11.71.18-.06.12-.5.14-.88.16-.09.19.72-.12.82.12-.22.16,0,.28.34.49-.2.11-.35-.03-.52,0l.45.12s-.15.01-.22,0c.17.09.57.03.72.17.63.06-.94.24-.22.44-.16.03-.35-.04-.57-.03.46.25.34.21.96.44l-.39.14c.44-.1.94.08,1.35.24.21-.03.39-.06.48-.08l.29.24c-.1.02-.29-.01-.53-.06.05.02.09.03.14.05-.22.07-.55,0-.86-.07.11-.02.24-.04.36-.06-.35-.07-.73-.14-1.06-.15.07.02.12.05.15.08-.09-.02-.18-.03-.24-.03-.06,0,.06.03.21.08h-.64s.25.04.25.04l-.42.26c.63.24,1.57.48,1.81.82-.46-.11-.76-.07-1.32-.11.59-.05-.23-.27-.1-.42-.07.08-.33.05-.42.02l.52.33c-.45-.04-.34.04-.54.1.9,0,.58.26.85.4-.3-.01-.61-.06-.52-.21-.69.11,1.04.28.45.4,0-.04.04-.05-.11-.08.26.1.03.29-.22.23v-.04c-.13.23-.06.73.69.82-.1,0-.92-.1-1.07-.13l2.53.63c-.65-.09-2.22-.07-2.57-.3-.1.05-.21.11,0,.25.1-.03.95-.02,1.01.04-.74.09-.4.07-1.03.2.14-.05,1.17.1,1.12.19-.15-.03-1.01-.08-1.12-.12l.99.31c-.18-.07-.85-.08-1.14-.05.2,0-.04.2.06.27l.24-.08c-.17.25,1.39.38,1.32.63-.21-.05-1.27-.19-1.41-.07.51.1,2.46.48,2.83.75l-.3.02.32.21c-.77-.18-2.37-.63-2.99-.85-.24.08-.35,0-.34.14-.28.03-.41-.12-.42-.16l-.21.32c.6.04.58.31,1.08.34l-.59-.42c.6.04,1.69.36,1.56.59-.24.04-1.07-.14-1.27-.15.2.05.37.26.23.27l-.31-.13c-.24.11.78.29.19.4-.04.05-.79.1-.43.14.69-.03,2.82.14,3.33.25-.05.02-.68.23-1.03.27-.55.04-1.27-.25-1.74-.22.16.02.36.09.43.11-.15.05-.51-.07-.44.06.61.08-.07.25.51.11.16.14-.14.12-.12.27.4-.01,1.33.25,1.49.39-.15-.02-.36-.01-.45,0-.08.25-.37.36-.39.6-.15,0-.34.11-.6.03.1.04.31.09.32.17-.54.09-.07-.17-.71-.12.35.04.47.23.68.36.55.02.13-.23-.09-.36.76.07,1.53.32,1.86.6.17.21-.5.04-.39.09-.16.36,1.29.43.72.69-.49.08-.96-.08-1.31-.08-.17-.18.33-.22.32-.33l-.24.11c-.16-.07-.27-.18-.12-.23-.44.06-.14.62-.56.87.16.06.32.17.51.14l-.06-.1c.4-.05.52.22.71.12.26.14.68.32.45.47h-.55c.16,0,.34-.1.17-.16.24.09-.76.2-.05.34l.39-.09c.27.14.84.34.65.48.55-.02-.06-.04.58-.09-.8.03.06-.38-.78-.3.74-.05.33-.16.97-.25-.18-.01-.35.02-.25-.1-.05-.01-.12-.03-.16-.04h.01s-.02,0-.02,0c-.03,0-.03,0,0,0-.08.02-.18.04-.28.04-.41-.1-.38-.3-.59-.38.09-.07.2.05.4.02l-.31-.13c.4.02.69-.14.91.06l.03-.16c.23-.07.33-.19.17-.29.09-.07-.43-.23-.12-.14l-.23-.27h.1c.07-.23-.62-.56.13-.78-.09-.09-.21-.19-.08-.32h.35c-.11-.11.38-.28.02-.36.95-.03.25-.5.43-.67l-.45-.05c.04-.13-.08-.26-.25-.44l-.4-.03c-.32-.17.32-.33.3-.55.15.03.11.08.01.11.93-.18-.61-.61.07-.79-.14-.07-.09-.11.02-.14,0,0,0,.01.02.02,0,0,0-.01,0-.02.07-.02.15-.04.22-.06-.1.02-.18.03-.22.05,0-.05-.05-.12-.14-.2h.43s0,0-.01,0c.16-.05-.2-.07-.53-.06-.07-.04-.15-.08-.25-.11.7,0-.22-.2.53-.21-.36-.08-.24-.37-1-.47.1,0,.15-.01.15.03.09-.07.19-.14-.02-.22h.55s-.72-.21-.72-.21c.34-.07.54-.1.95.03-.63-.29-.23-.22-.85-.47l.35.04c0-.07-.47-.23-.18-.25.69-.11.15-.81.81-1.19-1.05.01.48-.17-.33-.24.25,0,.39-.06.6.02-.23-.23.41-.31-.26-.5.25-.01.36.07.51.06-.05-.02-.21-.08-.06-.1.15-.01.21.04.31.09-.03-.23-.79-.3-1.5-.35.35-.09.3-.15-.16-.26.24-.03.48-.08.56.06.04-.08.37-.46-.2-.5.15-.02.05-.11-.02-.13.04-.17.09-.19.05-.36l-.1.04c-.69-.1-.15-.15-.23-.29h.07c.51-.29-.23-.14.35-.43h-.43c-.92-.05.55-.26.2-.45l-.25.06c-.32-.1,1.26-.25,1.38-.36.08-.02.13.04.19.07.55-.26-.56-.04-.69-.25.3-.03.77.06.83-.08.25-.07-.98-.4-.4-.59-.23.04-.47.08-.65,0-.09-.14.88-.4.14-.52.06-.02.13-.03.18-.03-.19-.11-.32-.35-.73-.4,1.48-.18-.76-.64.6-.73l-.1-.34h.14c.07-.22-.26-.26-.6-.3.09-.06.22-.03.29-.04.25-.33.19-.35-.52-.54l.44-.07c-.26-.04.65-.51.1-.76.05,0,.14,0,.2.01-.55-.27,1.13-.96-.49-.89l-.42-.17c-.09.3-.7.05-.96.2-.11-.1.45-.35.55-.22l-.08.03c.84-.06.25-.39.82-.46-.12-.56.25-1.2.18-1.76l-.63.18v-.19c.14-.08.49-.17.49-.02.35-.14-.35-.17-.49-.14.21-.32.77-.05.77-.13l-.07-.1-.07.04c-.28-.04-.56.01-.56-.15.11-.13.38-.14.4-.19.05,0,.06-.03,0-.07v-.26s-.49.21-.49.21c-.27-.05-.03-.23-.57.01.85-.37.1-.96.33-1.13-.4-.04-.44-.19-.45-.38-.09.08-.64.27-.62.11,1.16-.31.41-.43,1.19-.84-.5.3-.3-.4-1,.06.05-.16.42-.16.65-.36-.54-.14.01-.79-.3-1.12-.15.06-.34.22-.59.24l.62-.53c-.11-.04-.85.33-.43-.05-.11.08-.28.19-.34.17.17-.53-.18-.83-.46-1.14-.29-.32-.45-.62-.25-1.51-.14.31-.23.25-.31.18,0,.1-.3.25-.45.4.07-.23.11-.47.13-.72-.46.37-.39-.29-.79.13h.17c-.54.43-.8,1.27-1.42,1.88.3-.25.16.01.02.22-.13.22-.25.38.23.11-.11.14-.24.14-.38.28.31-.2.41-.19.34-.01l-.08.04c.25.2.03.54,0,.96l.35-.24c-.01.1-.12.18-.19.26.6-.24-.08-.21.58-.5-.7.53.27.51-.57,1.03.05.11.42-.26.47-.14l-.22.15.32-.12c-.02.1-.3.28-.5.38.02-.03-.08-.02-.11-.03-.24.22.22.2.14.28l.1-.17c.36.2.2.69.81.81l.18-.09c.44.12-.13.26.11.48h-.05c.21,0,.33.04.33.12-.25,0-.4.26-.67.25.46.14.34.03,1.11,0l-.31.13c.31-.02.46-.06.58.06-.31-.04-.46.22-.86.2-.62.47.83.25-.18.64.93-.08.44-.38.65-.35.28-.14.7-.05.63.07,0,.11-1.11.43-1.04.66,0-.02-.07-.01-.07-.04-.21.14.35.11,0,.29.56-.05,0,.15.7.02l-.21-.19c.21.08,1.05.04.7.34-.14,0-.34-.02-.45-.04-.19.1.16.09-.04.2-.7.11-.2-.24-.76-.27-.28.12.56.15-.21.23.98-.09-.08.25.69.28l-.42.07c.07.01.28.03.28.08h-.56c.49.06-.36.33-.09.41-.06-.26.5-.14.78-.31.62.24-1.07.37-.81.7-.07-.04.22-.22.43-.18-.08.08-.22.2-.44.27.12.23.43-.1.7-.04-.5.16.23.09.41.18l-.43.06c-.24.32.9-.05.61.26l-.61-.03.17.11-.49.04c.38.1.29.16.17.31.3-.07.78-.08.81.05-.25.12-.41,0-.33.17-.27,0-.62-.01-.23-.14-.14,0-.27,0-.41,0-.28.13-.04.24-.03.3.01-.03.03-.06.09-.08l.63.19c-.16.06-.29.04-.42.02.05.05.25.06.3.14-.35.02-.71.06-.89-.03l.42.21c-.15.03-.4.17-.54.15-.19.16.72.27.46.48.07,0,.14.02.19.05-.06.18-.48.38.02.54l-.62.18c.16.15.78-.24,1.04.02.22.18-.53.12-.7.21.33.07.98.16.48.36-.12-.04-.03-.09-.08-.14Zm.34,1.86c-.09-.04-.37-.11-.11-.14.5.04.26.08.11.14Zm.93,3.08c-.14-.04-.07-.08.1-.12.03.04.01.08-.1.12Zm2.29,8.91s-.01,0-.02,0c.18-.07.11-.05.02,0Zm-.2.17c.06.02.12.03.18.02-.11-.02-.11-.06-.08-.11-.11,0-.19.02-.1.08Zm-.18-20.25l-.1.06c-.14-.06-.02-.06.1-.06Z"/><path class="cls-3" d="m146.18,345.96c.07,0,.15,0,.24,0-.07-.02-.16-.02-.24,0Z"/><polygon class="cls-3" points="145.15 340.19 145.15 340.19 145.08 340.19 145.15 340.19"/><path class="cls-3" d="m145.43,352.24c.07-.03.15-.05.23-.05-.11-.01-.2,0-.23.05Z"/><path class="cls-3" d="m149.49,356.44l-.1-.13c.02.06-.08.07-.15.09.1,0,.25,0,.25.03Z"/><path class="cls-3" d="m146.74,357.24c.05.02,0,.04.06.06h.2c0-.06-.17-.13-.26-.06Z"/><path class="cls-3" d="m148.05,356.43c-.36-.02-.25.06-.19.15,0,0,0,0,0-.01.51.06.35-.04.18-.14Z"/><path class="cls-3" d="m147.87,356.6s.02.05,0,.08c.2.03.04-.03,0-.08Z"/><path class="cls-3" d="m149.06,355.67c-.1.03.46.06.31.07.46.08-.54-.31-.31-.07Z"/><polygon class="cls-3" points="146.84 356.4 147.3 356.41 146.94 356.33 146.84 356.4"/><path class="cls-3" d="m147.23,355.78l-.13.12c.08,0,.12.02.15.05.02-.08.12-.16-.02-.17Z"/><path class="cls-3" d="m147.24,355.94s0,.08.07.11c0-.02-.01-.07-.07-.11Z"/><polygon class="cls-3" points="146.72 356.21 146.82 356.18 146.86 356.09 146.72 356.21"/><path class="cls-3" d="m147.44,354.37l-.12-.16c-.15-.03-.25,0-.19.06.1.04.16.1.31.09Z"/><path class="cls-3" d="m146.17,354.7c.1-.03.2-.02.35-.03l-.56-.05.21.09Z"/><path class="cls-3" d="m146.08,354.26c-.15-.03-.42-.25-.41-.06.15.03.27.18.41.06Z"/><polygon class="cls-3" points="146.98 352.16 146.98 352.2 147.89 352.27 146.98 352.16"/><path class="cls-3" d="m144.96,350.06c-.23.15.56.09.27.22.21.06.23-.11.42-.05-.22-.12-.09-.16-.69-.17Z"/><path class="cls-3" d="m145.65,350.23s.08.04.13.06c-.05-.03-.1-.05-.13-.06Z"/><polygon class="cls-3" points="145.58 327.87 145.56 327.61 145.45 327.92 145.58 327.87"/><path class="cls-3" d="m144.89,328.2l.32-.49-.4.37s.13,0,.08.12Z"/><path class="cls-3" d="m144.64,343.54h.14c.15,0,.16-.03.19-.08l-.33.08Z"/><polygon class="cls-3" points="145.07 342.18 145.06 342.2 145.59 342.14 145.07 342.18"/><path class="cls-3" d="m144.34,341.15c-.02.05.11.1.09.15-.11-.1.57-.23-.09-.15Z"/></g></g></g><g><ellipse id="Eye_right-2" cx="233.5" cy="357.88" rx="8.88" ry="34.55"/><g class="cls-1"><g><path class="cls-3" d="m238.38,361.52s.34.02.41.03c-.08-.07-.51-.03-.41-.03Z"/><polygon class="cls-3" points="237.53 360.77 237.68 360.78 237.3 360.66 237.53 360.77"/><path class="cls-3" d="m237.56,360.04c-.64.05.09.27-.14.39l-.15.02.51.07c-.08-.16-.41-.38-.23-.48Z"/><path class="cls-3" d="m238.95,359.71c-.25.01-.21-.09-.08.08.03,0,.04,0,.06-.01,0-.02,0-.04.02-.07Z"/><path class="cls-3" d="m238.94,359.78c.02.08.21-.04,0,0h0Z"/><path class="cls-3" d="m238.81,359.43l.22.11c.15-.01.19-.1.29-.06-.12-.11-.26-.1-.51-.05Z"/><path class="cls-3" d="m238.35,359.31l.09.06c.06,0,.08-.02-.09-.06Z"/><path class="cls-3" d="m238.63,359.49l-.19-.12c-.1,0-.31,0,.07.05-.19-.02,0,.01.12.07Z"/><path class="cls-3" d="m238.53,359.54c-.14.05-.23.12-.45,0,.08.2.53.19.45,0Z"/><path class="cls-3" d="m236.89,359.98l-.19.07.21.07c-.11-.04.18-.14-.02-.15Z"/><path class="cls-3" d="m239.18,358.82c-.14-.01-.36.01-.54,0l.15.08c.1-.03.19-.1.39-.09Z"/><path class="cls-3" d="m238.64,358.83l-.23-.13c-.03.1.08.12.23.13Z"/><polygon class="cls-3" points="237.64 359.25 238.12 359.46 237.64 359.21 237.64 359.25"/><polygon class="cls-3" points="239.22 358.39 239.53 358.48 239.06 358.33 239.22 358.39"/><path class="cls-3" d="m239.19,358.11c.26.07.45-.03.6.03-.04-.08-.26-.16-.46-.24.11.07.07.14-.15.21Z"/><path class="cls-3" d="m239.05,357.78c.06.04.17.08.29.12-.06-.04-.14-.08-.29-.12Z"/><path class="cls-3" d="m238.49,358.51c.08,0,.3,0,.39-.06l-.39.02v.04Z"/><path class="cls-3" d="m238.49,358.47h.01s.02-.08.03-.1c0,.01-.02.04-.04.1Z"/><path class="cls-3" d="m238.49,358.53h0s-.05,0,0,0Z"/><path class="cls-3" d="m238,358.97c-.21-.08-.43-.23-.77-.12.26.06.45,0,.77.12Z"/><path class="cls-3" d="m238.01,358.55l-.09.11c.1,0,.25,0,.35.03l-.26-.15Z"/><polygon class="cls-3" points="237.89 358.48 238.01 358.55 238.04 358.51 237.89 358.48"/><path class="cls-3" d="m238.67,357.96c-.16-.06-.17-.12-.19-.19-.08.06-.13.13-.13.2.12.02.33.06.32-.01Z"/><path class="cls-3" d="m238.55,358.2h-.02s-.04,0,.02,0Z"/><path class="cls-3" d="m238.53,357.14s-.05,0-.07,0h.07s0,0,0,0Z"/><path class="cls-3" d="m238.28,357.97c-.08.05.01.08.13.12-.04-.04-.06-.08-.06-.13-.05,0-.09-.01-.07,0Z"/><path class="cls-3" d="m238.88,357.59c-.08.02-.15.05-.22.07.12-.02.32-.06.22-.07Z"/><path class="cls-3" d="m238.63,358.18s.02,0,.02,0c.08-.01.04-.01-.02,0Z"/><path class="cls-3" d="m238.63,358.18c-.05-.03-.15-.06-.23-.08.03.03.07.07.12.09.03,0,.07,0,.11-.01Z"/><path class="cls-3" d="m236.09,356.75c.35.04.67.2.28.29.26.14,1.43.15,2.09.1-.15-.02-.3-.03-.5-.16-.2.03-.47.23-.79.11-.17-.17.14-.12.33-.18-.45.03-.63-.25-1.28-.27l.22.16c-.1,0-.26-.07-.35-.04Z"/><path class="cls-3" d="m238.4,357.36l.04.05c.07-.05.21-.08.49-.13-.17-.09-.3-.12-.42-.14l-.07.24-.05-.02Z"/><path class="cls-3" d="m238.43,357.64c-.38-.07-.54-.2-.96-.16.02.15.32.13.48.22-.08-.24.21.08.44-.07.06.05.08.09.09.13.05-.04.11-.07.18-.11h-.02s0,0,0,0h0s-.08,0-.05,0h0c-.05-.01-.1-.02-.14-.03.08-.06.1,0,.14.02h.06s0,0,0,0l-.19-.25c-.06.05-.05.11-.01.22Z"/><path class="cls-3" d="m236.41,358.68s.06,0,.09,0c-.05-.02-.08-.03-.09,0Z"/><path class="cls-3" d="m236.65,358.6c.05.02.21.04.16.1-.12.04-.19-.01-.31-.02.1.04.27.13.46.04l-.05-.02c.14-.09.63-.18.68-.16-.35,0-.6.01-.94.06Z"/><path class="cls-3" d="m237.44,358.1l-.18-.21-.34.08h.2c-.09.11.16.11.32.13Z"/><polygon class="cls-3" points="238.72 357.13 239.13 357.19 238.56 357.03 238.72 357.13"/><polygon class="cls-3" points="238.69 356.87 239.05 356.91 238.84 356.83 238.69 356.87"/><path class="cls-3" d="m235.25,342.29l-.1-.05s.07.04.1.05Z"/><path class="cls-3" d="m235.23,342.68h.18c-.1,0-.17-.02-.18,0Z"/><path class="cls-3" d="m239.2,350.59c.34-.06.86-.11.46-.13h-.39c.06.06.02.1-.07.13Z"/><path class="cls-3" d="m237.2,346.09s-.08.01-.12.02c.13.03.25.05.37.08-.08-.03-.16-.06-.25-.1Z"/><path class="cls-3" d="m235.6,345.94l.26-.1c-.09.02-.17.05-.26.1Z"/><path class="cls-3" d="m234.68,340.19l-.4-.03c.01.1.21.04.4.03Z"/><path class="cls-3" d="m238.77,354.26c.16-.06.23-.11.25-.16-.23.07-.57.11-.25.16Z"/><path class="cls-3" d="m239.39,342.34c-.07-.04-.15-.05-.24-.05.07.04.14.06.24.05Z"/><path class="cls-3" d="m239.04,353.89s-.06.02-.09.03c.06.06.11.12.08.18.17-.05.28-.11.02-.21Z"/><path class="cls-3" d="m233.33,332.84s.02-.02.03-.03c-.05.02-.05.03-.03.03Z"/><path class="cls-3" d="m235.3,328.66s.08.05.12.09c0-.04-.03-.07-.12-.09Z"/><path class="cls-3" d="m238.94,355.87c.02.06.04.01,0,0h0Z"/><path class="cls-3" d="m237.39,356s-.1-.03-.19-.04c.09.01.15.02.19.04Z"/><path class="cls-3" d="m236.67,353.13h0c-.08,0-.06,0,0,0Z"/><path class="cls-3" d="m238.76,355.93s.09-.04.12-.06c-.03,0-.07.03-.12.06Z"/><path class="cls-3" d="m238.95,355.94s-.03.03-.04.04c.06.01.11,0,.04-.04Z"/><path class="cls-3" d="m238.93,355.79s-.02.06-.05.08c.03,0,.05-.01.06,0,0-.02-.01-.04-.01-.08Z"/><path class="cls-3" d="m235.53,336.33s.02,0,.03-.02c-.17-.02-.14,0-.03.02Z"/><path class="cls-3" d="m235.29,348.84s.01,0,.02,0h.01s-.03,0-.03,0Z"/><path class="cls-3" d="m235.01,348.63c.48.12.41.16.31.22l1.13.03-1.43-.24Z"/><path class="cls-3" d="m235.09,341.4l-.34.15c-.58-.1-.39-.21-.88-.06,1.22-.08.15.43,1.37.38l-.25.09s-.06-.02-.05-.05c-.58.18.89.07.72.29-.09.08-.27.13-.41.09l.3.16s-.23.04-.21,0l.1.25h-.04c.19.03.49.11.62.15-.17.07-.13-.03-.28-.01l.3.14c-.32.06-.62-.06-.58-.15-1.22.14.31.11-.4.4l-.15-.13c-.69.08-.44.19-.88.33.23-.03,1.09-.29,1.39-.14-.09.04-.14.1.11.19-.43,0-.33.08-.31.18l-.57-.02c.16.11.46.11.71.18-.06.12-.5.14-.88.16-.09.19.72-.12.82.12-.22.16,0,.28.34.49-.2.11-.35-.03-.52,0l.45.12s-.15.01-.22,0c.17.09.57.03.72.17.63.06-.94.24-.22.44-.16.03-.35-.04-.57-.03.46.25.34.21.96.44l-.39.14c.44-.1.94.08,1.35.24.21-.03.39-.06.48-.08l.29.24c-.1.02-.29-.01-.53-.06.05.02.09.03.14.05-.22.07-.55,0-.86-.07.11-.02.24-.04.36-.06-.35-.07-.73-.14-1.06-.15.07.02.12.05.15.08-.09-.02-.18-.03-.24-.03-.06,0,.06.03.21.08h-.64s.25.04.25.04l-.42.26c.63.24,1.57.48,1.81.82-.46-.11-.76-.07-1.32-.11.59-.05-.23-.27-.1-.42-.07.08-.33.05-.42.02l.52.33c-.45-.04-.34.04-.54.1.9,0,.58.26.85.4-.3-.01-.61-.06-.52-.21-.69.11,1.04.28.45.4,0-.04.04-.05-.11-.08.26.1.03.29-.22.23v-.04c-.13.23-.06.73.69.82-.1,0-.92-.1-1.07-.13l2.53.63c-.65-.09-2.22-.07-2.57-.3-.1.05-.21.11,0,.25.1-.03.95-.02,1.01.04-.74.09-.4.07-1.03.2.14-.05,1.17.1,1.12.19-.15-.03-1.01-.08-1.12-.12l.99.31c-.18-.07-.85-.08-1.14-.05.2,0-.04.2.06.27l.24-.08c-.17.25,1.39.38,1.32.63-.21-.05-1.27-.19-1.41-.07.51.1,2.46.48,2.83.75l-.3.02.32.21c-.77-.18-2.37-.63-2.99-.85-.24.08-.35,0-.34.14-.28.03-.41-.12-.42-.16l-.21.32c.6.04.58.31,1.08.34l-.59-.42c.6.04,1.69.36,1.56.59-.24.04-1.07-.14-1.27-.15.2.05.37.26.23.27l-.31-.13c-.24.11.78.29.19.4-.04.05-.79.1-.43.14.69-.03,2.82.14,3.33.25-.05.02-.68.23-1.03.27-.55.04-1.27-.25-1.74-.22.16.02.36.09.43.11-.15.05-.51-.07-.44.06.61.08-.07.25.51.11.16.14-.14.12-.12.27.4-.01,1.33.25,1.49.39-.15-.02-.36-.01-.45,0-.08.25-.37.36-.39.6-.15,0-.34.11-.6.03.1.04.31.09.32.17-.54.09-.07-.17-.71-.12.35.04.47.23.68.36.55.02.13-.23-.09-.36.76.07,1.53.32,1.86.6.17.21-.5.04-.39.09-.16.36,1.29.43.72.69-.49.08-.96-.08-1.31-.08-.17-.18.33-.22.32-.33l-.24.11c-.16-.07-.27-.18-.12-.23-.44.06-.14.62-.56.87.16.06.32.17.51.14l-.06-.1c.4-.05.52.22.71.12.26.14.68.32.45.47h-.55c.16,0,.34-.1.17-.16.24.09-.76.2-.05.34l.39-.09c.27.14.84.34.65.48.55-.02-.06-.04.58-.09-.8.03.06-.38-.78-.3.74-.05.33-.16.97-.25-.18-.01-.35.02-.25-.1-.05-.01-.12-.03-.16-.04h.01s-.02,0-.02,0c-.03,0-.03,0,0,0-.08.02-.18.04-.28.04-.41-.1-.38-.3-.59-.38.09-.07.2.05.4.02l-.31-.13c.4.02.69-.14.91.06l.03-.16c.23-.07.33-.19.17-.29.09-.07-.43-.23-.12-.14l-.23-.27h.1c.07-.23-.62-.56.13-.78-.09-.09-.21-.19-.08-.32h.35c-.11-.11.38-.28.02-.36.95-.03.25-.5.43-.67l-.45-.05c.04-.13-.08-.26-.25-.44l-.4-.03c-.32-.17.32-.33.3-.55.15.03.11.08.01.11.93-.18-.61-.61.07-.79-.14-.07-.09-.11.02-.14,0,0,0,.01.02.02,0,0,0-.01,0-.02.07-.02.15-.04.22-.06-.1.02-.18.03-.22.05,0-.05-.05-.12-.14-.2h.43s0,0-.01,0c.16-.05-.2-.07-.53-.06-.07-.04-.15-.08-.25-.11.7,0-.22-.2.53-.21-.36-.08-.24-.37-1-.47.1,0,.15-.01.15.03.09-.07.19-.14-.02-.22h.55s-.72-.21-.72-.21c.34-.07.54-.1.95.03-.63-.29-.23-.22-.85-.47l.35.04c0-.07-.47-.23-.18-.25.69-.11.15-.81.81-1.19-1.05.01.48-.17-.33-.24.25,0,.39-.06.6.02-.23-.23.41-.31-.26-.5.25-.01.36.07.51.06-.05-.02-.21-.08-.06-.1.15-.01.21.04.31.09-.03-.23-.79-.3-1.5-.35.35-.09.3-.15-.16-.26.24-.03.48-.08.56.06.04-.08.37-.46-.2-.5.15-.02.05-.11-.02-.13.04-.17.09-.19.05-.36l-.1.04c-.69-.1-.15-.15-.23-.29h.07c.51-.29-.23-.14.35-.43h-.43c-.92-.05.55-.26.2-.45l-.25.06c-.32-.1,1.26-.25,1.38-.36.08-.02.13.04.19.07.55-.26-.56-.04-.69-.25.3-.03.77.06.83-.08.25-.07-.98-.4-.4-.59-.23.04-.47.08-.65,0-.09-.14.88-.4.14-.52.06-.02.12-.03.18-.03-.19-.11-.32-.35-.73-.4,1.48-.18-.76-.64.6-.73l-.1-.34h.14c.07-.22-.26-.26-.6-.3.09-.06.22-.03.29-.04.25-.33.19-.35-.52-.54l.44-.07c-.26-.04.65-.51.1-.76.05,0,.14,0,.2.01-.55-.27,1.13-.96-.49-.89l-.42-.17c-.09.3-.7.05-.96.2-.11-.1.45-.35.55-.22l-.08.03c.85-.06.25-.39.82-.46-.12-.56.25-1.2.18-1.76l-.63.18v-.19c.14-.08.49-.17.49-.02.35-.14-.35-.17-.49-.14.21-.32.77-.05.77-.13l-.07-.1-.07.04c-.28-.04-.56.01-.56-.15.11-.13.38-.14.4-.19.05,0,.06-.03,0-.07v-.26s-.49.21-.49.21c-.27-.05-.03-.23-.57.01.85-.37.1-.96.33-1.13-.4-.04-.44-.19-.45-.38-.09.08-.64.27-.62.11,1.16-.31.41-.43,1.19-.84-.5.3-.3-.4-1,.06.05-.16.42-.16.65-.36-.54-.14.01-.79-.3-1.12-.15.06-.34.22-.59.24l.62-.53c-.11-.04-.85.33-.43-.05-.11.08-.28.19-.34.17.17-.53-.18-.83-.46-1.14-.29-.32-.45-.62-.25-1.51-.14.31-.23.25-.31.18,0,.1-.3.25-.45.4.07-.23.11-.47.13-.72-.46.37-.39-.29-.79.13h.17c-.54.43-.8,1.27-1.42,1.88.3-.25.16.01.02.22-.13.22-.25.38.23.11-.11.14-.24.14-.38.28.31-.2.41-.19.34-.01l-.08.04c.25.2.03.54,0,.96l.35-.24c-.01.1-.12.18-.19.26.6-.24-.08-.21.58-.5-.7.53.27.51-.57,1.03.05.11.42-.26.47-.14l-.22.15.32-.12c-.02.1-.3.28-.5.38.02-.03-.08-.02-.11-.03-.24.22.22.2.14.28l.1-.17c.36.2.2.69.81.81l.18-.09c.44.12-.13.26.11.48h-.05c.21,0,.33.04.33.12-.25,0-.4.26-.67.25.46.14.34.03,1.11,0l-.31.13c.31-.02.46-.06.58.06-.31-.04-.46.22-.86.2-.62.47.83.25-.18.64.93-.08.44-.38.65-.35.28-.14.7-.05.63.07,0,.11-1.11.43-1.04.66,0-.02-.07-.01-.07-.04-.21.14.35.11,0,.29.56-.05,0,.15.7.02l-.21-.19c.21.08,1.05.04.7.34-.14,0-.34-.02-.45-.04-.19.1.16.09-.04.2-.7.11-.2-.24-.76-.27-.28.12.56.15-.21.23.98-.09-.08.25.69.28l-.42.07c.07.01.28.03.28.08h-.56c.49.06-.36.33-.09.41-.06-.26.5-.14.78-.31.62.24-1.07.37-.81.7-.07-.04.22-.22.43-.18-.08.08-.22.2-.44.27.12.23.43-.1.7-.04-.5.16.23.09.41.18l-.43.06c-.24.32.9-.05.61.26l-.61-.03.17.11-.49.04c.38.1.29.16.17.31.3-.07.78-.08.81.05-.25.12-.41,0-.33.17-.27,0-.62-.01-.23-.14-.14,0-.27,0-.41,0-.28.13-.04.24-.03.3.01-.03.03-.06.09-.08l.63.19c-.16.06-.29.04-.42.02.05.05.25.06.3.14-.35.02-.71.06-.89-.03l.42.21c-.15.03-.4.17-.54.15-.19.16.72.27.46.48.07,0,.14.02.19.05-.06.18-.48.38.02.54l-.62.18c.16.15.78-.24,1.04.02.22.18-.53.12-.7.21.33.07.98.16.48.36-.12-.04-.03-.09-.08-.14Zm.34,1.86c-.09-.04-.37-.11-.11-.14.5.04.26.08.11.14Zm.93,3.08c-.14-.04-.07-.08.1-.12.03.04.01.08-.1.12Zm2.29,8.91s-.01,0-.02,0c.18-.07.11-.05.02,0Zm-.2.17c.06.02.12.03.18.02-.11-.02-.11-.06-.08-.11-.11,0-.19.02-.1.08Zm-.18-20.25l-.1.06c-.14-.06-.02-.06.1-.06Z"/><path class="cls-3" d="m235.78,345.96c.07,0,.15,0,.24,0-.07-.02-.16-.02-.24,0Z"/><polygon class="cls-3" points="234.75 340.19 234.76 340.19 234.68 340.19 234.75 340.19"/><path class="cls-3" d="m235.04,352.24c.07-.03.15-.05.23-.05-.11-.01-.2,0-.23.05Z"/><path class="cls-3" d="m239.09,356.44l-.1-.13c.02.06-.08.07-.15.09.1,0,.25,0,.25.03Z"/><path class="cls-3" d="m236.34,357.24c.05.02,0,.04.06.06h.2c0-.06-.17-.13-.26-.06Z"/><path class="cls-3" d="m237.65,356.43c-.36-.02-.25.06-.19.15,0,0,0,0,0-.01.51.06.35-.04.18-.14Z"/><path class="cls-3" d="m237.48,356.6s.02.05,0,.08c.2.03.04-.03,0-.08Z"/><path class="cls-3" d="m238.66,355.67c-.1.03.46.06.31.07.46.08-.54-.31-.31-.07Z"/><polygon class="cls-3" points="236.45 356.4 236.9 356.41 236.54 356.33 236.45 356.4"/><path class="cls-3" d="m236.83,355.78l-.13.12c.08,0,.12.02.15.05.02-.08.12-.16-.02-.17Z"/><path class="cls-3" d="m236.85,355.94s0,.08.07.11c0-.02-.01-.07-.07-.11Z"/><polygon class="cls-3" points="236.33 356.21 236.43 356.18 236.47 356.09 236.33 356.21"/><path class="cls-3" d="m237.04,354.37l-.12-.16c-.15-.03-.25,0-.19.06.1.04.16.1.31.09Z"/><path class="cls-3" d="m235.77,354.7c.1-.03.2-.02.35-.03l-.56-.05.21.09Z"/><path class="cls-3" d="m235.68,354.26c-.15-.03-.42-.25-.41-.06.15.03.27.18.41.06Z"/><polygon class="cls-3" points="236.58 352.16 236.58 352.2 237.49 352.27 236.58 352.16"/><path class="cls-3" d="m234.57,350.06c-.23.15.56.09.27.22.21.06.23-.11.42-.05-.22-.12-.09-.16-.69-.17Z"/><path class="cls-3" d="m235.26,350.23s.08.04.13.06c-.05-.03-.1-.05-.13-.06Z"/><polygon class="cls-3" points="235.18 327.87 235.16 327.61 235.06 327.92 235.18 327.87"/><path class="cls-3" d="m234.5,328.2l.32-.49-.4.37s.13,0,.08.12Z"/><path class="cls-3" d="m234.25,343.54h.14c.15,0,.16-.03.19-.08l-.33.08Z"/><polygon class="cls-3" points="234.68 342.18 234.67 342.2 235.19 342.14 234.68 342.18"/><path class="cls-3" d="m233.94,341.15c-.02.05.11.1.09.15-.11-.1.57-.23-.09-.15Z"/></g></g></g></g><path id="Nose" class="cls-5" d="m200.88,402.21c-2.43,1.37-12.18,1.05-12.18,1.05,0,0-9.76.31-12.19-1.05-2.08-1.18,3.91-7.25,9.48-9.96,1.71-.83,3.7-.83,5.41,0,5.57,2.71,11.57,8.78,9.48,9.96Z"/></g><g id="Hair"><path d="m347.96,304.99c-43.85-5.54-114.46-10.37-161.16-95.28-42.9,84.26-113.09,88.82-156.33,94.45,0-78.17,51.39-131.34,111.12-151.49,14.86-5.02,30.65-7.7,47.03-7.7s31,2.51,45.38,7.23c61.09,20.01,115.89,78.17,113.97,152.78Z"/><path id="Puff" d="m209.49,23.15S191.44-7.96,152.25,1.95c-34.34,8.69-32.37,32.62-32.37,32.62,0,0-31.12-12.71-48.44,4.32-24.51,24.09-6.76,62.13-6.76,62.13,0,0-17.77,8.69-17.75,32.12.03,44.53,47.87,47.01,47.87,47.01,0,0-18.24,24.58,1.48,44.31,24.66,24.67,86.6-30.97,86.6-30.97,0,0,119,56.25,91.1-13.07,0,0,51.19-1.71,56.97-44.74,6.01-44.77-32.12-53.25-32.12-53.25,0,0,7.88-43.6-19.21-61.87-32.66-22.02-70.13,2.61-70.13,2.61Z"/><g class="cls-1"><g><path class="cls-3" d="m289.45,68.87c-.04.1.46.06.55.08-.11-.16-.68-.07-.55-.08Z"/><polygon class="cls-3" points="288.31 67.25 288.51 67.28 288.01 67.04 288.31 67.25"/><path class="cls-3" d="m288.31,65.73c-.85.15.14.55-.16.82l-.19.05.69.12c-.11-.33-.57-.75-.33-.98Z"/><path class="cls-3" d="m290.15,64.91c-.33.05-.29-.17-.1.19.04-.02.06-.02.08-.04,0-.03,0-.08.02-.16Z"/><path class="cls-3" d="m290.13,65.06c.03.16.28-.11,0,0h0Z"/><path class="cls-3" d="m289.93,64.32l.3.21c.2-.05.24-.24.38-.17-.17-.22-.36-.17-.68-.04Z"/><path class="cls-3" d="m289.31,64.13l.13.11c.08-.02.11-.05-.13-.11Z"/><path class="cls-3" d="m289.7,64.47l-.27-.23c-.14.03-.41.04.1.11-.25-.02,0,.03.17.12Z"/><path class="cls-3" d="m289.57,64.6c-.18.12-.3.27-.6.07.12.4.72.34.6-.07Z"/><path class="cls-3" d="m287.42,65.66l-.25.16.29.13c-.14-.07.23-.31-.04-.29Z"/><path class="cls-3" d="m290.36,63c-.18-.01-.48.08-.72.1l.21.15c.12-.08.24-.24.51-.25Z"/><path class="cls-3" d="m289.64,63.09l-.32-.23c-.03.21.11.25.32.23Z"/><polygon class="cls-3" points="288.36 64.1 289.02 64.48 288.35 64.03 288.36 64.1"/><polygon class="cls-3" points="290.37 62.1 290.79 62.22 290.15 62 290.37 62.1"/><path class="cls-3" d="m290.28,61.5c.35.09.59-.15.8-.05-.07-.16-.37-.29-.64-.41.15.13.12.27-.16.46Z"/><path class="cls-3" d="m290.05,60.84c.08.06.24.13.4.2-.08-.07-.2-.14-.4-.2Z"/><path class="cls-3" d="m289.41,62.46c.11-.02.4-.06.52-.19l-.51.1s0,.06,0,.09Z"/><path class="cls-3" d="m289.4,62.37h.02c.01-.1.02-.17.02-.2,0,.03-.02.09-.04.2Z"/><path class="cls-3" d="m289.41,62.49v-.02s-.07.02,0,.02Z"/><path class="cls-3" d="m288.81,63.49c-.29-.13-.6-.41-1.03-.13.35.09.6-.07,1.03.13Z"/><path class="cls-3" d="m288.77,62.61l-.11.25c.14,0,.33-.05.47.01l-.36-.26Z"/><polygon class="cls-3" points="288.61 62.49 288.77 62.61 288.81 62.52 288.61 62.49"/><path class="cls-3" d="m289.58,61.28c-.22-.1-.25-.22-.28-.35-.1.14-.15.29-.14.43.16.02.45.07.43-.08Z"/><path class="cls-3" d="m289.45,61.81l-.03-.02s-.06.03.03.02Z"/><path class="cls-3" d="m289.26,59.61s-.06.02-.09.02h.09s0-.02,0-.02Z"/><path class="cls-3" d="m289.05,61.39c-.1.11.03.17.19.23-.05-.08-.09-.16-.09-.25-.07,0-.12,0-.09.03Z"/><path class="cls-3" d="m289.8,60.48c-.11.06-.19.12-.28.19.16-.06.41-.18.28-.19Z"/><path class="cls-3" d="m289.56,61.75s.02,0,.02.02c.11-.04.06-.03-.02-.02Z"/><path class="cls-3" d="m289.56,61.75c-.07-.05-.2-.09-.32-.14.04.06.1.12.17.17.04-.01.09-.03.14-.04Z"/><path class="cls-3" d="m285.96,59.32c.47,0,.92.27.42.52.36.23,1.92.03,2.78-.21-.21,0-.4,0-.69-.23-.26.09-.59.56-1.02.37-.25-.32.16-.27.41-.44-.59.15-.87-.38-1.74-.28l.31.27c-.13,0-.35-.09-.47,0Z"/><path class="cls-3" d="m289.13,60.11l.06.1c.08-.12.27-.21.63-.37-.24-.16-.41-.19-.57-.2l-.05.5-.07-.03Z"/><path class="cls-3" d="m289.21,60.67c-.52-.07-.74-.3-1.3-.14.04.29.44.2.66.37-.14-.48.29.13.58-.22.09.09.12.18.14.26.06-.09.14-.17.23-.25h-.03s0,.01,0,.01h0c-.06.02-.1.03-.07,0,0,0-.01,0-.01,0-.07,0-.13,0-.2-.02.1-.14.13-.03.2.02.03,0,.05,0,.08,0h0s-.3-.48-.3-.48c-.07.1-.05.23.02.46Z"/><path class="cls-3" d="m286.67,63.12s.08-.02.12-.02c-.06-.03-.11-.04-.12.02Z"/><path class="cls-3" d="m286.98,62.92c.07.03.28.06.23.17-.15.1-.25,0-.42.01.14.07.37.23.62.02l-.07-.03c.17-.19.82-.45.89-.42-.46.06-.79.12-1.25.25Z"/><path class="cls-3" d="m287.96,61.79l-.26-.39-.44.21.27-.02c-.1.23.23.17.44.2Z"/><polygon class="cls-3" points="289.51 59.56 290.06 59.6 289.28 59.39 289.51 59.56"/><polygon class="cls-3" points="289.43 59.04 289.91 59.04 289.62 58.91 289.43 59.04"/><path class="cls-3" d="m277.94,32.3l-.17-.03c.06.03.11.04.17.03Z"/><path class="cls-3" d="m278.27,33.02l.22-.09c-.13.02-.22.05-.22.09Z"/><path class="cls-3" d="m288.25,46.11c.41-.24,1.06-.55.54-.44l-.5.14c.11.11.07.21-.03.31Z"/><path class="cls-3" d="m283.26,38.19s-.09.06-.14.09c.18-.01.35-.02.51-.04-.11-.02-.24-.04-.37-.06Z"/><path class="cls-3" d="m281.18,38.72l.25-.3c-.1.08-.18.18-.25.3Z"/><path class="cls-3" d="m275.32,28.93l-.51.19c.11.16.28-.06.51-.19Z"/><path class="cls-3" d="m288.96,53.68c.19-.16.27-.29.28-.4-.28.2-.72.38-.28.4Z"/><path class="cls-3" d="m283,30.09c-.12-.03-.23,0-.33.05.11.03.22.02.33-.05Z"/><path class="cls-3" d="m289.21,52.85s-.07.06-.12.09c.1.1.17.21.15.34.21-.15.34-.32-.04-.43Z"/><path class="cls-3" d="m264.66,18.56s0-.04,0-.07c-.03.06-.02.07,0,.07Z"/><path class="cls-3" d="m262.08,11.98c.06-.02.14,0,.22.02-.03-.04-.09-.06-.22-.02Z"/><path class="cls-3" d="m289.57,56.92c.04.11.06.01,0,0h0Z"/><path class="cls-3" d="m287.55,57.55c-.06-.02-.13-.04-.25-.03.13,0,.21.02.25.03Z"/><path class="cls-3" d="m285.9,52.03h0c-.1.03-.08.02,0,0Z"/><path class="cls-3" d="m289.35,57.1c.06-.04.11-.1.15-.15-.04.02-.09.07-.15.15Z"/><path class="cls-3" d="m289.59,57.07s-.03.07-.05.1c.09.01.14,0,.05-.1Z"/><path class="cls-3" d="m289.54,56.77c.01.06-.01.12-.05.18.03-.02.06-.03.08-.03,0-.03-.02-.08-.03-.15Z"/><path class="cls-3" d="m272.11,22.24s.01-.03.02-.05c-.22.08-.17.09-.02.05Z"/><path class="cls-3" d="m282.43,44.26s.02,0,.03,0v-.02s-.03.01-.03.01Z"/><path class="cls-3" d="m281.98,43.97c.67.02.61.13.5.28l1.44-.42-1.94.14Z"/><path class="cls-3" d="m276.91,30.73l-.28.45c-.82.12-.69-.2-1.15.33,1.43-.78.62.75,2.06,0l-.22.31s-.1-.01-.11-.06c-.52.65,1.15-.34,1.14.15-.04.19-.21.39-.42.39l.51.11c.02.1-.25.21-.26.11l.34.39-.04.02c.26-.05.69-.07.88-.07-.15.22-.19.02-.35.13l.48.08c-.33.28-.8.25-.84.05-1.35.93.48.03-.16.95l-.29-.15c-.77.54-.39.58-.8,1.08.25-.18,1.09-1.13,1.58-1.02-.08.13-.09.25.28.27-.53.24-.33.32-.22.49l-.71.29c.29.1.64-.06,1.01-.08.03.25-.5.52-.94.76.02.4.79-.61,1.08-.24-.16.41.21.5.78.69-.17.3-.45.13-.63.28l.64-.03c0,.05-.18.1-.27.13.28.07.72-.25,1.01-.07.83-.22-.97.93.03.93-.18.15-.46.11-.73.23.74.23.55.22,1.48.32l-.38.46c.47-.4,1.22-.32,1.84-.22.24-.17.45-.31.54-.39l.52.3c-.11.09-.37.12-.7.15.07,0,.14.02.2.02-.23.23-.67.28-1.11.3.13-.09.27-.19.41-.29-.47.03-1,.09-1.42.25.09,0,.18.03.24.07-.13.01-.24.03-.31.06-.07.04.1.03.31.04l-.79.34.33-.08-.36.68c.93.13,2.26.12,2.76.66-.64,0-1,.23-1.72.41.72-.37-.46-.38-.39-.73-.03.19-.38.24-.51.24l.85.36c-.59.14-.41.24-.62.45,1.13-.42.88.22,1.29.36-.39.11-.8.16-.78-.15-.8.53,1.47.06.8.55-.03-.07.02-.12-.18-.1.39.08.21.54-.15.52l-.03-.07c-.02.48.29,1.39,1.31,1.25-.13.03-1.21.19-1.42.21,1.18.03,2.35.08,3.54.15-.87.1-2.86.78-3.42.5-.1.13-.21.29.13.47.11-.1,1.21-.43,1.3-.34-.91.47-.48.3-1.23.8.16-.15,1.54-.27,1.52-.08-.21,0-1.33.26-1.48.22l1.41.21c-.26-.07-1.13.18-1.48.34.25-.09.04.38.2.48l.27-.24c-.11.53,1.95.19,1.96.71-.28-.02-1.71.11-1.84.39.7,0,3.36.02,3.95.42l-.38.14.49.29c-1.06-.09-3.31-.39-4.2-.58-.28.23-.45.12-.37.4-.35.15-.58-.07-.61-.15l-.14.68c.8-.14.87.39,1.53.27l-.93-.6c.79-.15,2.33.09,2.25.59-.3.16-1.43.1-1.7.14.28.02.58.38.39.44l-.45-.14c-.27.3,1.11.29.39.7-.04.11-.99.44-.51.4.89-.28,3.71-.65,4.41-.61-.06.05-.8.69-1.24.87-.7.26-1.73-.09-2.33.13.22-.02.5.05.59.08-.18.13-.68.03-.56.26.82-.04-.02.51.7.05.26.22-.14.28-.08.56.52-.14,1.81.08,2.07.32-.21,0-.47.09-.59.12-.02.52-.38.82-.35,1.29-.19.06-.41.31-.77.24.15.06.43.1.46.24-.68.33-.13-.31-.96-.04.47-.02.68.32.99.51.73-.12.1-.49-.21-.67,1.01-.08,2.09.2,2.6.68.27.38-.64.22-.49.28-.13.76,1.8.53,1.11,1.2-.63.28-1.28.08-1.74.16-.26-.31.38-.52.34-.74l-.29.29c-.22-.09-.39-.29-.22-.42-.57.24-.03,1.26-.54,1.86.22.09.45.26.71.16l-.1-.18c.51-.19.73.31.96.07.38.23.96.48.68.84l-.73.1c.21-.02.43-.24.2-.33.33.13-.97.57,0,.69l.5-.26c.38.23,1.17.51.95.83.72-.17-.09-.07.76-.32-1.05.23.01-.79-1.08-.44.97-.27.4-.41,1.23-.74-.24.02-.46.13-.35-.14-.07,0-.16-.03-.22-.05l.02-.02-.03.02s-.04-.01,0,0c-.1.07-.23.12-.36.15-.56-.1-.56-.52-.86-.64.11-.16.28.05.53-.05l-.44-.19c.54-.05.87-.46,1.2-.11v-.33c.29-.21.4-.48.16-.64.11-.16-.62-.36-.19-.25l-.36-.49h.13c.04-.53-.97-.99-.04-1.65-.15-.16-.33-.32-.2-.62l.46-.1c-.18-.21.4-.71-.09-.76,1.22-.36.16-1.11.35-1.52l-.61.05c0-.27-.2-.51-.48-.81l-.53.08c-.47-.23.29-.78.18-1.22.21,0,.17.13.06.22,1.14-.71-1.04-1.01-.23-1.62-.21-.09-.16-.19-.04-.3,0,.01.01.02.03.03,0-.01,0-.03,0-.05.08-.07.18-.14.26-.21-.12.07-.22.14-.26.19-.03-.09-.11-.22-.27-.34l.56-.15s0-.02-.02-.03c.19-.17-.29-.07-.7.08-.1-.05-.23-.1-.37-.13.9-.26-.37-.31.58-.63-.49-.01-.48-.64-1.5-.52.13-.03.18-.08.21,0,.09-.17.17-.35-.13-.43l.71-.2-1.03-.14c.4-.29.63-.43,1.23-.33-.95-.32-.41-.33-1.33-.57l.47-.08c-.05-.14-.72-.24-.36-.42.82-.53-.26-1.65.34-2.71-1.31.52.5-.56-.56-.31.3-.14.45-.3.77-.24-.44-.35.31-.8-.65-.84.3-.14.49-.04.67-.14-.08-.02-.32-.06-.14-.16.18-.1.28-.01.44.01-.18-.43-1.17-.18-2.09.06.37-.35.28-.45-.37-.41.27-.17.54-.39.74-.16,0-.16.13-1.07-.6-.84.17-.11-.02-.23-.11-.24-.07-.35-.01-.4-.19-.71l-.09.13c-.91.18-.29-.2-.49-.43l.09-.03c.39-.84-.4-.14.08-1.01l-.52.24c-1.17.4.48-.79-.1-.96l-.25.25c-.46-.02,1.32-1.16,1.38-1.43.08-.08.19,0,.29.03.45-.8-.72.23-1.04-.07.34-.23.98-.33.94-.61.24-.27-1.52-.19-.98-.85-.25.21-.49.41-.79.35-.23-.2.71-1.22-.29-1.01.06-.07.13-.12.2-.16-.33-.08-.7-.44-1.23-.31,1.65-1.13-1.51-.7.09-1.59l-.42-.54.17-.08c-.11-.44-.58-.34-1.03-.23.05-.15.24-.18.32-.22-.03-.72-.13-.75-1.18-.68l.47-.37c-.35.07.26-1.29-.68-1.39.06-.03.16-.09.26-.1-.95-.15.31-2.37-1.57-1.23l-.7-.02c.24.56-.78.52-.91.93-.24-.09.14-.86.4-.72l-.06.1c.94-.63-.15-.82.45-1.3-.82-.83-1.11-2.13-1.9-2.93l-.52.71-.24-.3c.07-.22.38-.59.55-.37.24-.46-.62-.03-.76.11-.14-.63.85-.6.75-.72l-.21-.11-.03.11c-.38.13-.64.4-.86.14-.04-.27.28-.47.24-.55.04-.05.04-.09-.08-.1l-.33-.38-.31.65c-.39.12-.32-.32-.67.41.55-1.14-1.09-1.5-1.03-1.89-.55.22-.77.04-1.03-.23-.01.17-.43.83-.61.57,1.03-1.25-.06-.9.36-1.99-.23.76-.88-.34-1.16.77-.15-.25.31-.51.34-.94-.85.17-1-1.09-1.82-1.29-.11.18-.15.53-.44.72l.12-1.13c-.19.02-.67,1.01-.6.23-.04.18-.11.44-.23.46-.48-.77-1.3-.93-2.07-1.13-.79-.16-1.49-.48-2.01-1.61.1.45-.06.45-.22.42.08.12-.15.5-.21.78l-.43-.93c-.31.74-.71-.13-.95.59l.23-.08c-.46.8-.1,2.03-.44,3.13.54-.91.28,1.63,1.11.34.02.25-.19.33-.22.6.25-.44.41-.49.58-.19l-.06.11c.69.13.83.65,1.4,1.25l.17-.55c.12.14.09.32.1.48.51-.71-.41-.24.12-1.04-.25,1.16,1.1.51.67,1.76.23.11.22-.62.45-.51l-.09.35.26-.38c.12.15-.01.59-.14.86-.02-.05-.14.02-.19.02,0,.47.59.16.59.32l-.11-.31c.77.03,1.27.83,2.21.61l.1-.25c.72-.13.19.47.8.59l-.05.04c.25-.15.45-.17.56-.05-.3.17-.14.66-.49.83.76-.09.47-.17,1.37-.74l-.2.41c.35-.24.49-.4.8-.31-.43.15-.27.64-.8.88-.13,1.11,1.32-.18.62,1.08,1.01-.75.04-.87.33-.96.15-.4.77-.55.84-.33.14.15-.77,1.41-.39,1.71-.03-.04-.1.03-.13,0-.07.35.56-.08.37.45.6-.45.18.23.86-.43l-.47-.16c.35,0,1.29-.63,1.23.06-.16.11-.43.2-.59.24-.11.29.3.04.19.33-.69.65-.54-.24-1.23.1-.18.38.84-.14.03.51,1.05-.8.22.44,1.16-.03l-.42.38c.1-.03.37-.14.43-.06l-.65.4c.64-.26-.04.74.37.69-.36-.38.42-.56.57-1.01,1-.03-.83,1.3-.15,1.64-.12-.02,0-.5.31-.56,0,.18-.03.46-.2.72.41.27.39-.44.79-.52-.41.58.38-.01.69.01l-.44.38c.07.67,1.01-.66.99.03l-.75.34.32.07-.54.37c.55-.09.51.06.54.39.28-.3.85-.62,1.02-.44-.16.34-.49.26-.21.49-.34.16-.75.37-.42-.08-.16.1-.33.16-.49.27-.2.38.22.4.29.5-.01-.05-.02-.12.03-.19l.94-.07c-.13.19-.31.25-.48.3.11.05.37-.05.49.04-.4.24-.79.54-1.09.5l.7.08c-.15.15-.31.52-.49.57-.08.37,1.13,0,1.02.5.09-.04.18-.05.27-.03.09.34-.24.89.52.88l-.6.63c.33.16.74-.81,1.29-.54.42.18-.54.49-.68.72.45-.07,1.36-.22.93.41-.19-.02-.13-.15-.23-.21Zm2.08,3.23c-.14-.02-.54,0-.25-.19.64-.2.37,0,.25.19Zm3.37,5.12c-.2,0-.13-.11.05-.27.07.06.07.14-.05.27Zm6.67,16.64s-.02,0-.03,0c.21-.19.13-.12.03,0Zm-.23.39c.08.03.16.03.24,0-.15-.02-.16-.1-.13-.2-.15.04-.25.09-.11.19Zm-14.91-37.53l-.04.16c-.24.01-.11-.07.04-.16Z"/><path class="cls-3" d="m281.42,38.66c.09-.05.19-.09.29-.12-.1,0-.21.03-.29.12Z"/><path class="cls-3" d="m275.42,28.89s0,0,0-.01c-.03.01-.06.03-.09.05l.09-.03Z"/><path class="cls-3" d="m283.48,50.81c.08-.08.18-.14.28-.17-.14.01-.26.06-.28.17Z"/><path class="cls-3" d="m289.89,58.06l-.16-.24c.03.12-.09.16-.18.23.13-.01.33-.06.34.01Z"/><path class="cls-3" d="m286.38,60.25c.07.03,0,.07.08.11l.27-.02c-.02-.15-.24-.24-.35-.09Z"/><path class="cls-3" d="m287.98,58.36c-.48.04-.31.18-.22.34,0,0,0-.02,0-.03.68.02.45-.15.22-.31Z"/><path class="cls-3" d="m287.78,58.74c.02.05.04.1.02.15.27.01.05-.06-.02-.15Z"/><path class="cls-3" d="m289.16,56.58c-.12.09.62.02.43.07.62.06-.77-.5-.43-.07Z"/><polygon class="cls-3" points="286.38 58.56 286.98 58.47 286.49 58.4 286.38 58.56"/><path class="cls-3" d="m286.77,57.23l-.15.27c.1,0,.16.02.21.06.01-.16.12-.35-.05-.33Z"/><path class="cls-3" d="m286.82,57.56c0,.09,0,.17.11.21,0-.05-.03-.14-.11-.21Z"/><polygon class="cls-3" points="286.19 58.2 286.31 58.12 286.34 57.93 286.19 58.2"/><path class="cls-3" d="m286.72,54.37l-.19-.28c-.21-.01-.33.07-.24.17.15.06.24.16.43.1Z"/><path class="cls-3" d="m285.14,55.35c.12-.08.25-.1.45-.15l-.74.04.3.12Z"/><path class="cls-3" d="m284.91,54.53c-.21-.02-.62-.37-.55-.02.21.01.39.29.55.02Z"/><polygon class="cls-3" points="285.46 50.15 285.48 50.22 286.69 50.07 285.46 50.15"/><path class="cls-3" d="m282.07,46.83c-.24.37.75-.04.44.31.3.03.26-.29.52-.25-.33-.15-.18-.28-.95-.06Z"/><path class="cls-3" d="m283.02,46.9c.05.02.11.05.2.07-.08-.05-.15-.06-.2-.07Z"/><polygon class="cls-3" points="261.38 11.12 261.2 10.81 261.26 11.25 261.38 11.12"/><path class="cls-3" d="m260.72,11.88l.12-.77-.29.65c.06-.02.18-.06.18.12Z"/><path class="cls-3" d="m277.79,35.12l.18-.06c.17-.11.17-.16.16-.26l-.34.32Z"/><polygon class="cls-3" points="277.15 32.43 277.16 32.47 277.74 32.07 277.15 32.43"/><path class="cls-3" d="m275.27,30.9c.02.09.21.11.23.2-.21-.11.51-.68-.23-.2Z"/></g></g></g></g></g></svg>