<?xml version="1.0" encoding="UTF-8"?><svg id="Layer_2" xmlns="http://www.w3.org/2000/svg" xmlns:xlink="http://www.w3.org/1999/xlink" viewBox="0 0 56 56"><defs><style>.cls-1{opacity:.2;}.cls-2{fill:url(#radial-gradient);}.cls-3{fill:#79522c;}.cls-4{fill:none;}.cls-5{fill:#926039;}.cls-6{fill:#1d1d1b;}.cls-7{fill:#754d2d;}</style><radialGradient id="radial-gradient" cx="27.98" cy="35.88" fx="27.98" fy="44.86" r="17.78" gradientUnits="userSpaceOnUse"><stop offset="0" stop-color="#b17f4a"/><stop offset=".95" stop-color="#926039"/></radialGradient></defs><g id="Layer_1-2"><g id="logo_square"><rect class="cls-4" width="56" height="56"/><g id="ME_"><g id="Head"><path class="cls-2" d="m44.67,42.55c0,.32,0,.63-.01.94h0c-.03,1.58-.15,2.91-.4,3.6-.93,2.54-14.06,7.61-16.31,7.61-2.05,0-14.41-5.77-15.95-7.19-.49-.45-.67-2.04-.68-4.02,0-.31,0-.62,0-.94,0-.63.03-1.28.06-1.93h0c.01-.28.03-.56.04-.84h0c.2-3.38.58-6.57.58-6.57,0-.1,0-.2,0-.29,0-.04,0-.08,0-.12,0-.12,0-.23.01-.35,0-.03,0-.06,0-.1,0-.1.01-.19.02-.29,0-.04,0-.08,0-.13,0-.11.02-.23.03-.34.01-.13.03-.26.04-.39.02-.13.03-.26.05-.39.02-.13.04-.26.06-.39,0,0,0,0,0,0,.04-.26.09-.51.15-.76.03-.12.06-.24.09-.37,0-.01,0-.02,0-.03.03-.12.06-.23.09-.35,0,0,0,0,0,0,.03-.1.06-.21.09-.31.01-.04.02-.08.03-.12.03-.09.06-.19.09-.28,0-.02,0-.03.02-.05.03-.11.07-.21.11-.32,0,0,0-.02,0-.02.03-.1.07-.2.11-.29.02-.05.04-.09.05-.14,0,0,0-.02,0-.03.06-.15.12-.29.18-.44.03-.08.06-.15.1-.23.07-.15.13-.3.21-.45.23-.47.48-.93.75-1.38.06-.1.12-.2.18-.29.06-.1.12-.19.19-.29.06-.1.13-.19.19-.28.1-.15.21-.29.32-.44.17-.24.36-.47.55-.69,0,0,0,0,0-.01,0,0,.01-.01.02-.02.04-.04.07-.09.11-.13.04-.04.07-.08.11-.13.08-.09.16-.18.24-.27.16-.18.33-.35.5-.52.1-.1.21-.2.31-.3.02-.02.05-.05.07-.07.07-.07.14-.14.22-.2.04-.03.07-.06.11-.1.31-.28.64-.54.97-.8.11-.08.22-.16.33-.24,0,0,0,0,0,0,0,0,0,0,0,0,.07-.05.15-.1.22-.15.09-.06.18-.12.26-.18.13-.09.26-.17.39-.25,0,0,0,0,0,0,.42-.26.86-.5,1.3-.73.45-.22.91-.43,1.38-.61.12-.04.24-.09.35-.13.12-.04.24-.08.36-.12.12-.04.24-.08.35-.11,0,0,.01,0,.01,0,.12-.04.24-.07.36-.1.24-.07.49-.13.74-.19.25-.06.5-.11.75-.15.13-.02.25-.04.38-.06.13-.02.26-.04.38-.05.12-.02.24-.03.35-.04.01,0,.02,0,.04,0,.39-.04.78-.07,1.17-.08h.01c.13,0,.26,0,.4,0h0s.09,0,.14,0c.07,0,.14,0,.2,0h0c1.73.02,3.4.32,4.96.85,5.51,1.86,9.68,6.62,10.71,12.46.07.39.12.79.17,1.19,0,.01,0,.03,0,.04.05.53.08,1.06.08,1.6h0c0,.05.02.25.04.56.08,1.08.25,3.54.33,6.1,0,.02,0,.03,0,.05,0,.24.01.48.02.71.01.65.02,1.29.02,1.91Z"/><path class="cls-6" d="m28.34,17.08s0,.01,0,.02c0,0,0-.01,0-.02h0Z"/><path class="cls-6" d="m44.18,31.69s0-.05,0-.08c-.04-.41-.1-.82-.17-1.23,0-.05-.01-.09-.02-.14.08.44.15.88.19,1.33,0,.04,0,.08.01.12Z"/><path class="cls-6" d="m44.3,33.8s0-.02,0-.03v-.03s0,.04,0,.06Z"/><g id="Ears"><g id="Ear_left"><path class="cls-5" d="m47.53,41.42c-.4,1.36-1.9,2.45-2.87,2.07h0s0-.95,0-.95l-.02-2.62v-.05s0-.07.03-.11c.1-.21.46-.42.62-.55.24-.2.48-.43,1.08-.29.62.14,1.49,1.43,1.18,2.5Z"/><path class="cls-7" d="m44.64,40.64s.46-.54.99-.3.71.74.66,1.21-.5.85-.81.93c-.38.1-.83.06-.83.06v-1.9Z"/></g></g><g id="Ears-2"><g id="Ear_left-2"><path class="cls-5" d="m11.43,39.85c0-.24-.51-.49-.7-.64-.24-.2-.49-.43-1.08-.29s-1.49,1.43-1.17,2.5c.4,1.36,1.87,2.44,2.85,2.06l.11-3.63Z"/><path class="cls-7" d="m11.4,40.65s-.5-.56-1.03-.32-.71.74-.66,1.21.5.85.81.93c.38.1.83.06.83.06l.06-1.89Z"/></g></g><g id="Eyes"><g><ellipse id="Eye_right" cx="23.33" cy="39.56" rx=".92" ry="3.59"/><g class="cls-1"><g><path class="cls-3" d="m23.84,39.94s.04,0,.04,0c0,0-.05,0-.04,0Z"/><polygon class="cls-3" points="23.75 39.86 23.77 39.86 23.73 39.85 23.75 39.86"/><path class="cls-3" d="m23.75,39.78c-.07,0,0,.03-.01.04h-.02s.05,0,.05,0c0-.02-.04-.04-.02-.05Z"/><path class="cls-3" d="m23.9,39.75s-.02,0,0,0h0s0,0,0,0Z"/><path class="cls-3" d="m23.9,39.76s.02,0,0,0h0Z"/><path class="cls-3" d="m23.88,39.72h.02s.02,0,.03,0c-.01-.01-.03,0-.05,0Z"/><path class="cls-3" d="m23.84,39.71h0s0,0,0,0Z"/><path class="cls-3" d="m23.87,39.73h-.02s-.03-.01,0,0c-.02,0,0,0,.01,0Z"/><path class="cls-3" d="m23.85,39.73s-.02.01-.05,0c0,.02.06.02.05,0Z"/><path class="cls-3" d="m23.68,39.78h-.02s.02.02.02.02c-.01,0,.02-.01,0-.02Z"/><path class="cls-3" d="m23.92,39.66s-.04,0-.06,0h.02s.02,0,.04,0Z"/><path class="cls-3" d="m23.87,39.66h-.02s0,0,.02,0Z"/><polygon class="cls-3" points="23.76 39.7 23.81 39.72 23.76 39.7 23.76 39.7"/><polygon class="cls-3" points="23.93 39.61 23.96 39.62 23.91 39.61 23.93 39.61"/><path class="cls-3" d="m23.92,39.58s.05,0,.06,0c0,0-.03-.02-.05-.02.01,0,0,.01-.02.02Z"/><path class="cls-3" d="m23.91,39.55s.02,0,.03.01c0,0-.01,0-.03-.01Z"/><path class="cls-3" d="m23.85,39.63s.03,0,.04,0h-.04s0,0,0,0Z"/><path class="cls-3" d="m23.85,39.62h0s0,0,0,0c0,0,0,0,0,0Z"/><path class="cls-3" d="m23.85,39.63h0s0,0,0,0Z"/><path class="cls-3" d="m23.8,39.67s-.04-.02-.08-.01c.03,0,.05,0,.08.01Z"/><path class="cls-3" d="m23.8,39.63h0s.03.01.04.02l-.03-.02Z"/><polygon class="cls-3" points="23.79 39.62 23.8 39.63 23.8 39.62 23.79 39.62"/><path class="cls-3" d="m23.87,39.57s-.02-.01-.02-.02c0,0-.01.01-.01.02.01,0,.03,0,.03,0Z"/><path class="cls-3" d="m23.86,39.59h0s0,0,0,0Z"/><polygon class="cls-3" points="23.85 39.48 23.85 39.48 23.85 39.48 23.85 39.48"/><path class="cls-3" d="m23.83,39.57s0,0,.01.01c0,0,0-.01,0-.01,0,0,0,0,0,0Z"/><path class="cls-3" d="m23.89,39.53h-.02s.03,0,.02,0Z"/><path class="cls-3" d="m23.87,39.59h0s0,0,0,0Z"/><path class="cls-3" d="m23.87,39.59s-.02,0-.02,0c0,0,0,0,.01,0h.01Z"/><path class="cls-3" d="m23.6,39.44s.07.02.03.03c.03.01.15.02.22.01-.02,0-.03,0-.05-.02-.02,0-.05.02-.08.01-.02-.02.01-.01.03-.02-.05,0-.07-.03-.13-.03l.02.02s-.03,0-.04,0Z"/><path class="cls-3" d="m23.84,39.51h0s.02,0,.05,0c-.02,0-.03-.01-.04-.01v.02s-.01,0-.01,0Z"/><path class="cls-3" d="m23.84,39.53s-.06-.02-.1-.02c0,.02.03.01.05.02,0-.02.02,0,.05,0,0,0,0,.01,0,.01h.02s0-.01,0-.01h0s0,0,0,0c0,0,0,0,0,0h0s-.02,0-.02,0c0,0,.01,0,.02,0h0s0,0,0,0l-.02-.03s0,.01,0,.02Z"/><path class="cls-3" d="m23.63,39.64h0s0,0,0,0Z"/><path class="cls-3" d="m23.66,39.63s.02,0,.02.01c-.01,0-.02,0-.03,0,.01,0,.03.01.05,0h0s.07-.02.07-.02c-.04,0-.06,0-.1,0Z"/><path class="cls-3" d="m23.74,39.58l-.02-.02h-.04s.02,0,.02,0c0,.01.02.01.03.01Z"/><polygon class="cls-3" points="23.87 39.48 23.92 39.49 23.86 39.47 23.87 39.48"/><polygon class="cls-3" points="23.87 39.45 23.91 39.46 23.89 39.45 23.87 39.45"/><path class="cls-3" d="m23.51,37.94h-.01s.01,0,.01,0Z"/><path class="cls-3" d="m23.51,37.98h.02s-.02,0-.02,0Z"/><path class="cls-3" d="m23.92,38.8s.09-.01.05-.01h-.04s0,.01,0,.01Z"/><polygon class="cls-3" points="23.72 38.34 23.7 38.34 23.74 38.35 23.72 38.34"/><path class="cls-3" d="m23.55,38.32h.03s-.03,0-.03,0Z"/><path class="cls-3" d="m23.45,37.72h-.04s.02,0,.04,0Z"/><path class="cls-3" d="m23.88,39.18s.02-.01.03-.02c-.02,0-.06.01-.03.02Z"/><path class="cls-3" d="m23.94,37.95s-.02,0-.02,0c0,0,.01,0,.02,0Z"/><path class="cls-3" d="m23.91,39.15h0s.01.02,0,.02c.02,0,.03-.01,0-.02Z"/><path class="cls-3" d="m23.32,36.96h0s0,0,0,0Z"/><path class="cls-3" d="m23.5,36.52s0,0,.01,0c0,0,0,0-.01,0Z"/><path class="cls-3" d="m23.9,39.35s0,0,0,0h0Z"/><path class="cls-3" d="m23.74,39.36s-.01,0-.02,0c0,0,.02,0,.02,0Z"/><path class="cls-3" d="m23.66,39.07h0s0,0,0,0Z"/><path class="cls-3" d="m23.88,39.36s.01,0,.01,0c0,0,0,0-.01,0Z"/><path class="cls-3" d="m23.9,39.36h0s.01,0,0,0Z"/><polygon class="cls-3" points="23.9 39.34 23.89 39.35 23.9 39.35 23.9 39.34"/><path class="cls-3" d="m23.54,37.32h0s-.01,0,0,0Z"/><polygon class="cls-3" points="23.52 38.62 23.52 38.62 23.52 38.62 23.52 38.62"/><path class="cls-3" d="m23.49,38.6s.04.02.03.02h.12s-.15-.02-.15-.02Z"/><path class="cls-3" d="m23.5,37.85l-.04.02c-.06-.01-.04-.02-.09,0,.13,0,.02.04.14.04h-.03s0,0,0,0c-.06.02.09,0,.07.03,0,0-.03.01-.04,0l.03.02s-.02,0-.02,0v.03s0,0,0,0c.02,0,.05.01.06.02-.02,0-.01,0-.03,0h.03s-.06,0-.06,0c-.13.01.03.01-.04.04h-.02c-.07,0-.05,0-.09.02.02,0,.11-.03.14-.01,0,0-.01.01.01.02-.05,0-.03,0-.03.02h-.06s.05,0,.07.02c0,.01-.05.01-.09.02,0,.02.07-.01.09.01-.02.02,0,.03.04.05-.02.01-.04,0-.05,0h.05s-.02.01-.02.01c.02,0,.06,0,.08.02.07,0-.1.03-.02.05-.02,0-.04,0-.06,0,.05.03.03.02.1.05h-.04s.1.02.14.04c.02,0,.04,0,.05,0l.03.02s-.03,0-.05,0c0,0,.01,0,.01,0-.02,0-.06,0-.09,0h.04s-.08-.02-.11-.02c0,0,.02,0,.02,0,0,0-.02,0-.02,0,0,0,0,0,.02,0h-.07s.03,0,.03,0l-.04.03c.07.02.16.05.19.09-.05-.01-.08,0-.14-.01.06,0-.02-.03-.01-.04,0,0-.03,0-.04,0l.05.03s-.04,0-.06.01c.09,0,.06.03.09.04-.03,0-.06,0-.05-.02-.07.01.11.03.05.04,0,0,0,0-.01,0,.03.01,0,.03-.02.02h0s0,.07.07.08c-.01,0-.1-.01-.11-.01l.26.07c-.07,0-.23,0-.27-.03-.01,0-.02.01,0,.03.01,0,.1,0,.1,0-.08,0-.04,0-.11.02.02,0,.12.01.12.02-.02,0-.1-.01-.12-.01l.1.03s-.09,0-.12,0c.02,0,0,.02,0,.03h.03s.14.03.14.06c-.02,0-.13-.02-.15,0,.05.01.26.05.29.08h-.03s.03.02.03.02c-.08-.02-.25-.07-.31-.09-.03,0-.04,0-.03.01-.03,0-.04-.02-.04-.02l-.02.03c.06,0,.06.03.11.04l-.06-.04c.06,0,.18.04.16.06-.03,0-.11-.01-.13-.02.02,0,.04.03.02.03h-.03s.08.02.02.03c0,0-.08,0-.05.01.07,0,.29.01.35.03,0,0-.07.02-.11.03-.06,0-.13-.03-.18-.02.02,0,.04,0,.04.01-.02,0-.05,0-.05,0,.06,0,0,.03.05.01.02.01-.01.01-.01.03.04,0,.14.03.15.04-.02,0-.04,0-.05,0,0,.03-.04.04-.04.06-.02,0-.04.01-.06,0,.01,0,.03,0,.03.02-.06,0,0-.02-.07-.01.04,0,.05.02.07.04.06,0,.01-.02,0-.04.08,0,.16.03.19.06.02.02-.05,0-.04,0-.02.04.13.04.07.07-.05,0-.1,0-.14,0-.02-.02.03-.02.03-.03h-.02s-.03,0-.01-.01c-.05,0-.01.06-.06.09.02,0,.03.02.05.01h0s.05.01.07,0c.03.01.07.03.05.05h-.06s.03-.01.02-.02c.02,0-.08.02,0,.03h.04s.09.03.07.04c.06,0,0,0,.06,0-.08,0,0-.04-.08-.03.08,0,.03-.02.1-.03-.02,0-.04,0-.03-.01,0,0-.02,0-.02,0h0s0,0,0,0h0s-.03,0-.03,0c-.04-.01-.04-.03-.06-.04,0,0,.02,0,.04,0h-.03s.07-.03.09,0v-.02s.04-.02.02-.03c0,0-.04-.02-.01-.01l-.02-.03h.01s-.06-.06.01-.08c0,0-.02-.02,0-.03h.04s.04-.03,0-.04c.1,0,.03-.05.05-.07h-.05s0-.03-.03-.05h-.04s.03-.04.03-.06c.02,0,.01,0,0,.01.1-.02-.06-.06,0-.08-.01,0,0-.01,0-.01h0s0,0,0,0h.02s-.02,0-.02,0c0,0,0-.01-.01-.02h.04s0,0,0,0c.02,0-.02,0-.05,0,0,0-.02,0-.03-.01.07,0-.02-.02.05-.02-.04,0-.03-.04-.1-.05.01,0,.02,0,.02,0,0,0,.02-.01,0-.02h.06s-.08-.02-.08-.02c.04,0,.06-.01.1,0-.07-.03-.02-.02-.09-.05h.04s-.05-.02-.02-.02c.07-.01.02-.08.08-.12-.11,0,.05-.02-.03-.02.03,0,.04,0,.06,0-.02-.02.04-.03-.03-.05.03,0,.04,0,.05,0,0,0-.02,0,0-.01.02,0,.02,0,.03,0,0-.02-.08-.03-.16-.04.04,0,.03-.02-.02-.03.02,0,.05,0,.06,0,0,0,.04-.05-.02-.05.02,0,0-.01,0-.01,0-.02,0-.02,0-.04h0c-.07,0-.02-.01-.02-.03h0c.05-.03-.02-.01.04-.04h-.04c-.1,0,.06-.03.02-.05h-.03s.13-.02.14-.03c0,0,.01,0,.02,0,.06-.03-.06,0-.07-.03.03,0,.08,0,.09,0,.03,0-.1-.04-.04-.06-.02,0-.05,0-.07,0,0-.01.09-.04.01-.05h.02s-.03-.04-.08-.04c.15-.02-.08-.07.06-.08v-.04s0,0,0,0c0-.02-.03-.03-.06-.03,0,0,.02,0,.03,0,.03-.03.02-.04-.05-.06h.05s.07-.06.01-.09c0,0,.01,0,.02,0-.06-.03.12-.1-.05-.09l-.04-.02s-.07,0-.1.02c-.01-.01.05-.04.06-.02h0c.09,0,.03-.04.09-.04-.01-.06.03-.12.02-.18l-.07.02v-.02s.05-.02.05,0c.04-.01-.04-.02-.05-.01.02-.03.08,0,.08-.01h0s0,0,0,0c-.03,0-.06,0-.06-.02.01-.01.04-.01.04-.02,0,0,0,0,0,0v-.03s-.05.02-.05.02c-.03,0,0-.02-.06,0,.09-.04.01-.1.03-.12-.04,0-.05-.02-.05-.04,0,0-.07.03-.06.01.12-.03.04-.05.12-.09-.05.03-.03-.04-.1,0,0-.02.04-.02.07-.04-.06-.01,0-.08-.03-.12-.02,0-.03.02-.06.03l.06-.06s-.09.03-.04,0c-.01,0-.03.02-.04.02.02-.12-.11-.1-.09-.28-.01.03-.02.03-.03.02,0,.01-.03.03-.04.05v-.08s-.03-.03-.07.01h.02c-.05.05-.08.14-.14.21.06-.05-.07.1.03.03-.01.01-.02.02-.04.03.03-.02.04-.02.03,0h0s0,.06,0,.1l.04-.02s-.01.02-.02.03c.06-.02,0-.02.06-.05-.07.05.03.05-.06.11,0,.01.04-.03.05-.01l-.02.02h.03s-.03.02-.05.03h-.01s.02.02.01.03v-.02s.03.07.09.08h.02s-.01.02.01.04h0s.03,0,.03.01c-.03,0-.04.03-.07.03.05.01.04,0,.12,0h-.03s.05,0,.06.02c-.03,0-.05.02-.09.02-.06.05.09.03-.02.07.1,0,.05-.04.07-.04.03-.01.07,0,.07,0,0,.01-.11.05-.11.07h0s.04,0,0,.03c.06,0,0,.02.07,0l-.02-.02s.11,0,.07.03c-.01,0-.04,0-.05,0-.02.01.02,0,0,.02-.07.01-.02-.03-.08-.03-.03.01.06.02-.02.02.1,0,0,.03.07.03h-.04s.03.01.03.02h-.06c.05,0-.04.03,0,.04,0-.03.05-.01.08-.03.06.02-.11.04-.08.07,0,0,.02-.02.04-.02,0,0-.02.02-.05.03.01.02.04-.01.07,0-.05.02.02,0,.04.02h-.04s.09,0,.06.03h-.06s.02,0,.02,0h-.05s.03.02.02.04c.03,0,.08,0,.08,0-.03.01-.04,0-.03.02-.03,0-.06,0-.02-.01h-.04s0,.02,0,.03c0,0,0,0,0,0l.07.02s-.03,0-.04,0c0,0,.03,0,.03.01-.04,0-.07,0-.09,0l.04.02s-.04.02-.06.02c-.02.02.07.03.05.05,0,0,.01,0,.02,0,0,.02-.05.04,0,.06l-.06.02s.08-.02.11,0c.02.02-.05.01-.07.02.03,0,.1.02.05.04-.01,0,0,0,0-.01Zm.03.19s-.04-.01-.01-.01c.05,0,.03,0,.01.01Zm.1.32s0,0,.01-.01c0,0,0,0-.01.01Zm.24.92h0s.01,0,0,0Zm-.02.02h.02s-.01,0,0,0c-.01,0-.02,0-.01,0Zm-.02-2.1h-.01s0,0,.01,0Z"/><path class="cls-3" d="m23.57,38.32h.02s-.02,0-.02,0Z"/><polygon class="cls-3" points="23.46 37.72 23.46 37.72 23.45 37.72 23.46 37.72"/><path class="cls-3" d="m23.49,38.97h.02s-.02,0-.02,0Z"/><path class="cls-3" d="m23.91,39.41h-.01s0,0-.02,0c.01,0,.03,0,.03,0Z"/><path class="cls-3" d="m23.63,39.49s0,0,0,0h.02s-.02-.01-.03,0Z"/><path class="cls-3" d="m23.76,39.41s-.03,0-.02.02h0c.05,0,.04,0,.02-.02Z"/><path class="cls-3" d="m23.74,39.43h0s0,0,0,0Z"/><path class="cls-3" d="m23.87,39.33s.05,0,.03,0c.05,0-.06-.03-.03,0Z"/><polygon class="cls-3" points="23.64 39.41 23.68 39.41 23.65 39.4 23.64 39.41"/><path class="cls-3" d="m23.68,39.34h-.01s.02.02.02.02c0,0,.01-.02,0-.02Z"/><path class="cls-3" d="m23.68,39.36s0,0,0,.01c0,0,0,0,0-.01Z"/><polygon class="cls-3" points="23.63 39.39 23.64 39.38 23.64 39.37 23.63 39.39"/><path class="cls-3" d="m23.7,39.2v-.02s-.04,0-.03,0c.01,0,.02.01.03,0Z"/><path class="cls-3" d="m23.57,39.23s.02,0,.04,0h-.06s.02,0,.02,0Z"/><path class="cls-3" d="m23.56,39.18s-.04-.03-.04,0c.02,0,.03.02.04,0Z"/><polygon class="cls-3" points="23.65 38.97 23.65 38.97 23.75 38.98 23.65 38.97"/><path class="cls-3" d="m23.44,38.75s.06,0,.03.02c.02,0,.02-.01.04,0-.02-.01,0-.02-.07-.02Z"/><path class="cls-3" d="m23.51,38.77s0,0,.01,0c0,0-.01,0-.01,0Z"/><polygon class="cls-3" points="23.49 36.44 23.49 36.41 23.48 36.44 23.49 36.44"/><path class="cls-3" d="m23.43,36.47l.03-.05-.04.04s.01,0,0,.01Z"/><path class="cls-3" d="m23.41,38.07h.01s.02,0,.02,0h-.03Z"/><polygon class="cls-3" points="23.45 37.93 23.45 37.93 23.51 37.93 23.45 37.93"/><path class="cls-3" d="m23.38,37.82s.01.01,0,.02c-.01-.01.06-.02,0-.02Z"/></g></g></g><g><ellipse id="Eye_right-2" cx="32.64" cy="39.56" rx=".92" ry="3.59"/><g class="cls-1"><g><path class="cls-3" d="m33.14,39.94s.04,0,.04,0c0,0-.05,0-.04,0Z"/><polygon class="cls-3" points="33.05 39.86 33.07 39.86 33.03 39.85 33.05 39.86"/><path class="cls-3" d="m33.06,39.78c-.07,0,0,.03-.01.04h-.02s.05,0,.05,0c0-.02-.04-.04-.02-.05Z"/><path class="cls-3" d="m33.2,39.75s-.02,0,0,0h0s0,0,0,0Z"/><path class="cls-3" d="m33.2,39.76s.02,0,0,0h0Z"/><path class="cls-3" d="m33.19,39.72h.02s.02,0,.03,0c-.01-.01-.03,0-.05,0Z"/><path class="cls-3" d="m33.14,39.71h0s0,0,0,0Z"/><path class="cls-3" d="m33.17,39.73h-.02s-.03-.01,0,0c-.02,0,0,0,.01,0Z"/><path class="cls-3" d="m33.16,39.73s-.02.01-.05,0c0,.02.06.02.05,0Z"/><path class="cls-3" d="m32.99,39.78h-.02s.02.02.02.02c-.01,0,.02-.01,0-.02Z"/><path class="cls-3" d="m33.23,39.66s-.04,0-.06,0h.02s.02,0,.04,0Z"/><path class="cls-3" d="m33.17,39.66h-.02s0,0,.02,0Z"/><polygon class="cls-3" points="33.07 39.7 33.12 39.72 33.07 39.7 33.07 39.7"/><polygon class="cls-3" points="33.23 39.61 33.26 39.62 33.21 39.61 33.23 39.61"/><path class="cls-3" d="m33.23,39.58s.05,0,.06,0c0,0-.03-.02-.05-.02.01,0,0,.01-.02.02Z"/><path class="cls-3" d="m33.21,39.55s.02,0,.03.01c0,0-.01,0-.03-.01Z"/><path class="cls-3" d="m33.15,39.63s.03,0,.04,0h-.04s0,0,0,0Z"/><path class="cls-3" d="m33.15,39.62h0s0,0,0,0c0,0,0,0,0,0Z"/><path class="cls-3" d="m33.15,39.63h0s0,0,0,0Z"/><path class="cls-3" d="m33.1,39.67s-.04-.02-.08-.01c.03,0,.05,0,.08.01Z"/><path class="cls-3" d="m33.1,39.63h0s.03.01.04.02l-.03-.02Z"/><polygon class="cls-3" points="33.09 39.62 33.1 39.63 33.11 39.62 33.09 39.62"/><path class="cls-3" d="m33.17,39.57s-.02-.01-.02-.02c0,0-.01.01-.01.02.01,0,.03,0,.03,0Z"/><path class="cls-3" d="m33.16,39.59h0s0,0,0,0Z"/><polygon class="cls-3" points="33.16 39.48 33.15 39.48 33.16 39.48 33.16 39.48"/><path class="cls-3" d="m33.13,39.57s0,0,.01.01c0,0,0-.01,0-.01,0,0,0,0,0,0Z"/><path class="cls-3" d="m33.19,39.53h-.02s.03,0,.02,0Z"/><path class="cls-3" d="m33.17,39.59h0s0,0,0,0Z"/><path class="cls-3" d="m33.17,39.59s-.02,0-.02,0c0,0,0,0,.01,0h.01Z"/><path class="cls-3" d="m32.9,39.44s.07.02.03.03c.03.01.15.02.22.01-.02,0-.03,0-.05-.02-.02,0-.05.02-.08.01-.02-.02.01-.01.03-.02-.05,0-.07-.03-.13-.03l.02.02s-.03,0-.04,0Z"/><path class="cls-3" d="m33.15,39.51h0s.02,0,.05,0c-.02,0-.03-.01-.04-.01v.02s-.01,0-.01,0Z"/><path class="cls-3" d="m33.15,39.53s-.06-.02-.1-.02c0,.02.03.01.05.02,0-.02.02,0,.05,0,0,0,0,.01,0,.01h.02s0-.01,0-.01h0s0,0,0,0c0,0,0,0,0,0h0s-.02,0-.02,0c0,0,.01,0,.02,0h0s0,0,0,0l-.02-.03s0,.01,0,.02Z"/><path class="cls-3" d="m32.94,39.64h0s0,0,0,0Z"/><path class="cls-3" d="m32.96,39.63s.02,0,.02.01c-.01,0-.02,0-.03,0,.01,0,.03.01.05,0h0s.07-.02.07-.02c-.04,0-.06,0-.1,0Z"/><path class="cls-3" d="m33.05,39.58l-.02-.02h-.04s.02,0,.02,0c0,.01.02.01.03.01Z"/><polygon class="cls-3" points="33.18 39.48 33.22 39.49 33.16 39.47 33.18 39.48"/><polygon class="cls-3" points="33.18 39.45 33.21 39.46 33.19 39.45 33.18 39.45"/><path class="cls-3" d="m32.82,37.94h-.01s.01,0,.01,0Z"/><path class="cls-3" d="m32.82,37.98h.02s-.02,0-.02,0Z"/><path class="cls-3" d="m33.23,38.8s.09-.01.05-.01h-.04s0,.01,0,.01Z"/><polygon class="cls-3" points="33.02 38.34 33.01 38.34 33.05 38.35 33.02 38.34"/><path class="cls-3" d="m32.85,38.32h.03s-.03,0-.03,0Z"/><path class="cls-3" d="m32.76,37.72h-.04s.02,0,.04,0Z"/><path class="cls-3" d="m33.18,39.18s.02-.01.03-.02c-.02,0-.06.01-.03.02Z"/><path class="cls-3" d="m33.25,37.95s-.02,0-.02,0c0,0,.01,0,.02,0Z"/><path class="cls-3" d="m33.21,39.15h0s.01.02,0,.02c.02,0,.03-.01,0-.02Z"/><path class="cls-3" d="m32.62,36.96h0s0,0,0,0Z"/><path class="cls-3" d="m32.81,36.52s0,0,.01,0c0,0,0,0-.01,0Z"/><path class="cls-3" d="m33.2,39.35s0,0,0,0h0Z"/><path class="cls-3" d="m33.04,39.36s-.01,0-.02,0c0,0,.02,0,.02,0Z"/><path class="cls-3" d="m32.97,39.07h0s0,0,0,0Z"/><path class="cls-3" d="m33.18,39.36s.01,0,.01,0c0,0,0,0-.01,0Z"/><path class="cls-3" d="m33.2,39.36h0s.01,0,0,0Z"/><polygon class="cls-3" points="33.2 39.34 33.19 39.35 33.2 39.35 33.2 39.34"/><path class="cls-3" d="m32.85,37.32h0s-.01,0,0,0Z"/><polygon class="cls-3" points="32.82 38.62 32.82 38.62 32.83 38.62 32.82 38.62"/><path class="cls-3" d="m32.79,38.6s.04.02.03.02h.12s-.15-.02-.15-.02Z"/><path class="cls-3" d="m32.8,37.85l-.04.02c-.06-.01-.04-.02-.09,0,.13,0,.02.04.14.04h-.03s0,0,0,0c-.06.02.09,0,.07.03,0,0-.03.01-.04,0l.03.02s-.02,0-.02,0v.03s0,0,0,0c.02,0,.05.01.06.02-.02,0-.01,0-.03,0h.03s-.06,0-.06,0c-.13.01.03.01-.04.04h-.02c-.07,0-.05,0-.09.02.02,0,.11-.03.14-.01,0,0-.01.01.01.02-.05,0-.03,0-.03.02h-.06s.05,0,.07.02c0,.01-.05.01-.09.02,0,.02.07-.01.09.01-.02.02,0,.03.04.05-.02.01-.04,0-.05,0h.05s-.02.01-.02.01c.02,0,.06,0,.08.02.07,0-.1.03-.02.05-.02,0-.04,0-.06,0,.05.03.03.02.1.05h-.04s.1.02.14.04c.02,0,.04,0,.05,0l.03.02s-.03,0-.05,0c0,0,.01,0,.01,0-.02,0-.06,0-.09,0h.04s-.08-.02-.11-.02c0,0,.02,0,.02,0,0,0-.02,0-.02,0,0,0,0,0,.02,0h-.07s.03,0,.03,0l-.04.03c.07.02.16.05.19.09-.05-.01-.08,0-.14-.01.06,0-.02-.03-.01-.04,0,0-.03,0-.04,0l.05.03s-.04,0-.06.01c.09,0,.06.03.09.04-.03,0-.06,0-.05-.02-.07.01.11.03.05.04,0,0,0,0-.01,0,.03.01,0,.03-.02.02h0s0,.07.07.08c-.01,0-.1-.01-.11-.01l.26.07c-.07,0-.23,0-.27-.03-.01,0-.02.01,0,.03.01,0,.1,0,.1,0-.08,0-.04,0-.11.02.02,0,.12.01.12.02-.02,0-.1-.01-.12-.01l.1.03s-.09,0-.12,0c.02,0,0,.02,0,.03h.03s.14.03.14.06c-.02,0-.13-.02-.15,0,.05.01.26.05.29.08h-.03s.03.02.03.02c-.08-.02-.25-.07-.31-.09-.03,0-.04,0-.03.01-.03,0-.04-.02-.04-.02l-.02.03c.06,0,.06.03.11.04l-.06-.04c.06,0,.18.04.16.06-.03,0-.11-.01-.13-.02.02,0,.04.03.02.03h-.03s.08.02.02.03c0,0-.08,0-.05.01.07,0,.29.01.35.03,0,0-.07.02-.11.03-.06,0-.13-.03-.18-.02.02,0,.04,0,.04.01-.02,0-.05,0-.05,0,.06,0,0,.03.05.01.02.01-.01.01-.01.03.04,0,.14.03.15.04-.02,0-.04,0-.05,0,0,.03-.04.04-.04.06-.02,0-.04.01-.06,0,.01,0,.03,0,.03.02-.06,0,0-.02-.07-.01.04,0,.05.02.07.04.06,0,.01-.02,0-.04.08,0,.16.03.19.06.02.02-.05,0-.04,0-.02.04.13.04.07.07-.05,0-.1,0-.14,0-.02-.02.03-.02.03-.03h-.02s-.03,0-.01-.01c-.05,0-.01.06-.06.09.02,0,.03.02.05.01h0s.05.01.07,0c.03.01.07.03.05.05h-.06s.03-.01.02-.02c.02,0-.08.02,0,.03h.04s.09.03.07.04c.06,0,0,0,.06,0-.08,0,0-.04-.08-.03.08,0,.03-.02.1-.03-.02,0-.04,0-.03-.01,0,0-.02,0-.02,0h0s0,0,0,0h0s-.03,0-.03,0c-.04-.01-.04-.03-.06-.04,0,0,.02,0,.04,0h-.03s.07-.03.09,0v-.02s.04-.02.02-.03c0,0-.04-.02-.01-.01l-.02-.03h.01s-.06-.06.01-.08c0,0-.02-.02,0-.03h.04s.04-.03,0-.04c.1,0,.03-.05.05-.07h-.05s0-.03-.03-.05h-.04s.03-.04.03-.06c.02,0,.01,0,0,.01.1-.02-.06-.06,0-.08-.01,0,0-.01,0-.01h0s0,0,0,0h.02s-.02,0-.02,0c0,0,0-.01-.01-.02h.04s0,0,0,0c.02,0-.02,0-.05,0,0,0-.02,0-.03-.01.07,0-.02-.02.05-.02-.04,0-.03-.04-.1-.05.01,0,.02,0,.02,0,0,0,.02-.01,0-.02h.06s-.08-.02-.08-.02c.04,0,.06-.01.1,0-.07-.03-.02-.02-.09-.05h.04s-.05-.02-.02-.02c.07-.01.02-.08.08-.12-.11,0,.05-.02-.03-.02.03,0,.04,0,.06,0-.02-.02.04-.03-.03-.05.03,0,.04,0,.05,0,0,0-.02,0,0-.01.02,0,.02,0,.03,0,0-.02-.08-.03-.16-.04.04,0,.03-.02-.02-.03.02,0,.05,0,.06,0,0,0,.04-.05-.02-.05.02,0,0-.01,0-.01,0-.02,0-.02,0-.04h0c-.07,0-.02-.01-.02-.03h0c.05-.03-.02-.01.04-.04h-.04c-.1,0,.06-.03.02-.05h-.03s.13-.02.14-.03c0,0,.01,0,.02,0,.06-.03-.06,0-.07-.03.03,0,.08,0,.09,0,.03,0-.1-.04-.04-.06-.02,0-.05,0-.07,0,0-.01.09-.04.01-.05h.02s-.03-.04-.08-.04c.15-.02-.08-.07.06-.08v-.04s0,0,0,0c0-.02-.03-.03-.06-.03,0,0,.02,0,.03,0,.03-.03.02-.04-.05-.06h.05s.07-.06.01-.09c0,0,.01,0,.02,0-.06-.03.12-.1-.05-.09l-.04-.02s-.07,0-.1.02c-.01-.01.05-.04.06-.02h0c.09,0,.03-.04.09-.04-.01-.06.03-.12.02-.18l-.07.02v-.02s.05-.02.05,0c.04-.01-.04-.02-.05-.01.02-.03.08,0,.08-.01h0s0,0,0,0c-.03,0-.06,0-.06-.02.01-.01.04-.01.04-.02,0,0,0,0,0,0v-.03s-.05.02-.05.02c-.03,0,0-.02-.06,0,.09-.04.01-.1.03-.12-.04,0-.05-.02-.05-.04,0,0-.07.03-.06.01.12-.03.04-.05.12-.09-.05.03-.03-.04-.1,0,0-.02.04-.02.07-.04-.06-.01,0-.08-.03-.12-.02,0-.03.02-.06.03l.06-.06s-.09.03-.04,0c-.01,0-.03.02-.04.02.02-.12-.11-.1-.09-.28-.01.03-.02.03-.03.02,0,.01-.03.03-.04.05v-.08s-.03-.03-.07.01h.02c-.05.05-.08.14-.14.21.06-.05-.07.1.03.03-.01.01-.02.02-.04.03.03-.02.04-.02.03,0h0s0,.06,0,.1l.04-.02s-.01.02-.02.03c.06-.02,0-.02.06-.05-.07.05.03.05-.06.11,0,.01.04-.03.05-.01l-.02.02h.03s-.03.02-.05.03h-.01s.02.02.01.03v-.02s.03.07.09.08h.02s-.01.02.01.04h0s.03,0,.03.01c-.03,0-.04.03-.07.03.05.01.04,0,.12,0h-.03s.05,0,.06.02c-.03,0-.05.02-.09.02-.06.05.09.03-.02.07.1,0,.05-.04.07-.04.03-.01.07,0,.07,0,0,.01-.11.05-.11.07h0s.04,0,0,.03c.06,0,0,.02.07,0l-.02-.02s.11,0,.07.03c-.01,0-.04,0-.05,0-.02.01.02,0,0,.02-.07.01-.02-.03-.08-.03-.03.01.06.02-.02.02.1,0,0,.03.07.03h-.04s.03.01.03.02h-.06c.05,0-.04.03,0,.04,0-.03.05-.01.08-.03.06.02-.11.04-.08.07,0,0,.02-.02.04-.02,0,0-.02.02-.05.03.01.02.04-.01.07,0-.05.02.02,0,.04.02h-.04s.09,0,.06.03h-.06s.02,0,.02,0h-.05s.03.02.02.04c.03,0,.08,0,.08,0-.03.01-.04,0-.03.02-.03,0-.06,0-.02-.01h-.04s0,.02,0,.03c0,0,0,0,0,0l.07.02s-.03,0-.04,0c0,0,.03,0,.03.01-.04,0-.07,0-.09,0l.04.02s-.04.02-.06.02c-.02.02.07.03.05.05,0,0,.01,0,.02,0,0,.02-.05.04,0,.06l-.06.02s.08-.02.11,0c.02.02-.05.01-.07.02.03,0,.1.02.05.04-.01,0,0,0,0-.01Zm.03.19s-.04-.01-.01-.01c.05,0,.03,0,.01.01Zm.1.32s0,0,.01-.01c0,0,0,0-.01.01Zm.24.92h0s.01,0,0,0Zm-.02.02h.02s-.01,0,0,0c-.01,0-.02,0-.01,0Zm-.02-2.1h-.01s0,0,.01,0Z"/><path class="cls-3" d="m32.87,38.32h.02s-.02,0-.02,0Z"/><polygon class="cls-3" points="32.77 37.72 32.77 37.72 32.76 37.72 32.77 37.72"/><path class="cls-3" d="m32.8,38.97h.02s-.02,0-.02,0Z"/><path class="cls-3" d="m33.22,39.41h-.01s0,0-.02,0c.01,0,.03,0,.03,0Z"/><path class="cls-3" d="m32.93,39.49s0,0,0,0h.02s-.02-.01-.03,0Z"/><path class="cls-3" d="m33.07,39.41s-.03,0-.02.02h0c.05,0,.04,0,.02-.02Z"/><path class="cls-3" d="m33.05,39.43h0s0,0,0,0Z"/><path class="cls-3" d="m33.17,39.33s.05,0,.03,0c.05,0-.06-.03-.03,0Z"/><polygon class="cls-3" points="32.94 39.41 32.99 39.41 32.95 39.4 32.94 39.41"/><path class="cls-3" d="m32.98,39.34h-.01s.02.02.02.02c0,0,.01-.02,0-.02Z"/><path class="cls-3" d="m32.98,39.36s0,0,0,.01c0,0,0,0,0-.01Z"/><polygon class="cls-3" points="32.93 39.39 32.94 39.38 32.94 39.37 32.93 39.39"/><path class="cls-3" d="m33,39.2v-.02s-.04,0-.03,0c.01,0,.02.01.03,0Z"/><path class="cls-3" d="m32.87,39.23s.02,0,.04,0h-.06s.02,0,.02,0Z"/><path class="cls-3" d="m32.86,39.18s-.04-.03-.04,0c.02,0,.03.02.04,0Z"/><polygon class="cls-3" points="32.96 38.97 32.96 38.97 33.05 38.98 32.96 38.97"/><path class="cls-3" d="m32.75,38.75s.06,0,.03.02c.02,0,.02-.01.04,0-.02-.01,0-.02-.07-.02Z"/><path class="cls-3" d="m32.82,38.77s0,0,.01,0c0,0-.01,0-.01,0Z"/><polygon class="cls-3" points="32.79 36.44 32.79 36.41 32.78 36.44 32.79 36.44"/><path class="cls-3" d="m32.73,36.47l.03-.05-.04.04s.01,0,0,.01Z"/><path class="cls-3" d="m32.71,38.07h.01s.02,0,.02,0h-.03Z"/><polygon class="cls-3" points="32.76 37.93 32.76 37.93 32.81 37.93 32.76 37.93"/><path class="cls-3" d="m32.68,37.82s.01.01,0,.02c-.01-.01.06-.02,0-.02Z"/></g></g></g></g><path id="Nose" class="cls-7" d="m29.25,44.16c-.25.14-1.26.11-1.26.11,0,0-1.01.03-1.27-.11-.22-.12.41-.75.98-1.03.18-.09.38-.09.56,0,.58.28,1.2.91.98,1.03Z"/></g><g id="Hair"><g><path id="Puff" d="m30.75,3.71s-1.87-3.23-5.94-2.2c-3.57.9-3.36,3.39-3.36,3.39,0,0-3.23-1.32-5.03.45-2.55,2.5-.7,6.45-.7,6.45,0,0-1.85.9-1.84,3.34,0,4.62,4.97,4.88,4.97,4.88,0,0-1.89,2.55.15,4.6,2.56,2.56,8.02-3.08,8.02-3.08,0,0,13.32,5.7,10.43-1.5,0,0,5.32-.18,5.92-4.65s-3.34-5.53-3.34-5.53c0,0,.82-4.53-2-6.42-3.39-2.29-7.28.27-7.28.27Z"/><g class="cls-1"><g><path class="cls-3" d="m39.11,9.55s.05,0,.06,0c-.01-.02-.07,0-.06,0Z"/><polygon class="cls-3" points="38.99 9.38 39.01 9.38 38.96 9.36 38.99 9.38"/><path class="cls-3" d="m38.99,9.22c-.09.02.01.06-.02.09h-.02s.07.02.07.02c-.01-.03-.06-.08-.03-.1Z"/><path class="cls-3" d="m39.18,9.14s-.03-.02-.01.02h0s0-.01,0-.02Z"/><path class="cls-3" d="m39.18,9.15s.03-.01,0,0h0Z"/><path class="cls-3" d="m39.16,9.08l.03.02s.02-.02.04-.02c-.02-.02-.04-.02-.07,0Z"/><path class="cls-3" d="m39.09,9.06h.01s.01,0-.01,0Z"/><path class="cls-3" d="m39.13,9.09l-.03-.02s-.04,0,.01.01c-.03,0,0,0,.02.01Z"/><path class="cls-3" d="m39.12,9.11s-.03.03-.06,0c.01.04.08.04.06,0Z"/><path class="cls-3" d="m38.9,9.22l-.03.02h.03s.02-.02,0-.02Z"/><path class="cls-3" d="m39.2,8.94s-.05,0-.07.01l.02.02s.02-.02.05-.03Z"/><path class="cls-3" d="m39.13,8.95l-.03-.02s.01.03.03.02Z"/><polygon class="cls-3" points="38.99 9.05 39.06 9.09 38.99 9.05 38.99 9.05"/><polygon class="cls-3" points="39.2 8.85 39.25 8.86 39.18 8.84 39.2 8.85"/><path class="cls-3" d="m39.19,8.78s.06-.02.08,0c0-.02-.04-.03-.07-.04.02.01.01.03-.02.05Z"/><path class="cls-3" d="m39.17,8.72s.02.01.04.02c0,0-.02-.01-.04-.02Z"/><path class="cls-3" d="m39.1,8.88s.04,0,.05-.02h-.05s0,.02,0,.02Z"/><path class="cls-3" d="m39.1,8.88h0s0-.02,0-.02c0,0,0,0,0,.02Z"/><path class="cls-3" d="m39.1,8.89h0s0,0,0,0Z"/><path class="cls-3" d="m39.04,8.99s-.06-.04-.11-.01c.04,0,.06,0,.11.01Z"/><path class="cls-3" d="m39.04,8.9v.03s.02,0,.04,0l-.04-.03Z"/><polygon class="cls-3" points="39.02 8.89 39.04 8.9 39.04 8.89 39.02 8.89"/><path class="cls-3" d="m39.12,8.76s-.03-.02-.03-.04c-.01.02-.02.03-.02.05.02,0,.05,0,.04,0Z"/><path class="cls-3" d="m39.11,8.82h0s0,0,0,0Z"/><polygon class="cls-3" points="39.09 8.59 39.08 8.59 39.09 8.59 39.09 8.59"/><path class="cls-3" d="m39.07,8.77s0,.02.02.02c0,0,0-.02,0-.03,0,0,0,0,0,0Z"/><path class="cls-3" d="m39.14,8.68l-.03.02s.04-.02.03-.02Z"/><path class="cls-3" d="m39.12,8.81h0s0,0,0,0Z"/><path class="cls-3" d="m39.12,8.81s-.02,0-.03-.01c0,0,.01.01.02.02,0,0,0,0,.01,0Z"/><path class="cls-3" d="m38.75,8.56s.1.03.04.05c.04.02.2,0,.29-.02-.02,0-.04,0-.07-.02-.03,0-.06.06-.11.04-.03-.03.02-.03.04-.05-.06.02-.09-.04-.18-.03l.03.03s-.04,0-.05,0Z"/><path class="cls-3" d="m39.08,8.64h0s.03-.01.07-.03c-.02-.02-.04-.02-.06-.02v.05s-.01,0-.01,0Z"/><path class="cls-3" d="m39.08,8.7c-.05,0-.08-.03-.13-.01,0,.03.05.02.07.04-.01-.05.03.01.06-.02,0,0,.01.02.01.03,0,0,.01-.02.02-.03h0s0,0,0,0h0s0,0,0,0h0s-.02,0-.02,0c.01-.01.01,0,.02,0h0s0,0,0,0l-.03-.05s0,.02,0,.05Z"/><path class="cls-3" d="m38.82,8.95h.01s-.01,0-.01,0Z"/><path class="cls-3" d="m38.85,8.93s.03,0,.02.02c-.02.01-.03,0-.04,0,.01,0,.04.02.06,0h0s.08-.05.09-.05c-.05,0-.08.01-.13.03Z"/><path class="cls-3" d="m38.95,8.81l-.03-.04-.05.02h.03s.02.02.05.02Z"/><polygon class="cls-3" points="39.11 8.58 39.17 8.59 39.09 8.57 39.11 8.58"/><polygon class="cls-3" points="39.11 8.53 39.16 8.53 39.13 8.52 39.11 8.53"/><path class="cls-3" d="m37.91,5.75h-.02s.02,0,.02,0Z"/><path class="cls-3" d="m37.95,5.83h.02s-.02,0-.02,0Z"/><path class="cls-3" d="m38.98,7.19s.11-.06.06-.05h-.05s0,.04,0,.05Z"/><polygon class="cls-3" points="38.47 6.36 38.45 6.37 38.5 6.37 38.47 6.36"/><path class="cls-3" d="m38.25,6.42l.03-.03s-.02.02-.03.03Z"/><path class="cls-3" d="m37.64,5.4l-.05.02s.03,0,.05-.02Z"/><path class="cls-3" d="m39.06,7.97s.03-.03.03-.04c-.03.02-.07.04-.03.04Z"/><path class="cls-3" d="m38.44,5.52s-.02,0-.03,0c.01,0,.02,0,.03,0Z"/><path class="cls-3" d="m39.08,7.89h-.01s.02.03.02.04c.02-.02.03-.03,0-.04Z"/><path class="cls-3" d="m36.53,4.33h0s0,0,0,0Z"/><path class="cls-3" d="m36.27,3.64s.01,0,.02,0c0,0,0,0-.02,0Z"/><path class="cls-3" d="m39.12,8.31s0,0,0,0h0Z"/><path class="cls-3" d="m38.91,8.37s-.01,0-.03,0c.01,0,.02,0,.03,0Z"/><path class="cls-3" d="m38.74,7.8h0s0,0,0,0Z"/><path class="cls-3" d="m39.1,8.33l.02-.02s0,0-.02.02Z"/><path class="cls-3" d="m39.12,8.32s0,.01,0,.01c0,0,.01,0,0-.01Z"/><path class="cls-3" d="m39.12,8.29s0,.01,0,.02h0s0-.01,0-.02Z"/><path class="cls-3" d="m37.31,4.71h0s-.02,0,0,0Z"/><polygon class="cls-3" points="38.38 6.99 38.38 7 38.38 6.99 38.38 6.99"/><path class="cls-3" d="m38.33,6.96c.07,0,.06.01.05.03l.15-.04h-.2Z"/><path class="cls-3" d="m37.81,5.59l-.03.05c-.08.01-.07-.02-.12.03.15-.08.06.08.21,0l-.02.03s-.01,0-.01,0c-.05.07.12-.04.12.02,0,.02-.02.04-.04.04h.05s-.03.03-.03.02l.04.04h0s.07,0,.09,0c-.02.02-.02,0-.04.01h.05s-.08.03-.09.01c-.14.1.05,0-.02.1l-.03-.02c-.08.06-.04.06-.08.11.03-.02.11-.12.16-.11,0,.01,0,.03.03.03-.05.02-.03.03-.02.05l-.07.03s.07,0,.1,0c0,.03-.05.05-.1.08,0,.04.08-.06.11-.02-.02.04.02.05.08.07-.02.03-.05.01-.07.03h.07s-.02,0-.03.01c.03,0,.08-.03.11,0,.09-.02-.1.1,0,.1-.02.02-.05.01-.08.02.08.02.06.02.15.03l-.04.05s.13-.03.19-.02c.02-.02.05-.03.06-.04l.05.03s-.04.01-.07.02h.02s-.07.03-.12.03l.04-.03s-.1,0-.15.03c0,0,.02,0,.02,0-.01,0-.03,0-.03,0,0,0,.01,0,.03,0l-.08.04h.03s-.04.06-.04.06c.1.01.23.01.29.07-.07,0-.1.02-.18.04.07-.04-.05-.04-.04-.08,0,.02-.04.03-.05.02l.09.04c-.06.02-.04.02-.06.05.12-.04.09.02.13.04-.04.01-.08.02-.08-.02-.08.05.15,0,.08.06,0,0,0-.01-.02-.01.04,0,.02.06-.02.05h0s.03.14.14.12c-.01,0-.13.02-.15.02l.37.02c-.09.01-.3.08-.36.05-.01.01-.02.03.01.05.01-.01.13-.04.14-.04-.09.05-.05.03-.13.08.02-.02.16-.03.16,0-.02,0-.14.03-.15.02l.15.02s-.12.02-.15.04c.03,0,0,.04.02.05l.03-.02c-.01.06.2.02.2.07-.03,0-.18.01-.19.04.07,0,.35,0,.41.04h-.04s.05.05.05.05c-.11,0-.34-.04-.44-.06-.03.02-.05.01-.04.04-.04.02-.06,0-.06-.02v.07c.07-.01.08.04.14.03l-.1-.06c.08-.02.24,0,.23.06-.03.02-.15.01-.18.01.03,0,.06.04.04.05h-.05s.12.02.04.06c0,.01-.1.05-.05.04.09-.03.39-.07.46-.06,0,0-.08.07-.13.09-.07.03-.18,0-.24.01.02,0,.05,0,.06,0-.02.01-.07,0-.06.03.08,0,0,.05.07,0,.03.02-.01.03,0,.06.05-.01.19,0,.21.03-.02,0-.05,0-.06.01,0,.05-.04.09-.04.13-.02,0-.04.03-.08.02.02,0,.04.01.05.03-.07.03-.01-.03-.1,0,.05,0,.07.03.1.05.08-.01.01-.05-.02-.07.1,0,.22.02.27.07.03.04-.07.02-.05.03-.01.08.19.06.12.12-.07.03-.13,0-.18.02-.03-.03.04-.05.04-.08l-.03.03s-.04-.03-.02-.04c-.06.02,0,.13-.06.19.02,0,.05.03.07.02v-.02s.07.03.09,0c.04.02.1.05.07.09h-.08s.04-.02.02-.02c.03.01-.1.06,0,.07l.05-.03s.12.05.1.09c.07-.02,0,0,.08-.03-.11.02,0-.08-.11-.05.1-.03.04-.04.13-.08-.03,0-.05.01-.04-.01,0,0-.02,0-.02,0h0s0,0,0,0h0s-.02.01-.04.02c-.06-.01-.06-.05-.09-.07.01-.02.03,0,.06,0l-.05-.02c.06,0,.09-.05.13-.01v-.03s.04-.05.02-.07c.01-.02-.06-.04-.02-.03l-.04-.05h.01c0-.05-.1-.1,0-.17-.02-.02-.03-.03-.02-.06h.05s.04-.08,0-.09c.13-.04.02-.11.04-.16h-.06s-.02-.05-.05-.08h-.06s.03-.07.02-.12c.02,0,.02.01,0,.02.12-.07-.11-.11-.02-.17-.02,0-.02-.02,0-.03h0s0,0,0,0l.03-.02s-.02.01-.03.02c0,0-.01-.02-.03-.04l.06-.02h0s-.03,0-.07,0c-.01,0-.02-.01-.04-.01.09-.03-.04-.03.06-.07-.05,0-.05-.07-.16-.05.01,0,.02,0,.02,0,0-.02.02-.04-.01-.04l.07-.02-.11-.02s.07-.04.13-.03c-.1-.03-.04-.03-.14-.06h.05s-.07-.03-.04-.05c.09-.06-.03-.17.04-.28-.14.05.05-.06-.06-.03.03-.01.05-.03.08-.03-.05-.04.03-.08-.07-.09.03-.01.05,0,.07-.01,0,0-.03,0-.01-.02.02-.01.03,0,.05,0-.02-.05-.12-.02-.22,0,.04-.04.03-.05-.04-.04.03-.02.06-.04.08-.02,0-.02.01-.11-.06-.09.02-.01,0-.02-.01-.02,0-.04,0-.04-.02-.07h0c-.09.03-.03,0-.05-.03h0c.04-.09-.04-.02,0-.11l-.05.02c-.12.04.05-.08-.01-.1l-.03.03s.14-.12.14-.15c0,0,.02,0,.03,0,.05-.08-.07.02-.11,0,.04-.02.1-.03.1-.06.02-.03-.16-.02-.1-.09-.03.02-.05.04-.08.04-.02-.02.07-.13-.03-.1,0,0,.01-.01.02-.02-.03,0-.07-.05-.13-.03.17-.12-.16-.07,0-.17l-.04-.06h.02c-.01-.05-.06-.04-.11-.03,0-.02.02-.02.03-.02,0-.08-.01-.08-.12-.07l.05-.04s.03-.13-.07-.14c0,0,.02,0,.03-.01-.1-.02.03-.25-.16-.13h-.07c.02.06-.08.05-.09.09-.02,0,.01-.09.04-.07h0c.1-.05-.02-.07.05-.12-.08-.09-.11-.22-.2-.3l-.05.07-.02-.03s.04-.06.06-.04c.02-.05-.06,0-.08.01-.01-.07.09-.06.08-.08h-.02s0,0,0,0c-.04.01-.07.04-.09.01,0-.03.03-.05.03-.06,0,0,0,0,0-.01l-.03-.04-.03.07s-.03-.03-.07.04c.06-.12-.11-.16-.11-.2-.06.02-.08,0-.11-.02,0,.02-.04.09-.06.06.11-.13,0-.09.04-.21-.02.08-.09-.04-.12.08-.02-.03.03-.05.04-.1-.09.02-.1-.11-.19-.13-.01.02-.02.05-.05.08v-.12s-.06.11-.05.02c0,.02-.01.05-.02.05-.1-.17-.32-.05-.42-.28.01.05,0,.05-.02.04,0,.01-.02.05-.02.08l-.04-.1c-.03.08-.07-.01-.1.06h.02c-.05.08-.01.2-.05.32.06-.09.03.17.11.04,0,.03-.02.03-.02.06.03-.05.04-.05.06-.02h0c.07.02.09.08.15.14l.02-.06s0,.03.01.05c.05-.07-.04-.02.01-.11-.03.12.11.05.07.18.02.01.02-.06.05-.05v.04s.02-.04.02-.04c.01.02,0,.06-.01.09,0,0-.01,0-.02,0,0,.05.06.02.06.03v-.03c.07,0,.12.09.22.06v-.03c.08-.01.03.05.09.06h0s.05-.01.06,0c-.03.02-.01.07-.05.09.08,0,.05-.02.14-.08l-.02.04s.05-.04.08-.03c-.04.02-.03.07-.08.09-.01.11.14-.02.06.11.1-.08,0-.09.03-.1.02-.04.08-.06.09-.03.01.02-.08.15-.04.18,0,0-.01,0-.01,0,0,.04.06,0,.04.05.06-.05.02.02.09-.04l-.05-.02s.13-.07.13,0c-.02.01-.04.02-.06.03-.01.03.03,0,.02.03-.07.07-.06-.02-.13.01-.02.04.09-.01,0,.05.11-.08.02.05.12,0l-.04.04s.04-.01.04,0l-.07.04c.07-.03,0,.08.04.07-.04-.04.04-.06.06-.1.1,0-.09.14-.02.17-.01,0,0-.05.03-.06,0,.02,0,.05-.02.07.04.03.04-.05.08-.05-.04.06.04,0,.07,0l-.05.04c0,.07.11-.07.1,0l-.08.04h.03s-.06.05-.06.05c.06,0,.05,0,.06.04.03-.03.09-.06.11-.05-.02.04-.05.03-.02.05-.04.02-.08.04-.04,0l-.05.03s.02.04.03.05c0,0,0-.01,0-.02h.1s-.03.02-.05.02c.01,0,.04,0,.05,0-.04.03-.08.06-.11.05h.07s-.03.06-.05.07c0,.04.12,0,.11.05,0,0,.02,0,.03,0,0,.04-.02.09.05.09l-.06.07s.08-.08.13-.06c.04.02-.06.05-.07.07.05,0,.14-.02.1.04-.02,0-.01-.02-.02-.02Zm.22.34s-.06,0-.03-.02c.07-.02.04,0,.03.02Zm.35.53s-.01-.01,0-.03c0,0,0,.01,0,.03Zm.69,1.73h0s.01-.01,0,0Zm-.02.04s.02,0,.03,0c-.02,0-.02-.01-.01-.02-.02,0-.03,0-.01.02Zm-1.55-3.9v.02s-.02,0,0-.02Z"/><path class="cls-3" d="m38.27,6.41h.03s-.02,0-.03,0Z"/><polygon class="cls-3" points="37.65 5.4 37.65 5.4 37.64 5.4 37.65 5.4"/><path class="cls-3" d="m38.49,7.67s.02-.01.03-.02c-.01,0-.03,0-.03.02Z"/><path class="cls-3" d="m39.15,8.43l-.02-.02s0,.02-.02.02c.01,0,.03,0,.04,0Z"/><path class="cls-3" d="m38.79,8.66s0,0,0,.01h.03s-.03-.03-.04-.01Z"/><path class="cls-3" d="m38.96,8.46c-.05,0-.03.02-.02.04h0c.07,0,.05-.02.02-.04Z"/><path class="cls-3" d="m38.93,8.5s0,.01,0,.02c.03,0,0,0,0-.02Z"/><path class="cls-3" d="m39.08,8.27s.06,0,.04,0c.06,0-.08-.05-.04,0Z"/><polygon class="cls-3" points="38.79 8.48 38.85 8.47 38.8 8.46 38.79 8.48"/><path class="cls-3" d="m38.83,8.34l-.02.03s.02,0,.02,0c0-.02.01-.04,0-.03Z"/><path class="cls-3" d="m38.83,8.38s0,.02.01.02c0,0,0-.01-.01-.02Z"/><polygon class="cls-3" points="38.77 8.44 38.78 8.43 38.79 8.41 38.77 8.44"/><path class="cls-3" d="m38.82,8.04l-.02-.03s-.03,0-.02.02c.02,0,.02.02.04.01Z"/><path class="cls-3" d="m38.66,8.15s.03-.01.05-.02h-.08s.03.02.03.02Z"/><path class="cls-3" d="m38.64,8.06s-.06-.04-.06,0c.02,0,.04.03.06,0Z"/><polygon class="cls-3" points="38.69 7.61 38.7 7.61 38.82 7.6 38.69 7.61"/><path class="cls-3" d="m38.34,7.26s.08,0,.05.03c.03,0,.03-.03.05-.03-.03-.02-.02-.03-.1,0Z"/><path class="cls-3" d="m38.44,7.27s.01,0,.02,0c0,0-.02,0-.02,0Z"/><polygon class="cls-3" points="36.19 3.55 36.17 3.52 36.18 3.57 36.19 3.55"/><path class="cls-3" d="m36.13,3.63v-.08s-.02.07-.02.07c0,0,.02,0,.02.01Z"/><path class="cls-3" d="m37.9,6.04h.02s.02-.02.02-.03l-.03.03Z"/><polygon class="cls-3" points="37.83 5.77 37.83 5.77 37.89 5.73 37.83 5.77"/><path class="cls-3" d="m37.64,5.61s.02.01.02.02c-.02-.01.05-.07-.02-.02Z"/></g></g></g><g><path d="m44.3,33.73v.04s-12.74,1.5-15.97-11.73c-3.24,13.21-16.34,11.17-16.34,11.17,0-.1,0-.2,0-.29,0-.04,0-.08,0-.12,0-.12,0-.23.01-.35,0-.03,0-.06,0-.1,0-.1.01-.19.02-.29,0-.04,0-.08,0-.13,0-.11.02-.23.03-.34.01-.13.03-.26.04-.39.02-.13.03-.26.05-.39.02-.13.04-.26.06-.39,0,0,0,0,0,0,.04-.26.09-.51.15-.76.03-.12.06-.24.09-.37,0-.01,0-.02,0-.03.03-.12.06-.23.09-.35,0,0,0,0,0,0,.03-.1.06-.21.09-.31.01-.04.02-.08.03-.12.03-.09.06-.19.09-.28,0-.02,0-.03.02-.05.03-.11.07-.21.11-.32,0,0,0-.02,0-.02.03-.1.07-.2.11-.29.02-.05.04-.09.05-.14,0,0,0-.02,0-.03.06-.15.12-.29.18-.44.03-.08.06-.15.1-.23.07-.15.14-.3.21-.45.18-.37.37-.73.57-1.08.12-.2.23-.4.36-.59.06-.1.12-.19.19-.29.06-.09.13-.19.19-.28.1-.15.21-.29.32-.44.11-.14.22-.29.33-.43.07-.09.14-.18.22-.26,0,0,0,0,0-.01,0,0,.01-.01.02-.02.04-.04.07-.09.11-.13.04-.04.07-.08.11-.13.08-.09.16-.18.24-.27.16-.18.33-.35.5-.52.1-.1.21-.2.31-.3.02-.02.05-.05.07-.07.04-.04.08-.07.12-.11.03-.03.07-.06.1-.09.04-.03.07-.06.11-.1.31-.28.64-.54.97-.8.11-.08.22-.16.33-.24,0,0,0,0,0,0,0,0,0,0,0,0,.07-.05.15-.1.22-.15.09-.06.18-.12.26-.18.13-.09.26-.17.39-.25,0,0,0,0,0,0,.42-.26.86-.5,1.3-.73.45-.22.91-.43,1.38-.61.12-.04.24-.09.35-.13.12-.04.24-.08.36-.12.12-.04.24-.08.35-.11,0,0,.01,0,.01,0,.12-.04.24-.07.36-.1.24-.07.49-.13.74-.19s.5-.11.75-.15c.13-.02.25-.04.38-.06.13-.02.26-.04.38-.05.12-.02.24-.03.35-.04.01,0,.02,0,.04,0,.39-.04.78-.07,1.17-.08h.01c.13,0,.26,0,.4,0h0s.09,0,.14,0c.07,0,.14,0,.2,0,0,0,0,.01,0,.02,0,0,0-.01,0-.02,1.73.02,3.4.32,4.96.85,5.51,1.86,9.68,6.62,10.71,12.46.07.41.13.82.17,1.23,0,.03,0,.05,0,.08.05.5.07,1.01.07,1.52h0s.02.23.04.52Z"/><g class="cls-1"><g><path class="cls-3" d="m43.27,32.26s.05,0,.06,0c-.01-.02-.07,0-.06,0Z"/><polygon class="cls-3" points="43.15 32.09 43.17 32.09 43.12 32.07 43.15 32.09"/><path class="cls-3" d="m43.14,31.93c-.09.02.02.06-.01.09h-.02s.07.02.07.02c-.01-.03-.06-.08-.04-.1Z"/><path class="cls-3" d="m43.33,31.83s-.03-.02,0,.02h0s0-.01,0-.02Z"/><path class="cls-3" d="m43.33,31.85s.03-.01,0,0h0Z"/><path class="cls-3" d="m43.31,31.77l.03.02s.02-.03.04-.02c-.02-.02-.04-.02-.07,0Z"/><path class="cls-3" d="m43.24,31.75h.01s.01,0-.01,0Z"/><path class="cls-3" d="m43.28,31.79l-.03-.02s-.04,0,.01.01c-.03,0,0,0,.02.01Z"/><path class="cls-3" d="m43.27,31.8s-.03.03-.06,0c.01.04.08.03.06,0Z"/><path class="cls-3" d="m43.05,31.92l-.03.02h.03s.02-.02,0-.02Z"/><path class="cls-3" d="m43.34,31.63s-.05.01-.07.01l.02.02s.02-.03.05-.03Z"/><path class="cls-3" d="m43.27,31.64l-.03-.02s.01.03.03.02Z"/><polygon class="cls-3" points="43.14 31.75 43.21 31.79 43.14 31.75 43.14 31.75"/><polygon class="cls-3" points="43.34 31.53 43.39 31.54 43.32 31.52 43.34 31.53"/><path class="cls-3" d="m43.33,31.47s.06-.02.08,0c0-.02-.04-.03-.07-.04.02.01.01.03-.01.05Z"/><path class="cls-3" d="m43.3,31.4s.03.01.04.02c0,0-.02-.01-.04-.02Z"/><path class="cls-3" d="m43.24,31.58s.04,0,.05-.02h-.05s0,.02,0,.02Z"/><path class="cls-3" d="m43.24,31.57h0s0-.02,0-.02c0,0,0,0,0,.02Z"/><path class="cls-3" d="m43.24,31.58h0s0,0,0,0Z"/><path class="cls-3" d="m43.19,31.69s-.06-.04-.11,0c.04,0,.06,0,.11,0Z"/><path class="cls-3" d="m43.18,31.59v.03s.02,0,.04,0l-.04-.03Z"/><polygon class="cls-3" points="43.16 31.58 43.18 31.59 43.18 31.58 43.16 31.58"/><path class="cls-3" d="m43.26,31.45s-.03-.02-.03-.04c0,.02-.01.03-.01.05.02,0,.05,0,.04-.01Z"/><path class="cls-3" d="m43.24,31.51h0s0,0,0,0Z"/><polygon class="cls-3" points="43.21 31.28 43.2 31.28 43.21 31.28 43.21 31.28"/><path class="cls-3" d="m43.2,31.46s0,.02.02.02c0,0-.01-.02-.01-.03,0,0,0,0,0,0Z"/><path class="cls-3" d="m43.27,31.37l-.03.02s.04-.02.03-.02Z"/><path class="cls-3" d="m43.26,31.5h0s0,0,0,0Z"/><path class="cls-3" d="m43.26,31.5s-.02,0-.03-.01c0,0,.01.01.02.02,0,0,0,0,.01,0Z"/><path class="cls-3" d="m42.87,31.26s.1.02.05.05c.04.02.2,0,.29-.03-.02,0-.04,0-.07-.02-.03.01-.06.06-.1.04-.03-.03.02-.03.04-.05-.06.02-.09-.04-.18-.02l.03.03s-.04,0-.05,0Z"/><path class="cls-3" d="m43.2,31.33h0s.03-.01.06-.03c-.03-.02-.04-.02-.06-.02v.05s-.01,0-.01,0Z"/><path class="cls-3" d="m43.21,31.39c-.05,0-.08-.03-.14,0,0,.03.05.02.07.04-.02-.05.03.01.06-.03,0,0,.01.02.02.03,0,0,.01-.02.02-.03h0s0,0,0,0h0s0,0,0,0h0s-.02,0-.02,0c0-.02.01,0,.02,0h0s0,0,0,0l-.03-.05s0,.02,0,.05Z"/><path class="cls-3" d="m42.96,31.66h.01s-.01,0-.01,0Z"/><path class="cls-3" d="m42.99,31.63s.03,0,.02.02c-.02.01-.03,0-.04,0,.01,0,.04.02.06,0h0s.08-.05.09-.05c-.05,0-.08.02-.13.03Z"/><path class="cls-3" d="m43.09,31.51l-.03-.04-.04.02h.03s.02.01.05.02Z"/><polygon class="cls-3" points="43.24 31.27 43.3 31.27 43.22 31.25 43.24 31.27"/><polygon class="cls-3" points="43.23 31.22 43.28 31.21 43.25 31.2 43.23 31.22"/><path class="cls-3" d="m42.1,28.32h-.02s.01,0,.02,0Z"/><path class="cls-3" d="m42.12,28.41h.02s-.02,0-.02,0Z"/><path class="cls-3" d="m43.07,29.87s.11-.06.06-.05h-.05s0,.04,0,.05Z"/><polygon class="cls-3" points="42.58 29.03 42.56 29.04 42.62 29.04 42.58 29.03"/><path class="cls-3" d="m42.36,29.06l.03-.03s-.02.02-.03.03Z"/><path class="cls-3" d="m41.9,27.9h-.06s.03,0,.06,0Z"/><path class="cls-3" d="m43.16,30.66s.03-.03.03-.04c-.03.02-.07.04-.03.04Z"/><path class="cls-3" d="m42.66,28.19s-.02,0-.03,0c.01,0,.02,0,.03,0Z"/><path class="cls-3" d="m43.18,30.57h-.01s.02.03.02.04c.02-.02.03-.03,0-.04Z"/><path class="cls-3" d="m41.16,26.39h0s0,0,0,0Z"/><path class="cls-3" d="m41.22,25.65s.02,0,.03.01c0,0,0-.01-.03-.01Z"/><path class="cls-3" d="m43.23,30.99s0,0,0,0h0Z"/><path class="cls-3" d="m43.03,31.07s-.01,0-.03,0c.01,0,.02,0,.03,0Z"/><path class="cls-3" d="m42.83,30.49h0s0,0,0,0Z"/><path class="cls-3" d="m43.21,31.01v-.02s0,0,0,.02Z"/><path class="cls-3" d="m43.24,31.01s0,.01,0,.01c0,0,.01,0,0-.01Z"/><path class="cls-3" d="m43.23,30.98s0,.01,0,.02h0s0-.01,0-.02Z"/><path class="cls-3" d="m41.76,27.11h0s-.02,0,0,0Z"/><polygon class="cls-3" points="42.47 29.67 42.47 29.67 42.47 29.67 42.47 29.67"/><path class="cls-3" d="m42.42,29.64c.07,0,.06.02.05.03l.15-.04h-.2Z"/><path class="cls-3" d="m42.02,28.13l-.04.04c-.09,0-.07-.04-.12,0,.16-.05.05.1.21.05l-.03.03s0,0,0,0c-.07.06.12-.01.11.04,0,.02-.03.04-.05.03l.05.02s-.03.02-.03,0l.03.05h0s.07,0,.09.01c-.02.02-.02,0-.04,0l.05.02s-.09.01-.09-.01c-.15.07.05.01-.03.1l-.03-.02c-.09.04-.05.06-.1.1.03-.02.13-.1.18-.08,0,.01-.01.03.02.03-.06.02-.04.03-.03.05l-.08.02s.07,0,.1,0c0,.03-.06.05-.11.07,0,.04.09-.05.12,0-.02.04.02.06.07.09-.02.03-.05,0-.07.02h.07s-.02.01-.03.02c.03.01.08-.02.11,0,.09-.01-.11.09,0,.1-.02.01-.05,0-.08.02.07.03.06.03.15.05l-.04.05c.05-.04.13-.02.19,0,.03-.02.05-.03.06-.04l.05.04s-.04,0-.07,0h.02s-.07.03-.12.03l.04-.03s-.1,0-.15.01c0,0,.02,0,.02,0-.01,0-.03,0-.03,0,0,0,.01,0,.03,0l-.08.03h.03s-.04.06-.04.06c.1.02.23.03.28.09-.07,0-.1.02-.18.03.08-.03-.04-.04-.04-.08,0,.02-.04.02-.05.02l.09.05c-.06.01-.04.02-.07.04.12-.04.09.03.13.05-.04,0-.08.01-.08-.02-.09.05.15.01.08.06,0,0,0-.01-.02-.01.04.01.02.06-.02.06h0s.03.14.13.13c-.01,0-.13.01-.15.02l.37.03c-.09,0-.3.08-.36.04-.01.01-.02.03.01.05.01-.01.13-.04.14-.03-.09.05-.05.03-.13.08.02-.02.16-.03.16,0-.02,0-.14.03-.15.02l.15.02s-.12.02-.15.03c.03,0,0,.04.02.05l.03-.03c-.01.06.2.02.21.08-.03,0-.18.01-.19.04.07,0,.35,0,.41.04l-.04.02.05.03c-.11,0-.34-.04-.44-.06-.03.03-.05.01-.04.04-.04.02-.06,0-.06-.02v.07c.07-.02.08.04.14.03l-.1-.06c.08-.02.24,0,.23.06-.03.02-.15.01-.18.02.03,0,.06.04.04.05h-.05s.12.01.04.06c0,.01-.1.05-.05.04.09-.03.38-.08.46-.07,0,0-.08.07-.13.09-.07.03-.18,0-.24.02.02,0,.05,0,.06,0-.02.01-.07,0-.06.03.08,0,0,.05.07,0,.03.02-.01.03,0,.06.05-.02.19,0,.22.03-.02,0-.05.01-.06.01,0,.05-.04.09-.03.14-.02,0-.04.03-.08.03.02,0,.05,0,.05.02-.07.04-.02-.03-.1,0,.05,0,.07.03.11.05.07-.01,0-.05-.02-.07.1-.01.22.01.27.06.03.04-.07.03-.05.03-.01.08.19.05.12.12-.06.03-.13.01-.18.02-.03-.03.04-.06.03-.08l-.03.03s-.04-.03-.02-.04c-.06.03,0,.13-.05.2.02,0,.05.02.07.01v-.02s.07.03.09,0c.04.02.1.05.08.09h-.08s.04-.01.02-.02c.04.01-.1.06,0,.07l.05-.03s.12.05.1.08c.07-.02,0,0,.08-.04-.11.03,0-.08-.11-.04.1-.03.04-.04.12-.08-.02,0-.05.02-.04-.01,0,0-.02,0-.02,0h0s0,0,0,0h0s-.02.01-.04.02c-.06,0-.06-.05-.09-.06.01-.02.03,0,.06,0l-.05-.02c.06,0,.09-.05.12-.02v-.03s.04-.05.01-.07c.01-.02-.07-.03-.02-.02l-.04-.05h.01c0-.06-.1-.1-.01-.17-.02-.02-.04-.03-.02-.06h.05s.04-.09-.01-.09c.13-.04.02-.12.03-.16h-.06s-.02-.05-.05-.08h-.05s.03-.07.02-.12c.02,0,.02.01,0,.02.12-.07-.11-.1-.02-.17-.02,0-.02-.02,0-.03h0s0,0,0,0l.03-.02s-.02.01-.03.02c0,0-.01-.02-.03-.04l.06-.02h0s-.03,0-.07,0c-.01,0-.02-.01-.04-.01.09-.03-.04-.03.06-.06-.05,0-.05-.07-.16-.06.01,0,.02,0,.02,0,0-.02.02-.04-.01-.05l.07-.02-.11-.02s.07-.04.13-.03c-.1-.04-.04-.04-.14-.06h.05s-.07-.03-.04-.05c.09-.05-.02-.17.05-.28-.14.05.06-.05-.06-.04.03-.01.05-.03.08-.02-.04-.04.04-.08-.06-.09.03-.01.05,0,.07-.01,0,0-.03,0-.01-.02.02,0,.03,0,.05,0-.02-.05-.12-.03-.22,0,.04-.03.03-.04-.04-.05.03-.02.06-.04.08-.01,0-.02.02-.11-.05-.09.02,0,0-.02,0-.03,0-.04,0-.04-.01-.08h-.01c-.1.02-.03-.01-.05-.04h0c.05-.08-.04-.02.02-.1l-.06.02c-.13.03.06-.08,0-.1l-.03.02s.15-.1.16-.13c0,0,.02,0,.03,0,.06-.07-.08.01-.11-.02.04-.02.11-.02.11-.05.03-.02-.15-.04-.09-.1-.03.02-.06.03-.09.02-.02-.02.09-.11-.01-.11,0,0,.02-.01.02-.01-.03-.01-.06-.06-.12-.05.19-.08-.14-.1.04-.16l-.03-.06h.02c0-.05-.05-.05-.1-.05,0-.01.03-.01.04-.02.02-.07,0-.08-.1-.1l.06-.03s.06-.12-.03-.16c0,0,.02,0,.03,0-.09-.04.09-.23-.12-.16l-.07-.02c0,.06-.09.03-.12.07-.02-.02.04-.08.06-.06h0c.11-.03,0-.08.08-.11-.06-.11-.04-.24-.09-.35l-.08.05v-.04s.04-.05.05-.02c.04-.04-.06-.02-.08-.01,0-.07.1-.03.1-.05l-.02-.02h0s-.08.03-.09,0c0-.03.04-.04.04-.05,0,0,0,0,0-.01l-.02-.05-.05.05s-.02-.04-.08.02c.09-.09-.06-.18-.03-.22-.06,0-.08-.03-.09-.06,0,.02-.07.06-.08.03.15-.08.03-.09.12-.17-.05.06-.06-.06-.14.03,0-.03.05-.03.07-.07-.09-.02-.04-.14-.1-.19-.02.01-.04.04-.08.04l.07-.09s-.11.06-.07,0c-.01.01-.03.03-.04.03,0-.2-.24-.21-.27-.49,0,.05-.02.04-.04.03,0,.02-.03.04-.05.07l-.02-.11c-.05.06-.08-.04-.12.03h.03c-.07.07-.06.2-.12.3.08-.08-.04.16.08.06,0,.02-.03.03-.04.05.04-.03.06-.03.06,0h-.01c.05.04.03.1.05.18l.04-.04s0,.03-.02.05c.08-.04-.02-.04.07-.09-.08.09.07.1-.03.19.01.02.05-.04.07-.02l-.03.03.04-.02s-.03.05-.06.07c0,0-.01,0-.02,0-.02.04.05.05.04.06v-.04c.08.05.09.16.19.18l.02-.02c.08.02,0,.06.06.1h0s.05,0,.06.02c-.04,0-.04.06-.08.06.08.02.05,0,.16-.02l-.03.03s.06-.02.09,0c-.05,0-.05.05-.11.06-.05.11.14.03.03.13.13-.04.03-.08.06-.08.03-.03.1-.03.1,0,0,.02-.13.11-.1.16,0,0-.01,0-.01,0-.02.03.06.01.02.06.07-.02.01.03.1-.01l-.04-.03s.15-.02.12.05c-.02,0-.05,0-.07,0-.02.03.03.01,0,.04-.09.04-.05-.04-.13-.03-.03.03.09.02-.01.05.13-.04,0,.05.12.04l-.05.02s.04,0,.04,0l-.08.02c.07,0-.03.07.02.08-.03-.05.06-.04.09-.08.1.03-.12.1-.06.16-.01,0,.02-.05.05-.05,0,.02-.02.05-.04.07.03.04.05-.03.09-.03-.06.05.04.01.07.02l-.05.02c-.01.07.12-.04.1.03h-.09s.03.03.03.03l-.07.02c.06,0,.05.02.04.06.04-.02.1-.04.11-.01-.03.03-.06.01-.03.04-.04,0-.08.02-.04-.02h-.06s0,.06.02.07c0,0,0-.01,0-.02l.1.02s-.04.02-.06.02c.01,0,.04,0,.05.02-.05.01-.09.03-.12.02l.07.03s-.04.05-.06.05c-.02.04.11.03.09.08,0,0,.02,0,.03,0,0,.04-.04.09.03.11l-.07.05s.09-.07.14-.02c.04.03-.07.04-.08.06.05,0,.14,0,.09.07-.02,0-.01-.02-.02-.03Zm.16.39s-.06,0-.02-.02c.07-.01.04,0,.02.02Zm.3.59s-.01-.01,0-.03c0,0,0,.02,0,.03Zm.69,1.76h0s.01-.01,0,0Zm-.02.04s.02,0,.03,0c-.02,0-.02-.01-.01-.02-.02,0-.03.01-.01.02Zm-1.1-4.1h-.01s0,0,.01,0Z"/><path class="cls-3" d="m42.38,29.06h.03s-.02,0-.03,0Z"/><polygon class="cls-3" points="41.91 27.9 41.91 27.9 41.9 27.9 41.91 27.9"/><path class="cls-3" d="m42.58,30.37s.02-.01.03-.02c-.01,0-.03,0-.03.02Z"/><path class="cls-3" d="m43.27,31.11l-.02-.02s0,.02-.02.02c.01,0,.03,0,.04,0Z"/><path class="cls-3" d="m42.92,31.36s0,0,0,.01h.03s-.03-.03-.04-.01Z"/><path class="cls-3" d="m43.08,31.15c-.05,0-.03.02-.02.04h0c.07,0,.05-.02.02-.04Z"/><path class="cls-3" d="m43.06,31.19s0,.01,0,.02c.03,0,0,0,0-.02Z"/><path class="cls-3" d="m43.19,30.96s.06,0,.04,0c.06,0-.08-.05-.04,0Z"/><polygon class="cls-3" points="42.91 31.18 42.97 31.17 42.92 31.16 42.91 31.18"/><path class="cls-3" d="m42.94,31.04v.03s0,0,0,0c0-.02.01-.04,0-.03Z"/><path class="cls-3" d="m42.95,31.07s0,.02.01.02c0,0,0-.01-.01-.02Z"/><polygon class="cls-3" points="42.89 31.14 42.9 31.13 42.9 31.11 42.89 31.14"/><path class="cls-3" d="m42.93,30.74l-.02-.03s-.03,0-.02.02c.02,0,.02.02.04,0Z"/><path class="cls-3" d="m42.77,30.85s.03-.01.05-.02h-.08s.03.02.03.02Z"/><path class="cls-3" d="m42.74,30.76s-.07-.04-.06,0c.02,0,.04.03.06,0Z"/><polygon class="cls-3" points="42.78 30.3 42.79 30.3 42.91 30.29 42.78 30.3"/><path class="cls-3" d="m42.43,29.94s.08,0,.05.03c.03,0,.03-.03.05-.03-.03-.02-.02-.03-.1,0Z"/><path class="cls-3" d="m42.52,29.95s.01,0,.02,0c0,0-.02,0-.02,0Z"/><polygon class="cls-3" points="41.15 25.53 41.14 25.49 41.14 25.54 41.15 25.53"/><path class="cls-3" d="m41.06,25.59l.03-.08-.05.06s.02,0,.02.02Z"/><path class="cls-3" d="m42.04,28.63h.02s.02-.02.02-.03l-.04.03Z"/><polygon class="cls-3" points="42.02 28.32 42.02 28.32 42.08 28.29 42.02 28.32"/><path class="cls-3" d="m41.85,28.11s.02.02.02.03c-.02-.02.07-.06-.02-.03Z"/></g></g></g></g></g></g></g></svg>